<svg width="68" height="70" viewBox="0 0 68 70" fill="none" xmlns="http://www.w3.org/2000/svg">
<rect x="20.1111" y="17.5" width="2.77778" height="2.77778" fill="#DA7756"/>
<rect x="22.8889" y="17.5" width="2.77778" height="2.77778" fill="#DA7756"/>
<rect x="25.6667" y="17.5" width="2.77778" height="2.77778" fill="#DA7756"/>
<rect x="28.4445" y="17.5" width="2.77778" height="2.77778" fill="#DA7756"/>
<rect x="31.2222" y="17.5" width="2.77778" height="2.77778" fill="#DA7756"/>
<rect x="34" y="17.5" width="2.77778" height="2.77778" fill="#DA7756"/>
<rect x="36.7778" y="17.5" width="2.77778" height="2.77778" fill="#DA7756"/>
<rect x="39.5556" y="17.5" width="2.77778" height="2.77778" fill="#DA7756"/>
<rect x="42.3333" y="17.5" width="2.77778" height="2.77778" fill="#DA7756"/>
<rect x="45.1111" y="17.5" width="2.77778" height="2.77778" fill="#DA7756"/>
<rect x="17.3333" y="20.2778" width="2.77778" height="2.77778" fill="#DA7756"/>
<rect x="20.1111" y="20.2778" width="2.77778" height="2.77778" fill="#DA7756"/>
<rect x="22.8889" y="20.2778" width="2.77778" height="2.77778" fill="#DA7756"/>
<rect x="42.3333" y="20.2778" width="2.77778" height="2.77778" fill="#DA7756"/>
<rect x="45.1111" y="20.2778" width="2.77778" height="2.77778" fill="#DA7756"/>
<rect x="47.8889" y="20.2778" width="2.77778" height="2.77778" fill="#DA7756"/>
<rect x="14.5556" y="23.0555" width="2.77778" height="2.77778" fill="#DA7756"/>
<rect x="17.3333" y="23.0555" width="2.77778" height="2.77778" fill="#DA7756"/>
<rect x="17.3333" y="25.8333" width="2.77778" height="2.77778" fill="#DA7756"/>
<rect x="47.8889" y="23.0555" width="2.77778" height="2.77778" fill="#DA7756"/>
<rect x="50.6667" y="23.0555" width="2.77778" height="2.77778" fill="#DA7756"/>
<rect x="14.5556" y="25.8333" width="2.77778" height="2.77778" fill="#DA7756"/>
<rect x="47.8889" y="25.8333" width="2.77778" height="2.77778" fill="#DA7756"/>
<rect x="50.6667" y="25.8333" width="2.77778" height="2.77778" fill="#DA7756"/>
<rect x="14.5556" y="28.6111" width="2.77778" height="2.77778" fill="#DA7756"/>
<rect x="50.6667" y="28.6111" width="2.77778" height="2.77778" fill="#DA7756"/>
<rect x="14.5556" y="31.3889" width="2.77778" height="2.77778" fill="#DA7756"/>
<rect x="50.6667" y="31.3889" width="2.77778" height="2.77778" fill="#DA7756"/>
<rect x="14.5556" y="34.1667" width="2.77778" height="2.77778" fill="#DA7756"/>
<rect x="50.6667" y="34.1667" width="2.77778" height="2.77778" fill="#DA7756"/>
<rect x="14.5556" y="36.9445" width="2.77778" height="2.77778" fill="#DA7756"/>
<rect x="50.6667" y="36.9445" width="2.77778" height="2.77778" fill="#DA7756"/>
<rect x="14.5556" y="39.7222" width="2.77778" height="2.77778" fill="#DA7756"/>
<rect x="50.6667" y="39.7222" width="2.77778" height="2.77778" fill="#DA7756"/>
<rect x="14.5556" y="42.5" width="2.77778" height="2.77778" fill="#DA7756"/>
<rect x="50.6667" y="42.5" width="2.77778" height="2.77778" fill="#DA7756"/>
<rect x="14.5556" y="45.2778" width="2.77778" height="2.77778" fill="#DA7756"/>
<rect x="14.5556" y="48.0556" width="2.77778" height="2.77778" fill="#DA7756"/>
<rect x="11.7778" y="48.0556" width="2.77778" height="2.77778" fill="#DA7756"/>
<rect x="50.6667" y="45.2778" width="2.77778" height="2.77778" fill="#DA7756"/>
<rect x="50.6667" y="48.0556" width="2.77778" height="2.77778" fill="#DA7756"/>
<rect x="53.4445" y="48.0556" width="2.77778" height="2.77778" fill="#DA7756"/>
<rect x="9" y="50.8333" width="2.77778" height="2.77778" fill="#DA7756"/>
<rect x="11.7778" y="50.8333" width="2.77778" height="2.77778" fill="#DA7756"/>
<rect x="53.4445" y="50.8333" width="2.77778" height="2.77778" fill="#DA7756"/>
<rect x="56.2222" y="50.8333" width="2.77778" height="2.77778" fill="#DA7756"/>
<rect x="11.7778" y="53.6111" width="2.77778" height="2.77778" fill="#DA7756"/>
<rect x="14.5556" y="53.6111" width="2.77778" height="2.77778" fill="#DA7756"/>
<rect x="17.3333" y="53.6111" width="2.77778" height="2.77778" fill="#DA7756"/>
<rect x="20.1111" y="53.6111" width="2.77778" height="2.77778" fill="#DA7756"/>
<rect x="22.8889" y="53.6111" width="2.77778" height="2.77778" fill="#DA7756"/>
<rect x="25.6667" y="53.6111" width="2.77778" height="2.77778" fill="#DA7756"/>
<rect x="28.4445" y="53.6111" width="2.77778" height="2.77778" fill="#DA7756"/>
<rect x="31.2222" y="53.6111" width="2.77778" height="2.77778" fill="#DA7756"/>
<rect x="34" y="53.6111" width="2.77778" height="2.77778" fill="#DA7756"/>
<rect x="36.7778" y="53.6111" width="2.77778" height="2.77778" fill="#DA7756"/>
<rect x="39.5556" y="53.6111" width="2.77778" height="2.77778" fill="#DA7756"/>
<rect x="42.3333" y="53.6111" width="2.77778" height="2.77778" fill="#DA7756"/>
<rect x="45.1111" y="53.6111" width="2.77778" height="2.77778" fill="#DA7756"/>
<rect x="47.8889" y="53.6111" width="2.77778" height="2.77778" fill="#DA7756"/>
<rect x="50.6667" y="53.6111" width="2.77778" height="2.77778" fill="#DA7756"/>
<rect x="53.4445" y="53.6111" width="2.77778" height="2.77778" fill="#DA7756"/>
<rect x="22.8889" y="56.3889" width="2.77778" height="2.77778" fill="#DA7756"/>
<rect x="25.6667" y="56.3889" width="2.77778" height="2.77778" fill="#DA7756"/>
<rect x="39.5556" y="56.3889" width="2.77778" height="2.77778" fill="#DA7756"/>
<rect x="42.3333" y="56.3889" width="2.77778" height="2.77778" fill="#DA7756"/>
<rect x="25.6667" y="59.1667" width="2.77778" height="2.77778" fill="#DA7756"/>
<rect x="28.4445" y="59.1667" width="2.77778" height="2.77778" fill="#DA7756"/>
<rect x="36.7778" y="59.1667" width="2.77778" height="2.77778" fill="#DA7756"/>
<rect x="39.5556" y="59.1667" width="2.77778" height="2.77778" fill="#DA7756"/>
<rect x="28.4445" y="61.9445" width="2.77778" height="2.77778" fill="#DA7756"/>
<rect x="31.2222" y="61.9445" width="2.77778" height="2.77778" fill="#DA7756"/>
<rect x="34" y="61.9445" width="2.77778" height="2.77778" fill="#DA7756"/>
<rect x="36.7778" y="61.9445" width="2.77778" height="2.77778" fill="#DA7756"/>
<rect x="31.2222" y="5" width="2.77778" height="2.77778" fill="#DA7756"/>
<rect x="34" y="5" width="2.77778" height="2.77778" fill="#DA7756"/>
<rect x="28.4444" y="7.77777" width="2.77778" height="2.77778" fill="#DA7756"/>
<rect x="31.2222" y="7.77777" width="2.77778" height="2.77778" fill="#DA7756"/>
<rect x="34" y="7.77777" width="2.77778" height="2.77778" fill="#DA7756"/>
<rect x="36.7778" y="7.77777" width="2.77778" height="2.77778" fill="#DA7756"/>
<rect x="25.6667" y="10.5555" width="2.77778" height="2.77778" fill="#DA7756"/>
<rect x="28.4444" y="10.5555" width="2.77778" height="2.77778" fill="#DA7756"/>
<rect x="36.7778" y="10.5555" width="2.77778" height="2.77778" fill="#DA7756"/>
<rect x="39.5555" y="10.5555" width="2.77778" height="2.77778" fill="#DA7756"/>
<rect x="25.6667" y="13.3333" width="2.77778" height="2.77778" fill="#DA7756"/>
<rect x="39.5555" y="13.3333" width="2.77778" height="2.77778" fill="#DA7756"/>
<rect x="28.4444" y="16.1111" width="2.77778" height="2.77778" fill="#DA7756"/>
<rect x="25.6667" y="16.1111" width="2.77778" height="2.77778" fill="#DA7756"/>
<rect x="31.2222" y="16.1111" width="2.77778" height="2.77778" fill="#DA7756"/>
<rect x="34" y="16.1111" width="2.77778" height="2.77778" fill="#DA7756"/>
<rect x="36.7778" y="16.1111" width="2.77778" height="2.77778" fill="#DA7756"/>
<rect x="39.5555" y="16.1111" width="2.77778" height="2.77778" fill="#DA7756"/>
</svg>
