<svg width="68" height="70" viewBox="0 0 68 70" fill="none" xmlns="http://www.w3.org/2000/svg">
<rect x="27.8" y="15.4" width="0.933333" height="0.933333" fill="#D97656"/>
<rect x="28.7333" y="15.4" width="0.933333" height="0.933333" fill="#DC7757"/>
<rect x="29.6666" y="15.4" width="0.933333" height="0.933333" fill="#DA7757"/>
<rect x="30.6" y="15.4" width="0.933333" height="0.933333" fill="#DA7756"/>
<rect x="31.5333" y="15.4" width="0.933333" height="0.933333" fill="#DA7756"/>
<rect x="32.4667" y="15.4" width="0.933333" height="0.933333" fill="#DA7756"/>
<rect x="33.4" y="15.4" width="0.933333" height="0.933333" fill="#DA7756"/>
<rect x="34.3333" y="15.4" width="0.933333" height="0.933333" fill="#DA7756"/>
<rect x="35.2666" y="15.4" width="0.933333" height="0.933333" fill="#DA7756"/>
<rect x="36.2" y="15.4" width="0.933333" height="0.933333" fill="#DB7756"/>
<rect x="37.1333" y="15.4" width="0.933333" height="0.933333" fill="#DB7757"/>
<rect x="38.0667" y="15.4" width="0.933333" height="0.933333" fill="#DB7656"/>
<rect x="39" y="15.4" width="0.933333" height="0.933333" fill="#D77850"/>
<rect x="25" y="16.3333" width="0.933333" height="0.933333" fill="#DA7656"/>
<rect x="25.9333" y="16.3333" width="0.933333" height="0.933333" fill="#DA7756"/>
<rect x="26.8666" y="16.3333" width="0.933333" height="0.933333" fill="#DA7756"/>
<rect x="27.8" y="16.3333" width="0.933333" height="0.933333" fill="#DA7755"/>
<rect x="28.7333" y="16.3333" width="0.933333" height="0.933333" fill="#D97656"/>
<rect x="29.6666" y="16.3333" width="0.933333" height="0.933333" fill="#DE7352"/>
<rect x="36.2" y="16.3333" width="0.933333" height="0.933333" fill="#CF7050"/>
<rect x="37.1333" y="16.3333" width="0.933333" height="0.933333" fill="#DB7555"/>
<rect x="38.0667" y="16.3333" width="0.933333" height="0.933333" fill="#DB7656"/>
<rect x="39" y="16.3333" width="0.933333" height="0.933333" fill="#DA7756"/>
<rect x="39.9333" y="16.3333" width="0.933333" height="0.933333" fill="#DA7756"/>
<rect x="40.8666" y="16.3333" width="0.933333" height="0.933333" fill="#DA7756"/>
<rect x="41.8" y="16.3333" width="0.933333" height="0.933333" fill="#DC7956"/>
<rect x="23.1333" y="17.2667" width="0.933333" height="0.933333" fill="#DA7756"/>
<rect x="24.0667" y="17.2667" width="0.933333" height="0.933333" fill="#DA7756"/>
<rect x="25" y="17.2667" width="0.933333" height="0.933333" fill="#D97654"/>
<rect x="40.8666" y="17.2667" width="0.933333" height="0.933333" fill="#D77858"/>
<rect x="41.8" y="17.2667" width="0.933333" height="0.933333" fill="#D97756"/>
<rect x="42.7333" y="17.2667" width="0.933333" height="0.933333" fill="#DA7756"/>
<rect x="43.6666" y="17.2667" width="0.933333" height="0.933333" fill="#D97856"/>
<rect x="21.2666" y="18.2" width="0.933333" height="0.933333" fill="#DA7755"/>
<rect x="22.2" y="18.2" width="0.933333" height="0.933333" fill="#DA7756"/>
<rect x="23.1333" y="18.2" width="0.933333" height="0.933333" fill="#D97656"/>
<rect x="43.6666" y="18.2" width="0.933333" height="0.933333" fill="#DA7755"/>
<rect x="44.6" y="18.2" width="0.933333" height="0.933333" fill="#DA7756"/>
<rect x="45.5333" y="18.2" width="0.933333" height="0.933333" fill="#D77850"/>
<rect x="20.3333" y="19.1334" width="0.933333" height="0.933333" fill="#DB7756"/>
<rect x="21.2666" y="19.1334" width="0.933333" height="0.933333" fill="#D97756"/>
<rect x="44.6" y="19.1334" width="0.933333" height="0.933333" fill="#D77858"/>
<rect x="45.5333" y="19.1334" width="0.933333" height="0.933333" fill="#DA7756"/>
<rect x="46.4666" y="19.1334" width="0.933333" height="0.933333" fill="#DA7755"/>
<rect x="19.4" y="20.0667" width="0.933333" height="0.933333" fill="#DA7756"/>
<rect x="20.3333" y="20.0667" width="0.933333" height="0.933333" fill="#D87755"/>
<rect x="46.4666" y="20.0667" width="0.933333" height="0.933333" fill="#D97756"/>
<rect x="47.4" y="20.0667" width="0.933333" height="0.933333" fill="#DA7756"/>
<rect x="18.4667" y="21" width="0.933333" height="0.933333" fill="#DA7756"/>
<rect x="19.4" y="21" width="0.933333" height="0.933333" fill="#DA7A55"/>
<rect x="47.4" y="21" width="0.933333" height="0.933333" fill="#DB7756"/>
<rect x="48.3333" y="21" width="0.933333" height="0.933333" fill="#DA7756"/>
<rect x="17.5333" y="21.9334" width="0.933333" height="0.933333" fill="#DA7756"/>
<rect x="18.4667" y="21.9334" width="0.933333" height="0.933333" fill="#D67653"/>
<rect x="48.3333" y="21.9334" width="0.933333" height="0.933333" fill="#DA7756"/>
<rect x="49.2666" y="21.9334" width="0.933333" height="0.933333" fill="#D97655"/>
<rect x="16.6" y="22.8666" width="0.933333" height="0.933333" fill="#DA7756"/>
<rect x="17.5333" y="22.8666" width="0.933333" height="0.933333" fill="#DA7654"/>
<rect x="49.2666" y="22.8666" width="0.933333" height="0.933333" fill="#DA7756"/>
<rect x="50.2" y="22.8666" width="0.933333" height="0.933333" fill="#D67653"/>
<rect x="15.6667" y="23.8" width="0.933333" height="0.933333" fill="#D77858"/>
<rect x="16.6" y="23.8" width="0.933333" height="0.933333" fill="#DA7756"/>
<rect x="50.2" y="23.8" width="0.933333" height="0.933333" fill="#DA7756"/>
<rect x="15.6667" y="24.7333" width="0.933333" height="0.933333" fill="#DA7756"/>
<rect x="16.6" y="24.7333" width="0.933333" height="0.933333" fill="#D77850"/>
<rect x="50.2" y="24.7333" width="0.933333" height="0.933333" fill="#DB7656"/>
<rect x="51.1333" y="24.7333" width="0.933333" height="0.933333" fill="#DA7755"/>
<rect x="14.7333" y="25.6667" width="0.933333" height="0.933333" fill="#DB7858"/>
<rect x="15.6667" y="25.6667" width="0.933333" height="0.933333" fill="#D97756"/>
<rect x="51.1333" y="25.6667" width="0.933333" height="0.933333" fill="#DA7756"/>
<rect x="14.7333" y="26.6" width="0.933333" height="0.933333" fill="#DA7756"/>
<rect x="15.6667" y="26.6" width="0.933333" height="0.933333" fill="#D77850"/>
<rect x="51.1333" y="26.6" width="0.933333" height="0.933333" fill="#DB7756"/>
<rect x="52.0667" y="26.6" width="0.933333" height="0.933333" fill="#DA7656"/>
<rect x="14.7333" y="27.5333" width="0.933333" height="0.933333" fill="#DA7756"/>
<rect x="52.0667" y="27.5333" width="0.933333" height="0.933333" fill="#DA7756"/>
<rect x="13.8" y="28.4667" width="0.933333" height="0.933333" fill="#DB7858"/>
<rect x="14.7333" y="28.4667" width="0.933333" height="0.933333" fill="#DA7755"/>
<rect x="52.0667" y="28.4667" width="0.933333" height="0.933333" fill="#DA7756"/>
<rect x="13.8" y="29.4" width="0.933333" height="0.933333" fill="#DB7756"/>
<rect x="14.7333" y="29.4" width="0.933333" height="0.933333" fill="#D87757"/>
<rect x="52.0667" y="29.4" width="0.933333" height="0.933333" fill="#DB7756"/>
<rect x="53" y="29.4" width="0.933333" height="0.933333" fill="#D57555"/>
<rect x="13.8" y="30.3333" width="0.933333" height="0.933333" fill="#DA7756"/>
<rect x="14.7333" y="30.3333" width="0.933333" height="0.933333" fill="#CF7050"/>
<rect x="52.0667" y="30.3333" width="0.933333" height="0.933333" fill="#DB7656"/>
<rect x="53" y="30.3333" width="0.933333" height="0.933333" fill="#DB7656"/>
<rect x="13.8" y="31.2667" width="0.933333" height="0.933333" fill="#DA7756"/>
<rect x="52.0667" y="31.2667" width="0.933333" height="0.933333" fill="#DC7656"/>
<rect x="53" y="31.2667" width="0.933333" height="0.933333" fill="#D97656"/>
<rect x="13.8" y="32.2" width="0.933333" height="0.933333" fill="#DA7756"/>
<rect x="52.0667" y="32.2" width="0.933333" height="0.933333" fill="#DB7858"/>
<rect x="53" y="32.2" width="0.933333" height="0.933333" fill="#DA7755"/>
<rect x="13.8" y="33.1334" width="0.933333" height="0.933333" fill="#DA7756"/>
<rect x="52.0667" y="33.1334" width="0.933333" height="0.933333" fill="#DB7858"/>
<rect x="53" y="33.1334" width="0.933333" height="0.933333" fill="#DA7755"/>
<rect x="13.8" y="34.0666" width="0.933333" height="0.933333" fill="#DA7756"/>
<rect x="52.0667" y="34.0666" width="0.933333" height="0.933333" fill="#DB7858"/>
<rect x="53" y="34.0666" width="0.933333" height="0.933333" fill="#DA7755"/>
<rect x="13.8" y="35" width="0.933333" height="0.933333" fill="#DA7756"/>
<rect x="52.0667" y="35" width="0.933333" height="0.933333" fill="#DB7858"/>
<rect x="53" y="35" width="0.933333" height="0.933333" fill="#DA7755"/>
<rect x="13.8" y="35.9334" width="0.933333" height="0.933333" fill="#DA7756"/>
<rect x="52.0667" y="35.9334" width="0.933333" height="0.933333" fill="#DB7858"/>
<rect x="53" y="35.9334" width="0.933333" height="0.933333" fill="#DA7755"/>
<rect x="13.8" y="36.8666" width="0.933333" height="0.933333" fill="#DA7756"/>
<rect x="52.0667" y="36.8666" width="0.933333" height="0.933333" fill="#DB7858"/>
<rect x="53" y="36.8666" width="0.933333" height="0.933333" fill="#DA7755"/>
<rect x="13.8" y="37.8" width="0.933333" height="0.933333" fill="#DA7756"/>
<rect x="52.0667" y="37.8" width="0.933333" height="0.933333" fill="#DB7858"/>
<rect x="53" y="37.8" width="0.933333" height="0.933333" fill="#DA7755"/>
<rect x="13.8" y="38.7333" width="0.933333" height="0.933333" fill="#DA7756"/>
<rect x="52.0667" y="38.7333" width="0.933333" height="0.933333" fill="#DB7858"/>
<rect x="53" y="38.7333" width="0.933333" height="0.933333" fill="#DA7755"/>
<rect x="13.8" y="39.6667" width="0.933333" height="0.933333" fill="#DA7756"/>
<rect x="52.0667" y="39.6667" width="0.933333" height="0.933333" fill="#DB7858"/>
<rect x="53" y="39.6667" width="0.933333" height="0.933333" fill="#DA7755"/>
<rect x="13.8" y="40.6" width="0.933333" height="0.933333" fill="#DA7756"/>
<rect x="52.0667" y="40.6" width="0.933333" height="0.933333" fill="#DB7858"/>
<rect x="53" y="40.6" width="0.933333" height="0.933333" fill="#DA7755"/>
<rect x="13.8" y="41.5333" width="0.933333" height="0.933333" fill="#DA7756"/>
<rect x="52.0667" y="41.5333" width="0.933333" height="0.933333" fill="#DB7858"/>
<rect x="53" y="41.5333" width="0.933333" height="0.933333" fill="#DA7755"/>
<rect x="13.8" y="42.4667" width="0.933333" height="0.933333" fill="#DA7756"/>
<rect x="52.0667" y="42.4667" width="0.933333" height="0.933333" fill="#DB7858"/>
<rect x="53" y="42.4667" width="0.933333" height="0.933333" fill="#DA7755"/>
<rect x="13.8" y="43.4" width="0.933333" height="0.933333" fill="#DA7756"/>
<rect x="52.0667" y="43.4" width="0.933333" height="0.933333" fill="#DA7555"/>
<rect x="53" y="43.4" width="0.933333" height="0.933333" fill="#D97656"/>
<rect x="13.8" y="44.3333" width="0.933333" height="0.933333" fill="#DA7756"/>
<rect x="52.0667" y="44.3333" width="0.933333" height="0.933333" fill="#DF8050"/>
<rect x="53" y="44.3333" width="0.933333" height="0.933333" fill="#DA7756"/>
<rect x="13.8" y="45.2667" width="0.933333" height="0.933333" fill="#DA7756"/>
<rect x="53" y="45.2667" width="0.933333" height="0.933333" fill="#DA7756"/>
<rect x="12.8667" y="46.2" width="0.933333" height="0.933333" fill="#DB7858"/>
<rect x="13.8" y="46.2" width="0.933333" height="0.933333" fill="#D97656"/>
<rect x="53" y="46.2" width="0.933333" height="0.933333" fill="#DA7756"/>
<rect x="12.8667" y="47.1334" width="0.933333" height="0.933333" fill="#DA7756"/>
<rect x="13.8" y="47.1334" width="0.933333" height="0.933333" fill="#D77850"/>
<rect x="53" y="47.1334" width="0.933333" height="0.933333" fill="#DB7756"/>
<rect x="53.9333" y="47.1334" width="0.933333" height="0.933333" fill="#DA7656"/>
<rect x="11.9333" y="48.0666" width="0.933333" height="0.933333" fill="#D77858"/>
<rect x="12.8667" y="48.0666" width="0.933333" height="0.933333" fill="#DA7756"/>
<rect x="53.9333" y="48.0666" width="0.933333" height="0.933333" fill="#DA7756"/>
<rect x="11.9333" y="49" width="0.933333" height="0.933333" fill="#DA7756"/>
<rect x="12.8667" y="49" width="0.933333" height="0.933333" fill="#CF7050"/>
<rect x="53.9333" y="49" width="0.933333" height="0.933333" fill="#D97656"/>
<rect x="54.8666" y="49" width="0.933333" height="0.933333" fill="#DA7655"/>
<rect x="11" y="49.9334" width="0.933333" height="0.933333" fill="#DA7757"/>
<rect x="11.9333" y="49.9334" width="0.933333" height="0.933333" fill="#DA7755"/>
<rect x="54.8666" y="49.9334" width="0.933333" height="0.933333" fill="#DB7756"/>
<rect x="55.8" y="49.9334" width="0.933333" height="0.933333" fill="#DE7B52"/>
<rect x="11" y="50.8666" width="0.933333" height="0.933333" fill="#DA7756"/>
<rect x="54.8666" y="50.8666" width="0.933333" height="0.933333" fill="#DD7757"/>
<rect x="55.8" y="50.8666" width="0.933333" height="0.933333" fill="#DA7656"/>
<rect x="11" y="51.8" width="0.933333" height="0.933333" fill="#DA7755"/>
<rect x="11.9333" y="51.8" width="0.933333" height="0.933333" fill="#D77854"/>
<rect x="54.8666" y="51.8" width="0.933333" height="0.933333" fill="#DB7757"/>
<rect x="55.8" y="51.8" width="0.933333" height="0.933333" fill="#D87757"/>
<rect x="11" y="52.7333" width="0.933333" height="0.933333" fill="#DF8050"/>
<rect x="11.9333" y="52.7333" width="0.933333" height="0.933333" fill="#DA7756"/>
<rect x="12.8667" y="52.7333" width="0.933333" height="0.933333" fill="#CF7050"/>
<rect x="53.9333" y="52.7333" width="0.933333" height="0.933333" fill="#DB7858"/>
<rect x="54.8666" y="52.7333" width="0.933333" height="0.933333" fill="#DA7756"/>
<rect x="11.9333" y="53.6667" width="0.933333" height="0.933333" fill="#D77858"/>
<rect x="12.8667" y="53.6667" width="0.933333" height="0.933333" fill="#DA7756"/>
<rect x="13.8" y="53.6667" width="0.933333" height="0.933333" fill="#DA7756"/>
<rect x="14.7333" y="53.6667" width="0.933333" height="0.933333" fill="#DA7756"/>
<rect x="15.6667" y="53.6667" width="0.933333" height="0.933333" fill="#DA7756"/>
<rect x="16.6" y="53.6667" width="0.933333" height="0.933333" fill="#DA7756"/>
<rect x="17.5333" y="53.6667" width="0.933333" height="0.933333" fill="#DA7756"/>
<rect x="18.4667" y="53.6667" width="0.933333" height="0.933333" fill="#DA7756"/>
<rect x="19.4" y="53.6667" width="0.933333" height="0.933333" fill="#DA7756"/>
<rect x="20.3333" y="53.6667" width="0.933333" height="0.933333" fill="#DA7756"/>
<rect x="21.2666" y="53.6667" width="0.933333" height="0.933333" fill="#DA7756"/>
<rect x="22.2" y="53.6667" width="0.933333" height="0.933333" fill="#DA7756"/>
<rect x="23.1333" y="53.6667" width="0.933333" height="0.933333" fill="#DA7756"/>
<rect x="24.0667" y="53.6667" width="0.933333" height="0.933333" fill="#DA7756"/>
<rect x="25" y="53.6667" width="0.933333" height="0.933333" fill="#DA7756"/>
<rect x="25.9333" y="53.6667" width="0.933333" height="0.933333" fill="#DA7756"/>
<rect x="26.8666" y="53.6667" width="0.933333" height="0.933333" fill="#DA7756"/>
<rect x="27.8" y="53.6667" width="0.933333" height="0.933333" fill="#DA7756"/>
<rect x="28.7333" y="53.6667" width="0.933333" height="0.933333" fill="#DA7756"/>
<rect x="29.6666" y="53.6667" width="0.933333" height="0.933333" fill="#DA7756"/>
<rect x="30.6" y="53.6667" width="0.933333" height="0.933333" fill="#DA7756"/>
<rect x="31.5333" y="53.6667" width="0.933333" height="0.933333" fill="#DA7756"/>
<rect x="32.4667" y="53.6667" width="0.933333" height="0.933333" fill="#DA7756"/>
<rect x="33.4" y="53.6667" width="0.933333" height="0.933333" fill="#DA7756"/>
<rect x="34.3333" y="53.6667" width="0.933333" height="0.933333" fill="#DA7756"/>
<rect x="35.2666" y="53.6667" width="0.933333" height="0.933333" fill="#DA7756"/>
<rect x="36.2" y="53.6667" width="0.933333" height="0.933333" fill="#DA7756"/>
<rect x="37.1333" y="53.6667" width="0.933333" height="0.933333" fill="#DA7756"/>
<rect x="38.0667" y="53.6667" width="0.933333" height="0.933333" fill="#DA7756"/>
<rect x="39" y="53.6667" width="0.933333" height="0.933333" fill="#DA7756"/>
<rect x="39.9333" y="53.6667" width="0.933333" height="0.933333" fill="#DA7756"/>
<rect x="40.8666" y="53.6667" width="0.933333" height="0.933333" fill="#DA7756"/>
<rect x="41.8" y="53.6667" width="0.933333" height="0.933333" fill="#DA7756"/>
<rect x="42.7333" y="53.6667" width="0.933333" height="0.933333" fill="#DA7756"/>
<rect x="43.6666" y="53.6667" width="0.933333" height="0.933333" fill="#DA7756"/>
<rect x="44.6" y="53.6667" width="0.933333" height="0.933333" fill="#DA7756"/>
<rect x="45.5333" y="53.6667" width="0.933333" height="0.933333" fill="#DA7756"/>
<rect x="46.4666" y="53.6667" width="0.933333" height="0.933333" fill="#DA7756"/>
<rect x="47.4" y="53.6667" width="0.933333" height="0.933333" fill="#DA7756"/>
<rect x="48.3333" y="53.6667" width="0.933333" height="0.933333" fill="#DA7756"/>
<rect x="49.2666" y="53.6667" width="0.933333" height="0.933333" fill="#DA7756"/>
<rect x="50.2" y="53.6667" width="0.933333" height="0.933333" fill="#DA7756"/>
<rect x="51.1333" y="53.6667" width="0.933333" height="0.933333" fill="#DA7756"/>
<rect x="52.0667" y="53.6667" width="0.933333" height="0.933333" fill="#DA7756"/>
<rect x="53" y="53.6667" width="0.933333" height="0.933333" fill="#DA7756"/>
<rect x="53.9333" y="53.6667" width="0.933333" height="0.933333" fill="#DA7756"/>
<rect x="25" y="54.6" width="0.933333" height="0.933333" fill="#DA7756"/>
<rect x="40.8666" y="54.6" width="0.933333" height="0.933333" fill="#DF8050"/>
<rect x="41.8" y="54.6" width="0.933333" height="0.933333" fill="#DA7655"/>
<rect x="25" y="55.5333" width="0.933333" height="0.933333" fill="#DA7756"/>
<rect x="25.9333" y="55.5333" width="0.933333" height="0.933333" fill="#CF7050"/>
<rect x="40.8666" y="55.5333" width="0.933333" height="0.933333" fill="#DD7757"/>
<rect x="41.8" y="55.5333" width="0.933333" height="0.933333" fill="#DA7755"/>
<rect x="25" y="56.4667" width="0.933333" height="0.933333" fill="#DB7656"/>
<rect x="25.9333" y="56.4667" width="0.933333" height="0.933333" fill="#DA7755"/>
<rect x="40.8666" y="56.4667" width="0.933333" height="0.933333" fill="#DA7756"/>
<rect x="41.8" y="56.4667" width="0.933333" height="0.933333" fill="#D77850"/>
<rect x="25.9333" y="57.4" width="0.933333" height="0.933333" fill="#DA7756"/>
<rect x="39.9333" y="57.4" width="0.933333" height="0.933333" fill="#D77858"/>
<rect x="40.8666" y="57.4" width="0.933333" height="0.933333" fill="#DA7756"/>
<rect x="25.9333" y="58.3333" width="0.933333" height="0.933333" fill="#DB7756"/>
<rect x="26.8666" y="58.3333" width="0.933333" height="0.933333" fill="#D97655"/>
<rect x="39.9333" y="58.3333" width="0.933333" height="0.933333" fill="#DA7756"/>
<rect x="40.8666" y="58.3333" width="0.933333" height="0.933333" fill="#D77850"/>
<rect x="26.8666" y="59.2667" width="0.933333" height="0.933333" fill="#DB7756"/>
<rect x="27.8" y="59.2667" width="0.933333" height="0.933333" fill="#DA7756"/>
<rect x="39" y="59.2667" width="0.933333" height="0.933333" fill="#DA7756"/>
<rect x="39.9333" y="59.2667" width="0.933333" height="0.933333" fill="#D97755"/>
<rect x="27.8" y="60.2" width="0.933333" height="0.933333" fill="#D97756"/>
<rect x="28.7333" y="60.2" width="0.933333" height="0.933333" fill="#DA7756"/>
<rect x="37.1333" y="60.2" width="0.933333" height="0.933333" fill="#CF7050"/>
<rect x="38.0667" y="60.2" width="0.933333" height="0.933333" fill="#DA7756"/>
<rect x="39" y="60.2" width="0.933333" height="0.933333" fill="#D97755"/>
<rect x="28.7333" y="61.1334" width="0.933333" height="0.933333" fill="#D87654"/>
<rect x="29.6666" y="61.1334" width="0.933333" height="0.933333" fill="#DA7756"/>
<rect x="30.6" y="61.1334" width="0.933333" height="0.933333" fill="#DA7756"/>
<rect x="31.5333" y="61.1334" width="0.933333" height="0.933333" fill="#DB7858"/>
<rect x="35.2666" y="61.1334" width="0.933333" height="0.933333" fill="#DA7858"/>
<rect x="36.2" y="61.1334" width="0.933333" height="0.933333" fill="#DB7756"/>
<rect x="37.1333" y="61.1334" width="0.933333" height="0.933333" fill="#DA7756"/>
<rect x="38.0667" y="61.1334" width="0.933333" height="0.933333" fill="#DA7A55"/>
<rect x="30.6" y="62.0666" width="0.933333" height="0.933333" fill="#DB7555"/>
<rect x="31.5333" y="62.0666" width="0.933333" height="0.933333" fill="#DA7755"/>
<rect x="32.4667" y="62.0666" width="0.933333" height="0.933333" fill="#DA7756"/>
<rect x="33.4" y="62.0666" width="0.933333" height="0.933333" fill="#DA7756"/>
<rect x="34.3333" y="62.0666" width="0.933333" height="0.933333" fill="#DA7756"/>
<rect x="35.2666" y="62.0666" width="0.933333" height="0.933333" fill="#DB7756"/>
<rect x="36.2" y="62.0666" width="0.933333" height="0.933333" fill="#CF7050"/>
<rect x="31.5333" y="7" width="0.933333" height="0.933333" fill="#DB7858"/>
<rect x="32.4667" y="7" width="0.933333" height="0.933333" fill="#DA7656"/>
<rect x="33.4" y="7" width="0.933333" height="0.933333" fill="#DA7756"/>
<rect x="34.3333" y="7" width="0.933333" height="0.933333" fill="#DA7757"/>
<rect x="35.2666" y="7" width="0.933333" height="0.933333" fill="#DD7757"/>
<rect x="29.6666" y="7.93341" width="0.933333" height="0.933333" fill="#D77858"/>
<rect x="30.6" y="7.93341" width="0.933333" height="0.933333" fill="#DA7756"/>
<rect x="31.5333" y="7.93341" width="0.933333" height="0.933333" fill="#DA7756"/>
<rect x="32.4667" y="7.93341" width="0.933333" height="0.933333" fill="#DB7555"/>
<rect x="34.3333" y="7.93341" width="0.933333" height="0.933333" fill="#DA7555"/>
<rect x="35.2666" y="7.93341" width="0.933333" height="0.933333" fill="#DA7757"/>
<rect x="36.2" y="7.93341" width="0.933333" height="0.933333" fill="#DA7756"/>
<rect x="37.1333" y="7.93341" width="0.933333" height="0.933333" fill="#D97856"/>
<rect x="28.7333" y="8.86664" width="0.933333" height="0.933333" fill="#D77858"/>
<rect x="29.6666" y="8.86664" width="0.933333" height="0.933333" fill="#DA7756"/>
<rect x="30.6" y="8.86664" width="0.933333" height="0.933333" fill="#D77850"/>
<rect x="37.1333" y="8.86664" width="0.933333" height="0.933333" fill="#DB7756"/>
<rect x="38.0667" y="8.86664" width="0.933333" height="0.933333" fill="#DA7756"/>
<rect x="28.7333" y="9.80005" width="0.933333" height="0.933333" fill="#DA7756"/>
<rect x="29.6666" y="9.80005" width="0.933333" height="0.933333" fill="#D77850"/>
<rect x="38.0667" y="9.80005" width="0.933333" height="0.933333" fill="#DA7756"/>
<rect x="39" y="9.80005" width="0.933333" height="0.933333" fill="#CF7050"/>
<rect x="27.8" y="10.7333" width="0.933333" height="0.933333" fill="#DB7858"/>
<rect x="28.7333" y="10.7333" width="0.933333" height="0.933333" fill="#D97756"/>
<rect x="38.0667" y="10.7333" width="0.933333" height="0.933333" fill="#D77854"/>
<rect x="39" y="10.7333" width="0.933333" height="0.933333" fill="#DA7655"/>
<rect x="27.8" y="11.6667" width="0.933333" height="0.933333" fill="#DB7756"/>
<rect x="28.7333" y="11.6667" width="0.933333" height="0.933333" fill="#DB7555"/>
<rect x="39" y="11.6667" width="0.933333" height="0.933333" fill="#DA7756"/>
<rect x="27.8" y="12.6" width="0.933333" height="0.933333" fill="#DA7756"/>
<rect x="39" y="12.6" width="0.933333" height="0.933333" fill="#DA7756"/>
<rect x="27.8" y="13.5333" width="0.933333" height="0.933333" fill="#DA7756"/>
<rect x="39" y="13.5333" width="0.933333" height="0.933333" fill="#DA7756"/>
<rect x="27.8" y="14.4667" width="0.933333" height="0.933333" fill="#DA7756"/>
<rect x="39" y="14.4667" width="0.933333" height="0.933333" fill="#DA7756"/>
<rect x="27.8" y="15.4" width="0.933333" height="0.933333" fill="#DA7756"/>
<rect x="28.7333" y="15.4" width="0.933333" height="0.933333" fill="#DA7756"/>
<rect x="29.6666" y="15.4" width="0.933333" height="0.933333" fill="#DA7756"/>
<rect x="30.6" y="15.4" width="0.933333" height="0.933333" fill="#DA7756"/>
<rect x="31.5333" y="15.4" width="0.933333" height="0.933333" fill="#DA7756"/>
<rect x="32.4667" y="15.4" width="0.933333" height="0.933333" fill="#DA7756"/>
<rect x="33.4" y="15.4" width="0.933333" height="0.933333" fill="#DA7756"/>
<rect x="34.3333" y="15.4" width="0.933333" height="0.933333" fill="#DA7756"/>
<rect x="35.2666" y="15.4" width="0.933333" height="0.933333" fill="#DA7756"/>
<rect x="36.2" y="15.4" width="0.933333" height="0.933333" fill="#DA7756"/>
<rect x="37.1333" y="15.4" width="0.933333" height="0.933333" fill="#DA7756"/>
<rect x="38.0667" y="15.4" width="0.933333" height="0.933333" fill="#DA7756"/>
<rect x="39" y="15.4" width="0.933333" height="0.933333" fill="#DA7756"/>
</svg>
