<svg width="68" height="70" viewBox="0 0 68 70" fill="none" xmlns="http://www.w3.org/2000/svg">
<rect x="22" y="14.625" width="2" height="2" fill="#DA7756"/>
<rect x="24" y="14.625" width="2" height="2" fill="#DA7756"/>
<rect x="26" y="14.625" width="2" height="2" fill="#DA7756"/>
<rect x="28" y="14.625" width="2" height="2" fill="#DA7756"/>
<rect x="30" y="14.625" width="2" height="2" fill="#DA7756"/>
<rect x="32" y="14.625" width="2" height="2" fill="#DA7756"/>
<rect x="34" y="14.625" width="2" height="2" fill="#DA7756"/>
<rect x="36" y="14.625" width="2" height="2" fill="#DA7756"/>
<rect x="38" y="14.625" width="2" height="2" fill="#DA7756"/>
<rect x="40" y="14.625" width="2" height="2" fill="#DA7756"/>
<rect x="42" y="14.625" width="2" height="2" fill="#DA7756"/>
<rect x="44" y="14.625" width="2" height="2" fill="#DA7756"/>
<rect x="18" y="18.63" width="2" height="2" fill="#DA7756"/>
<rect x="22" y="16.625" width="2" height="2" fill="#DA7756"/>
<rect x="24" y="16.625" width="2" height="2" fill="#DA7756"/>
<rect x="26" y="16.625" width="2" height="2" fill="#DA7756"/>
<rect x="28" y="16.625" width="2" height="2" fill="#DA7756"/>
<rect x="18" y="16.63" width="2" height="2" fill="#DA7756"/>
<rect x="20" y="16.63" width="2" height="2" fill="#DA7756"/>
<rect x="38" y="16.625" width="2" height="2" fill="#DA7756"/>
<rect x="40" y="16.625" width="2" height="2" fill="#DA7756"/>
<rect x="42" y="16.625" width="2" height="2" fill="#DA7756"/>
<rect x="44" y="16.625" width="2" height="2" fill="#DA7756"/>
<rect x="46" y="16.625" width="2" height="2" fill="#DA7756"/>
<rect x="48" y="16.625" width="2" height="2" fill="#DA7756"/>
<path d="M14 20.625H16V22.625H14V20.625Z" fill="#DA7756"/>
<rect x="16" y="18.63" width="2" height="2" fill="#DA7756"/>
<rect x="20" y="18.625" width="2" height="2" fill="#DA7756"/>
<rect x="22" y="18.625" width="2" height="2" fill="#DA7756"/>
<rect x="44" y="18.625" width="2" height="2" fill="#DA7756"/>
<rect x="46" y="18.625" width="2" height="2" fill="#DA7756"/>
<rect x="48" y="18.625" width="2" height="2" fill="#DA7756"/>
<rect x="50" y="18.625" width="2" height="2" fill="#DA7756"/>
<rect x="16" y="20.625" width="2" height="2" fill="#DA7756"/>
<rect x="18" y="20.625" width="2" height="2" fill="#DA7756"/>
<rect x="48" y="20.625" width="2" height="2" fill="#DA7756"/>
<rect x="50" y="20.625" width="2" height="2" fill="#DA7756"/>
<rect x="52" y="20.625" width="2" height="2" fill="#DA7756"/>
<rect x="14" y="22.625" width="2" height="2" fill="#DA7756"/>
<rect x="16" y="22.625" width="2" height="2" fill="#DA7756"/>
<rect x="50" y="22.625" width="2" height="2" fill="#DA7756"/>
<rect x="52" y="22.625" width="2" height="2" fill="#DA7756"/>
<rect x="12" y="24.625" width="2" height="2" fill="#DA7756"/>
<rect x="14" y="24.625" width="2" height="2" fill="#DA7756"/>
<rect x="16" y="24.625" width="2" height="2" fill="#DA7756"/>
<rect x="50" y="24.625" width="2" height="2" fill="#DA7756"/>
<rect x="52" y="24.625" width="2" height="2" fill="#DA7756"/>
<rect x="54" y="24.625" width="2" height="2" fill="#DA7756"/>
<rect x="12" y="26.625" width="2" height="2" fill="#DA7756"/>
<rect x="14" y="26.625" width="2" height="2" fill="#DA7756"/>
<rect x="52" y="26.625" width="2" height="2" fill="#DA7756"/>
<rect x="54" y="26.625" width="2" height="2" fill="#DA7756"/>
<rect x="12" y="28.625" width="2" height="2" fill="#DA7756"/>
<rect x="14" y="28.625" width="2" height="2" fill="#DA7756"/>
<rect x="52" y="28.625" width="2" height="2" fill="#DA7756"/>
<rect x="54" y="28.625" width="2" height="2" fill="#DA7756"/>
<rect x="12" y="30.625" width="2" height="2" fill="#DA7756"/>
<rect x="14" y="30.625" width="2" height="2" fill="#DA7756"/>
<rect x="52" y="30.625" width="2" height="2" fill="#DA7756"/>
<rect x="54" y="30.625" width="2" height="2" fill="#DA7756"/>
<rect x="12" y="32.625" width="2" height="2" fill="#DA7756"/>
<rect x="14" y="32.625" width="2" height="2" fill="#DA7756"/>
<rect x="52" y="32.625" width="2" height="2" fill="#DA7756"/>
<rect x="54" y="32.625" width="2" height="2" fill="#DA7756"/>
<rect x="12" y="34.625" width="2" height="2" fill="#DA7756"/>
<rect x="14" y="34.625" width="2" height="2" fill="#DA7756"/>
<rect x="52" y="34.625" width="2" height="2" fill="#DA7756"/>
<rect x="54" y="34.625" width="2" height="2" fill="#DA7756"/>
<rect x="12" y="36.625" width="2" height="2" fill="#DA7756"/>
<rect x="14" y="36.625" width="2" height="2" fill="#DA7756"/>
<rect x="52" y="36.625" width="2" height="2" fill="#DA7756"/>
<rect x="54" y="36.625" width="2" height="2" fill="#DA7756"/>
<rect x="12" y="38.625" width="2" height="2" fill="#DA7756"/>
<rect x="14" y="38.625" width="2" height="2" fill="#DA7756"/>
<rect x="52" y="38.625" width="2" height="2" fill="#DA7756"/>
<rect x="54" y="38.625" width="2" height="2" fill="#DA7756"/>
<rect x="12" y="40.625" width="2" height="2" fill="#DA7756"/>
<rect x="14" y="40.625" width="2" height="2" fill="#DA7756"/>
<rect x="52" y="40.625" width="2" height="2" fill="#DA7756"/>
<rect x="54" y="40.625" width="2" height="2" fill="#DA7756"/>
<rect x="12" y="42.625" width="2" height="2" fill="#DA7756"/>
<rect x="14" y="42.625" width="2" height="2" fill="#DA7756"/>
<rect x="52" y="42.625" width="2" height="2" fill="#DA7756"/>
<rect x="54" y="42.625" width="2" height="2" fill="#DA7756"/>
<rect x="12" y="44.625" width="2" height="2" fill="#DA7756"/>
<rect x="14" y="44.625" width="2" height="2" fill="#DA7756"/>
<rect x="52" y="44.625" width="2" height="2" fill="#DA7756"/>
<rect x="54" y="44.625" width="2" height="2" fill="#DA7756"/>
<rect x="10" y="46.625" width="2" height="2" fill="#DA7756"/>
<rect x="12" y="46.625" width="2" height="2" fill="#DA7756"/>
<rect x="14" y="46.625" width="2" height="2" fill="#DA7756"/>
<rect x="54" y="46.625" width="2" height="2" fill="#DA7756"/>
<rect x="54" y="48" width="2" height="2" fill="#DA7756"/>
<rect x="54" y="50" width="2" height="2" fill="#DA7756"/>
<rect x="54" y="52" width="2" height="2" fill="#DA7756"/>
<rect x="54" y="53" width="2" height="2" fill="#DA7756"/>
<rect x="52" y="46" width="2" height="2.75" fill="#DA7756"/>
<rect x="56" y="46.63" width="2" height="2.9" fill="#DA7756"/>
<rect x="10" y="48.625" width="2" height="2" fill="#DA7756"/>
<rect x="12" y="48.625" width="2" height="2" fill="#DA7756"/>
<rect x="56" y="48.625" width="2" height="2" fill="#DA7756"/>
<rect x="8" y="50.625" width="2" height="2" fill="#DA7756"/>
<rect x="10" y="50.625" width="2" height="2" fill="#DA7756"/>
<rect x="12" y="50.625" width="2" height="2" fill="#DA7756"/>
<rect x="56" y="50.625" width="2" height="2" fill="#DA7756"/>
<rect x="58" y="50.625" width="2" height="2" fill="#DA7756"/>
<rect x="8" y="52.625" width="2" height="2" fill="#DA7756"/>
<rect x="10" y="52.625" width="2" height="2" fill="#DA7756"/>
<rect x="12" y="52.625" width="2" height="2" fill="#DA7756"/>
<rect x="56" y="52.625" width="2" height="2" fill="#DA7756"/>
<rect x="58" y="52.625" width="2" height="2" fill="#DA7756"/>
<rect x="10" y="54.625" width="2" height="2" fill="#DA7756"/>
<rect x="12" y="54.625" width="2" height="2" fill="#DA7756"/>
<rect x="14" y="54.625" width="2" height="2" fill="#DA7756"/>
<rect x="16" y="54.625" width="2" height="2" fill="#DA7756"/>
<rect x="18" y="54.625" width="2" height="2" fill="#DA7756"/>
<rect x="20" y="54.625" width="2" height="2" fill="#DA7756"/>
<rect x="22" y="54.625" width="2" height="2" fill="#DA7756"/>
<rect x="24" y="54.625" width="2" height="2" fill="#DA7756"/>
<rect x="26" y="54.625" width="2" height="2" fill="#DA7756"/>
<rect x="28" y="54.625" width="2" height="2" fill="#DA7756"/>
<rect x="30" y="54.625" width="2" height="2" fill="#DA7756"/>
<rect x="32" y="54.625" width="2" height="2" fill="#DA7756"/>
<rect x="34" y="54.625" width="2" height="2" fill="#DA7756"/>
<rect x="36" y="54.625" width="2" height="2" fill="#DA7756"/>
<rect x="38" y="54.625" width="2" height="2" fill="#DA7756"/>
<rect x="40" y="54.625" width="2" height="2" fill="#DA7756"/>
<rect x="42" y="54.625" width="2" height="2" fill="#DA7756"/>
<rect x="44" y="54.625" width="2" height="2" fill="#DA7756"/>
<rect x="46" y="54.625" width="2" height="2" fill="#DA7756"/>
<rect x="48" y="54.625" width="2" height="2" fill="#DA7756"/>
<rect x="50" y="54.625" width="2" height="2" fill="#DA7756"/>
<rect x="52" y="54.625" width="2" height="2" fill="#DA7756"/>
<rect x="54" y="54.625" width="2" height="2" fill="#DA7756"/>
<rect x="56" y="54.625" width="2" height="2" fill="#DA7756"/>
<rect x="10" y="56.625" width="2" height="2" fill="#DA7756"/>
<rect x="12" y="56.625" width="2" height="2" fill="#DA7756"/>
<rect x="14" y="56.625" width="2" height="2" fill="#DA7756"/>
<rect x="16" y="56.625" width="2" height="2" fill="#DA7756"/>
<rect x="18" y="56.625" width="2" height="2" fill="#DA7756"/>
<rect x="20" y="56.625" width="2" height="2" fill="#DA7756"/>
<rect x="22" y="56.625" width="2" height="2" fill="#DA7756"/>
<rect x="24" y="56.625" width="2" height="2" fill="#DA7756"/>
<rect x="26" y="56.625" width="2" height="2" fill="#DA7756"/>
<rect x="28" y="56.625" width="2" height="2" fill="#DA7756"/>
<rect x="30" y="56.625" width="2" height="2" fill="#DA7756"/>
<rect x="32" y="56.625" width="2" height="2" fill="#DA7756"/>
<rect x="34" y="56.625" width="2" height="2" fill="#DA7756"/>
<rect x="36" y="56.625" width="2" height="2" fill="#DA7756"/>
<rect x="38" y="56.625" width="2" height="2" fill="#DA7756"/>
<rect x="40" y="56.625" width="2" height="2" fill="#DA7756"/>
<rect x="42" y="56.625" width="2" height="2" fill="#DA7756"/>
<rect x="44" y="56.625" width="2" height="2" fill="#DA7756"/>
<rect x="46" y="56.625" width="2" height="2" fill="#DA7756"/>
<rect x="48" y="56.625" width="2" height="2" fill="#DA7756"/>
<rect x="50" y="56.625" width="2" height="2" fill="#DA7756"/>
<rect x="52" y="56.625" width="2" height="2" fill="#DA7756"/>
<rect x="54" y="56.625" width="2" height="2" fill="#DA7756"/>
<rect x="56" y="56.625" width="2" height="2" fill="#DA7756"/>
<rect x="24" y="58.625" width="2" height="2" fill="#DA7756"/>
<rect x="26" y="58.625" width="2" height="2" fill="#DA7756"/>
<rect x="40" y="58.625" width="2" height="2" fill="#DA7756"/>
<rect x="42" y="58.625" width="2" height="2" fill="#DA7756"/>
<rect x="24" y="60.625" width="2" height="2" fill="#DA7756"/>
<rect x="26" y="60.625" width="2" height="2" fill="#DA7756"/>
<rect x="28" y="60.625" width="2" height="2" fill="#DA7756"/>
<rect x="38" y="60.625" width="2" height="2" fill="#DA7756"/>
<rect x="40" y="60.625" width="2" height="2" fill="#DA7756"/>
<rect x="42" y="60.625" width="2" height="2" fill="#DA7756"/>
<rect x="26" y="62.625" width="2" height="2" fill="#DA7756"/>
<rect x="28" y="62.625" width="2" height="2" fill="#DA7756"/>
<rect x="30" y="62.625" width="2" height="2" fill="#DA7756"/>
<rect x="32" y="62.625" width="2" height="2" fill="#DA7756"/>
<rect x="34" y="62.625" width="2" height="2" fill="#DA7756"/>
<rect x="36" y="62.625" width="2" height="2" fill="#DA7756"/>
<rect x="38" y="62.625" width="2" height="2" fill="#DA7756"/>
<rect x="40" y="62.625" width="2" height="2" fill="#DA7756"/>
<rect x="28" y="64.625" width="2" height="2" fill="#DA7756"/>
<rect x="30" y="64.625" width="2" height="2" fill="#DA7756"/>
<rect x="32" y="64.625" width="2" height="2" fill="#DA7756"/>
<rect x="34" y="64.625" width="2" height="2" fill="#DA7756"/>
<rect x="36" y="64.625" width="2" height="2" fill="#DA7756"/>
<rect x="38" y="64.625" width="2" height="2" fill="#DA7756"/>
<rect x="31.8125" y="4" width="1.9375" height="1.9375" fill="#DA7756"/>
<rect x="33.75" y="4" width="1.9375" height="1.9375" fill="#DA7756"/>
<rect x="27.9375" y="5.9375" width="1.9375" height="1.9375" fill="#DA7756"/>
<rect x="29.875" y="5.9375" width="1.9375" height="1.9375" fill="#DA7756"/>
<rect x="31.8125" y="5.9375" width="1.9375" height="1.9375" fill="#DA7756"/>
<rect x="33.75" y="5.9375" width="1.9375" height="1.9375" fill="#DA7756"/>
<rect x="35.6875" y="5.9375" width="1.9375" height="1.9375" fill="#DA7756"/>
<rect x="37.625" y="5.9375" width="1.9375" height="1.9375" fill="#DA7756"/>
<rect x="27.9375" y="7.875" width="1.9375" height="1.9375" fill="#DA7756"/>
<rect x="29.875" y="7.875" width="1.9375" height="1.9375" fill="#DA7756"/>
<rect x="35.6875" y="7.875" width="1.9375" height="1.9375" fill="#DA7756"/>
<rect x="37.625" y="7.875" width="1.9375" height="1.9375" fill="#DA7756"/>
<rect x="26" y="9.8125" width="1.9375" height="1.9375" fill="#DA7756"/>
<rect x="27.9375" y="9.8125" width="1.9375" height="1.9375" fill="#DA7756"/>
<rect x="37.625" y="9.8125" width="1.9375" height="1.9375" fill="#DA7756"/>
<rect x="39.5625" y="9.8125" width="1.9375" height="1.9375" fill="#DA7756"/>
<rect x="26" y="11.75" width="1.9375" height="1.9375" fill="#DA7756"/>
<rect x="39.5625" y="11.75" width="1.9375" height="1.9375" fill="#DA7756"/>
<rect x="26" y="13.6875" width="1.9375" height="1.9375" fill="#DA7756"/>
<rect x="27.9375" y="13.6875" width="1.9375" height="1.9375" fill="#DA7756"/>
<rect x="29.875" y="13.6875" width="1.9375" height="1.9375" fill="#DA7756"/>
<rect x="31.8125" y="13.6875" width="1.9375" height="1.9375" fill="#DA7756"/>
<rect x="33.75" y="13.6875" width="1.9375" height="1.9375" fill="#DA7756"/>
<rect x="35.6875" y="13.6875" width="1.9375" height="1.9375" fill="#DA7756"/>
<rect x="37.625" y="13.6875" width="1.9375" height="1.9375" fill="#DA7756"/>
<rect x="39.5625" y="13.6875" width="1.9375" height="1.9375" fill="#DA7756"/>
<rect x="27.9375" y="15.625" width="1.9375" height="1.9375" fill="#DA7756"/>
<rect x="29.875" y="15.625" width="1.9375" height="1.9375" fill="#DA7756"/>
<rect x="31.8125" y="15.625" width="1.9375" height="1.9375" fill="#DA7756"/>
<rect x="33.75" y="15.625" width="1.9375" height="1.9375" fill="#DA7756"/>
<rect x="35.6875" y="15.625" width="1.9375" height="1.9375" fill="#DA7756"/>
<rect x="37.625" y="15.625" width="1.9375" height="1.9375" fill="#DA7756"/>
<rect x="39.5625" y="15.625" width="1.9375" height="1.9375" fill="#DA7756"/>
</svg>
