<svg width="19" height="19" viewBox="0 0 19 19" fill="none" xmlns="http://www.w3.org/2000/svg">
<path d="M11.9896 15.0417C11.9896 15.6715 11.7361 16.2756 11.2848 16.721C10.8336 17.1664 10.2215 17.4167 9.58337 17.4167C8.94519 17.4167 8.33314 17.1664 7.88188 16.721C7.43062 16.2756 7.17711 15.6715 7.17711 15.0417M10.1617 3.9607L8.98581 3.95833C6.30363 3.95199 3.97518 6.10295 3.95673 8.70833V11.7087C3.95673 12.3342 3.87652 12.9445 3.53082 13.4647L3.30062 13.8114C2.95011 14.3371 3.32709 15.0417 3.95673 15.0417H15.21C15.8396 15.0417 16.2158 14.3371 15.8661 13.8114L15.6359 13.4647C15.291 12.9445 15.21 12.3334 15.21 11.708V8.70912C15.1779 6.10295 12.8438 3.96704 10.1617 3.9607Z" stroke="#DA7756" stroke-linecap="round" stroke-linejoin="round"/>
<path d="M9.58337 1.58333C10.0088 1.58333 10.4168 1.75014 10.7177 2.04708C11.0185 2.34401 11.1875 2.74674 11.1875 3.16666V3.95833H7.97919V3.16666C7.97919 2.74674 8.14821 2.34401 8.44905 2.04708C8.74989 1.75014 9.15791 1.58333 9.58337 1.58333Z" stroke="#DA7756" stroke-linecap="round" stroke-linejoin="round"/>
</svg>
