<svg width="99" height="99" viewBox="0 0 99 99" fill="none" xmlns="http://www.w3.org/2000/svg">
<path d="M52.6496 24.4439C53.0998 23.2385 53.4532 22.048 53.7131 20.8758L45.4439 13.3468C45.302 14.5553 45.0239 15.8243 44.613 17.1233L52.6496 24.4439Z" fill="#DA7756"/>
<path d="M49.9577 29.9152C50.5741 28.9092 51.1238 27.9 51.6103 26.8849L43.6553 19.6459C43.2052 20.6732 42.6763 21.7094 42.0752 22.7365L49.9577 29.9152Z" fill="#DA7756"/>
<path d="M27.0022 36.1814C25.7181 36.6981 24.4553 37.0726 23.2408 37.2901L31.5522 44.8584C32.7093 44.514 33.8847 44.0668 35.0628 43.5169L27.0022 36.1814Z" fill="#DA7756"/>
<path d="M37.4255 42.2782C38.4014 41.7132 39.3682 41.0817 40.3228 40.3839L32.4283 33.1963C31.4464 33.8882 30.4555 34.4984 29.4614 35.0301L37.4255 42.2782Z" fill="#DA7756"/>
<path d="M18.0654 10.2258C9.18593 19.9814 6.97447 32.4229 13.1225 38.0212L18.5699 42.982C21.0957 45.2813 24.6396 46.0638 28.5551 45.5168L19.712 37.4682C17.9838 37.2959 16.4702 36.7008 15.2949 35.6344C10.5607 31.3171 12.9203 20.6792 20.4553 12.4011C27.9903 4.1259 38.3621 0.778462 43.1025 5.09579C44.4137 6.2892 45.1842 7.9751 45.447 9.95994L54.1513 17.8846C54.4535 13.7214 53.3597 10.0626 50.7222 7.6638L45.278 2.70587C39.1296 -2.89227 26.9479 0.476241 18.0654 10.2258Z" fill="#DA7756"/>
<path d="M42.32 38.8068C43.1569 38.0968 43.9786 37.3294 44.7793 36.5138L36.9392 29.3806C36.1356 30.1933 35.3076 30.9485 34.4588 31.6525L42.32 38.8068Z" fill="#DA7756"/>
<path d="M46.4741 34.6707C47.2174 33.8066 47.9123 32.9245 48.5558 32.0271L40.7006 24.8759C40.0722 25.7792 39.3863 26.6704 38.6431 27.5346L46.4741 34.6707Z" fill="#DA7756"/>
<path d="M23.7151 97.8509C24.7334 98.2043 25.7394 98.4824 26.7213 98.6726L32.8696 91.5969C31.8544 91.5002 30.7878 91.2917 29.6942 90.9715L23.7151 97.8509Z" fill="#DA7756"/>
<path d="M19.0776 95.6997C19.9296 96.1982 20.7846 96.6424 21.6456 97.0291L27.5613 90.2192C26.6881 89.8626 25.8119 89.4397 24.9387 88.9563L19.0776 95.6997Z" fill="#DA7756"/>
<path d="M13.3735 76.5844C12.9174 75.521 12.579 74.4695 12.3735 73.4574L6.19505 80.5694C6.50617 81.5302 6.90197 82.509 7.38247 83.4849L13.3735 76.5844Z" fill="#DA7756"/>
<path d="M8.46703 85.4395C8.96261 86.2462 9.50943 87.0438 10.1166 87.8324L15.9808 81.0768C15.3885 80.267 14.8539 79.4483 14.3887 78.6267L8.46703 85.4395Z" fill="#DA7756"/>
<path d="M34.9511 68.5902C26.6034 61.3392 16.1347 59.7289 11.5606 64.9948L7.51821 69.6536C5.63605 71.8139 5.04688 74.7987 5.58152 78.0708L12.1557 70.5025C12.2646 69.0492 12.7358 67.7682 13.6059 66.7681C17.1316 62.7107 26.0927 64.4811 33.1776 70.6353C40.2594 76.7867 43.2686 85.4151 39.7427 89.4726C38.7637 90.5966 37.3681 91.2734 35.7094 91.5301L29.241 98.9807C32.7365 99.1529 35.779 98.1649 37.7397 95.908L41.7883 91.2463C46.3564 85.9863 43.3019 75.8411 34.9511 68.5902Z" fill="#DA7756"/>
<path d="M11.473 89.473C12.0863 90.1619 12.7449 90.8356 13.4429 91.4913L19.2679 84.784C18.573 84.1255 17.9204 83.4425 17.3192 82.7478L11.473 89.473Z" fill="#DA7756"/>
<path d="M15.0231 92.8748C15.7632 93.485 16.5156 94.0471 17.2799 94.5636L23.1171 87.8474C22.3467 87.3368 21.5884 86.7809 20.8482 86.1737L15.0231 92.8748Z" fill="#DA7756"/>
<path d="M70.1547 80.0587C71.4326 80.3851 72.6925 80.6206 73.9192 80.7566L80.72 71.4784C79.4692 71.4633 78.1398 71.3152 76.7681 71.0374L70.1547 80.0587Z" fill="#DA7756"/>
<path d="M64.2632 77.8956C65.3568 78.4213 66.4476 78.8746 67.5412 79.258L74.0853 70.3333C72.9825 69.9858 71.8676 69.5599 70.7467 69.0492L64.2632 77.8956Z" fill="#DA7756"/>
<path d="M55.3536 55.0974C54.6859 53.8374 54.1662 52.5897 53.8127 51.3721L46.9757 60.6986C47.456 61.8437 48.0392 62.9947 48.725 64.1398L55.3536 55.0974Z" fill="#DA7756"/>
<path d="M50.2506 66.4209C50.9396 67.3575 51.6857 68.2789 52.5075 69.1793L59.0001 60.3272C58.1874 59.3965 57.4533 58.4479 56.8007 57.4871L50.2506 66.4209Z" fill="#DA7756"/>
<path d="M80.9344 43.1333C69.9915 35.1088 57.0213 34.2024 51.9638 41.0999L47.4833 47.2118C45.4078 50.0457 44.9907 53.7558 45.9757 57.6984L53.2448 47.7828C53.2357 45.9942 53.683 44.3808 54.6436 43.0606C58.5471 37.7463 69.6804 39.0031 78.9707 45.8128C88.2519 52.6228 92.8048 62.8677 88.9045 68.1851C87.826 69.6595 86.1884 70.6262 84.1854 71.1127L77.0251 80.8774C81.3154 80.7355 84.9376 79.2188 87.1069 76.258L91.5874 70.149C96.6447 63.2517 91.8772 51.1546 80.9344 43.1333Z" fill="#DA7756"/>
<path d="M54.3353 71.0495C55.154 71.8289 56.0272 72.5873 56.9488 73.3184L63.3962 64.5265C62.4746 63.7893 61.6076 63.022 60.8009 62.2335L54.3353 71.0495Z" fill="#DA7756"/>
<path d="M59.0214 74.8533C59.9882 75.518 60.9641 76.1312 61.952 76.6902L68.4113 67.8802C67.4173 67.3333 66.4294 66.732 65.4626 66.0674L59.0214 74.8533Z" fill="#DA7756"/>
<path fill-rule="evenodd" clip-rule="evenodd" d="M32.6899 10.4801C32.8621 10.5077 33.4754 9.61578 33.6516 9.65208L32.9921 11.038C31.8015 9.90544 30.7178 10.1625 32.6899 10.4801Z" fill="#DA7756"/>
<path fill-rule="evenodd" clip-rule="evenodd" d="M33.6516 9.65208C33.4754 9.61578 32.8621 10.5077 32.6899 10.4801C30.7178 10.1625 31.8015 9.90544 32.9921 11.038L33.6516 9.65208Z" fill="#DA7756"/>
<path fill-rule="evenodd" clip-rule="evenodd" d="M32.9921 11.038L33.0658 10.8754C34.7507 12.2406 37.2158 14.1855 36.248 15.9509C35.3851 17.5224 32.9256 18.7514 31.1312 19.6646C29.1555 20.6851 27.9883 21.2951 30.6347 21.4682C35.6913 21.7671 38.7988 19.1639 40.6117 15.9388C42.3259 12.8787 38.0428 10.5406 33.6516 9.65208L32.9921 11.038Z" fill="#DA7756"/>
<path d="M33.6516 9.65208C33.4754 9.61578 32.8621 10.5077 32.6899 10.4801C30.7178 10.1625 31.8015 9.90544 32.9921 11.038L27.5376 22.3293L29.669 22.5375L28.3152 25.2983L26.1802 25.1195L23.8897 29.8361L19.5975 29.5352L21.9063 24.7277L19.7169 24.4074L20.897 21.8244L24.1254 21.981L26.994 16.0639L30.1748 9.15512L33.6516 9.65208Z" fill="#DA7756"/>
<path fill-rule="evenodd" clip-rule="evenodd" d="M30.842 72.247C30.9341 72.3063 31.4051 71.8571 31.4977 71.9232L30.9299 72.6912C30.4307 71.6523 29.7867 71.5662 30.842 72.247Z" fill="#DA7756"/>
<path fill-rule="evenodd" clip-rule="evenodd" d="M31.4977 71.9232C31.4051 71.8571 30.9341 72.3063 30.842 72.247C29.7867 71.5662 30.4307 71.6523 30.9299 72.6912L31.4977 71.9232Z" fill="#DA7756"/>
<path fill-rule="evenodd" clip-rule="evenodd" d="M30.9299 72.6912L30.9946 72.6002C31.7426 73.9123 32.8596 75.7976 32.0798 76.7458C31.3808 77.5895 29.812 77.8232 28.6601 78.0035C27.3866 78.2105 26.6326 78.3366 28.1296 79.0877C30.9994 80.4985 33.114 79.5002 34.5438 77.7774C35.8715 76.1437 33.8038 73.562 31.4977 71.9232L30.9299 72.6912Z" fill="#DA7756"/>
<path d="M31.4977 71.9232C31.4051 71.8571 30.9341 72.3063 30.842 72.247C29.7867 71.5662 30.4307 71.6523 30.9299 72.6912L26.2322 78.9169L27.4299 79.5688L26.2823 81.0824L25.0765 80.4462L23.1523 83.0223L20.7392 81.765L22.6764 79.1471L21.4677 78.4008L22.494 76.9764L24.3211 77.8619L26.8047 74.6136L29.6353 70.7651L31.4977 71.9232Z" fill="#DA7756"/>
<path fill-rule="evenodd" clip-rule="evenodd" d="M63.6742 49.9206C63.769 49.8102 62.9602 49.058 63.0661 48.9475L64.431 49.9112C62.6896 50.3361 62.5945 51.186 63.6742 49.9206Z" fill="#DA7756"/>
<path fill-rule="evenodd" clip-rule="evenodd" d="M63.0661 48.9475C62.9602 49.058 63.769 49.8102 63.6742 49.9206C62.5945 51.186 62.6896 50.3361 64.431 49.9112L63.0661 48.9475Z" fill="#DA7756"/>
<path fill-rule="evenodd" clip-rule="evenodd" d="M64.431 49.9112L64.2697 49.8009C66.4924 49.1307 69.7529 48.1824 71.4796 49.5382C73.0097 50.7403 73.4504 52.823 73.7749 54.3207C74.1335 55.9465 74.3452 56.8949 75.6882 55.3101C78.2828 52.3431 76.4505 49.2497 73.246 46.6239C70.1867 44.1438 65.7279 46.197 63.0661 48.9475L64.431 49.9112Z" fill="#DA7756"/>
<path d="M63.0661 48.9475C62.9602 49.058 63.769 49.8102 63.6742 49.9206C62.5945 51.186 62.6896 50.3361 64.431 49.9112L75.3488 57.5337L76.5247 56.3032L79.1579 58.1274L77.9713 59.3073L82.3063 62.1588L79.9048 64.4094L75.6303 61.7291L74.3415 62.9685L71.9915 61.5222L73.4959 59.5384L67.9423 55.7698L61.2521 51.2106L63.0661 48.9475Z" fill="#DA7756"/>
</svg>
