<svg width="162" height="162" viewBox="0 0 162 162" fill="none" xmlns="http://www.w3.org/2000/svg">
<path d="M71.7368 115.538H77.8947V121.692H71.7368V115.538Z" fill="#DA7756"/>
<path d="M71.7368 109.385H77.8947V115.538H71.7368V109.385Z" fill="#DA7756"/>
<path d="M71.7368 103.231H77.8947V109.385H71.7368V103.231Z" fill="#DA7756"/>
<path d="M71.7368 97.0769H77.8947V103.231H71.7368V97.0769Z" fill="#DA7756"/>
<path d="M4 103.231H10.1579V109.385H4V103.231Z" fill="#DA7756"/>
<path d="M4 97.0769H10.1579V103.231H4V97.0769Z" fill="#DA7756"/>
<path d="M10.1579 97.0769H16.3158V103.231H10.1579V97.0769Z" fill="#DA7756"/>
<path d="M16.3158 97.0769H22.4737V103.231H16.3158V97.0769Z" fill="#DA7756"/>
<path d="M22.4737 97.0769H28.6316V103.231H22.4737V97.0769Z" fill="#DA7756"/>
<path d="M28.6316 97.0769H34.7895V103.231H28.6316V97.0769Z" fill="#DA7756"/>
<path d="M34.7895 97.0769H40.9474V103.231H34.7895V97.0769Z" fill="#DA7756"/>
<path d="M40.9474 97.0769H47.1053V103.231H40.9474V97.0769Z" fill="#DA7756"/>
<path d="M47.1053 97.0769H53.2632V103.231H47.1053V97.0769Z" fill="#DA7756"/>
<path d="M53.2632 97.0769H59.4211V103.231H53.2632V97.0769Z" fill="#DA7756"/>
<path d="M59.4211 97.0769H65.5789V103.231H59.4211V97.0769Z" fill="#DA7756"/>
<path d="M65.5789 97.0769H71.7368V103.231H65.5789V97.0769Z" fill="#DA7756"/>
<path d="M56.3421 86.9231H62.5V93.0769H56.3421V86.9231Z" fill="#DA7756"/>
<path d="M56.3421 80.7692H62.5V86.9231H56.3421V80.7692Z" fill="#DA7756"/>
<path d="M62.5 74.6154H68.6579V80.7692H62.5V74.6154Z" fill="#DA7756"/>
<path d="M68.6579 68.4615H74.8158V74.6154H68.6579V68.4615Z" fill="#DA7756"/>
<path d="M39.7158 86.9231H45.8737V93.0769H39.7158V86.9231Z" fill="#DA7756"/>
<path d="M39.7158 80.7692H45.8737V86.9231H39.7158V80.7692Z" fill="#DA7756"/>
<path d="M45.8737 74.6154H52.0316V80.7692H45.8737V74.6154Z" fill="#DA7756"/>
<path d="M52.0316 68.4615H58.1895V74.6154H52.0316V68.4615Z" fill="#DA7756"/>
<path d="M58.1895 62.3077H64.3474V68.4615H58.1895V62.3077Z" fill="#DA7756"/>
<path d="M58.1895 56.1538H64.3474V62.3077H58.1895V56.1538Z" fill="#DA7756"/>
<path d="M20.3184 86.9231H26.4763V93.0769H20.3184V86.9231Z" fill="#DA7756"/>
<path d="M20.3184 80.7692H26.4763V86.9231H20.3184V80.7692Z" fill="#DA7756"/>
<path d="M26.4763 74.6154H32.6342V80.7692H26.4763V74.6154Z" fill="#DA7756"/>
<path d="M32.6342 68.4615H38.7921V74.6154H32.6342V68.4615Z" fill="#DA7756"/>
<path d="M38.7921 62.3077H44.95V68.4615H38.7921V62.3077Z" fill="#DA7756"/>
<path d="M38.7921 56.1538H44.95V62.3077H38.7921V56.1538Z" fill="#DA7756"/>
<path d="M38.7921 50H44.95V56.1538H38.7921V50Z" fill="#DA7756"/>
<path d="M65.5789 115.538H71.7368V121.692H65.5789V115.538Z" fill="#DA7756"/>
<path d="M65.5789 121.692H71.7368V127.846H65.5789V121.692Z" fill="#DA7756"/>
<path d="M59.4211 121.692H65.5789V127.846H59.4211V121.692Z" fill="#DA7756"/>
<path d="M59.4211 127.846H65.5789V131.761H59.4211V134V127.846Z" fill="#DA7756"/>
<path d="M53.2632 127.846H59.4211V134H53.2632V127.846Z" fill="#DA7756"/>
<path d="M47.1053 127.846H53.2632V134H47.1053V127.846Z" fill="#DA7756"/>
<path d="M40.9474 127.846H47.1053V134H40.9474V127.846Z" fill="#DA7756"/>
<path d="M34.7895 127.846H40.9474V134H34.7895V127.846Z" fill="#DA7756"/>
<path d="M28.6316 127.846H34.7895V134H28.6316V127.846Z" fill="#DA7756"/>
<path d="M22.4737 127.846H28.6316V134H22.4737V127.846Z" fill="#DA7756"/>
<path d="M16.3158 127.846H22.4737V134V131.653H16.3158V127.846Z" fill="#DA7756"/>
<path d="M16.3158 121.692H22.4737V127.846H16.3158V121.692Z" fill="#DA7756"/>
<path d="M10.1579 121.692H16.3158V127.846H10.1579V121.692Z" fill="#DA7756"/>
<path d="M10.1579 115.538H16.3158V121.692H10.1579V115.538Z" fill="#DA7756"/>
<path d="M4 109.385H10.1579V115.538H4V109.385Z" fill="#DA7756"/>
<path d="M65.5789 121.692H71.7368V127.846H65.5789V121.692Z" fill="#DA7756"/>
<path d="M84.0526 115.538H90.2105V121.692H84.0526V115.538Z" fill="#DA7756"/>
<path d="M77.8947 115.538H84.0526V121.692H77.8947V115.538Z" fill="#DA7756"/>
<path d="M84.0526 109.385H90.2105V115.538H84.0526V109.385Z" fill="#DA7756"/>
<path d="M90.2105 109.385H96.3684V115.538H90.2105V109.385Z" fill="#DA7756"/>
<path d="M84.0526 109.385H90.2105V115.538H84.0526V109.385Z" fill="#DA7756"/>
<path d="M96.3684 103.231H102.526V109.385H96.3684V103.231Z" fill="#DA7756"/>
<path d="M102.526 103.231H108.684V109.385H102.526V103.231Z" fill="#DA7756"/>
<path d="M108.684 103.231H114.842V109.385H108.684V103.231Z" fill="#DA7756"/>
<path d="M114.842 103.231H121V109.385H114.842V103.231Z" fill="#DA7756"/>
<path d="M121 103.231H127.158V109.385L121 109.385V103.231Z" fill="#DA7756"/>
<path d="M77.8947 103.231H84.0526V109.385H77.8947V103.231Z" fill="#DA7756"/>
<path d="M84.0526 97.0769H90.2105V103.231H84.0526V97.0769Z" fill="#DA7756"/>
<path d="M90.2105 97.0769H96.3684V103.231H90.2105V97.0769Z" fill="#DA7756"/>
<path d="M96.3684 90.9231H102.526V97.0769H96.3684V90.9231Z" fill="#DA7756"/>
<path d="M102.526 90.9231H108.684V97.0769H102.526V90.9231Z" fill="#DA7756"/>
<path d="M108.684 90.9231H114.842V97.0769H108.684V90.9231Z" fill="#DA7756"/>
<path d="M114.842 90.9231H121V97.0769H114.842V90.9231Z" fill="#DA7756"/>
<path d="M121 90.9231L127.158 90.9231V97.0769H121V90.9231Z" fill="#DA7756"/>
<path d="M121 97.0769H127.158V103.231H121V97.0769Z" fill="#DA7756"/>
<path d="M127.158 97.0769L133.316 97.0769V103.231H127.158V97.0769Z" fill="#DA7756"/>
<path d="M127.158 90.9231L133.316 90.9231V97.0769L127.158 97.0769V90.9231Z" fill="#DA7756"/>
</svg>
