<svg width="68" height="70" viewBox="0 0 68 70" fill="none" xmlns="http://www.w3.org/2000/svg">
<rect x="29.4" y="7" width="2.24" height="2.24" fill="#DA7756"/>
<rect x="31.64" y="7" width="2.24" height="2.24" fill="#DA7756"/>
<rect x="33.88" y="7" width="2.24" height="2.24" fill="#DA7756"/>
<rect x="36.12" y="7" width="2.24" height="2.24" fill="#DA7756"/>
<rect x="24.92" y="9.23999" width="2.24" height="2.24" fill="#DA7756"/>
<rect x="27.16" y="9.23999" width="2.24" height="2.24" fill="#DA7756"/>
<rect x="29.4" y="9.23999" width="2.24" height="2.24" fill="#DA7756"/>
<rect x="31.64" y="9.23999" width="2.24" height="2.24" fill="#DA7756"/>
<rect x="33.88" y="9.23999" width="2.24" height="2.24" fill="#DA7756"/>
<rect x="36.12" y="9.23999" width="2.24" height="2.24" fill="#DA7756"/>
<rect x="38.36" y="9.23999" width="2.24" height="2.24" fill="#DA7756"/>
<rect x="40.6" y="9.23999" width="2.24" height="2.24" fill="#DA7756"/>
<rect x="22.68" y="11.48" width="2.24" height="2.24" fill="#DA7756"/>
<rect x="24.92" y="11.48" width="2.24" height="2.24" fill="#DA7756"/>
<rect x="27.16" y="11.48" width="2.24" height="2.24" fill="#DA7756"/>
<rect x="38.36" y="11.48" width="2.24" height="2.24" fill="#DA7756"/>
<rect x="40.6" y="11.48" width="2.24" height="2.24" fill="#DA7756"/>
<rect x="42.84" y="11.48" width="2.24" height="2.24" fill="#DA7756"/>
<rect x="20.44" y="13.72" width="2.24" height="2.24" fill="#DA7756"/>
<rect x="22.68" y="13.72" width="2.24" height="2.24" fill="#DA7756"/>
<rect x="42.84" y="13.72" width="2.24" height="2.24" fill="#DA7756"/>
<rect x="45.08" y="13.72" width="2.24" height="2.24" fill="#DA7756"/>
<rect x="20.44" y="15.96" width="2.24" height="2.24" fill="#DA7756"/>
<rect x="22.68" y="15.96" width="2.24" height="2.24" fill="#DA7756"/>
<rect x="42.84" y="15.96" width="2.24" height="2.24" fill="#DA7756"/>
<rect x="45.08" y="15.96" width="2.24" height="2.24" fill="#DA7756"/>
<rect x="20.44" y="18.2" width="2.24" height="2.24" fill="#DA7756"/>
<rect x="45.08" y="18.2" width="2.24" height="2.24" fill="#DA7756"/>
<rect x="47.32" y="18.2" width="2.24" height="2.24" fill="#DA7756"/>
<rect x="47.32" y="18.2" width="2.24" height="2.24" fill="#DA7756"/>
<rect x="18.2" y="20.44" width="2.24" height="2.24" fill="#DA7756"/>
<rect x="18.2" y="22.68" width="2.24" height="2.24" fill="#DA7756"/>
<rect x="18.2" y="18.2" width="2.24" height="2.24" fill="#DA7756"/>
<rect x="20.44" y="20.44" width="2.24" height="2.24" fill="#DA7756"/>
<rect x="45.08" y="20.44" width="2.24" height="2.24" fill="#DA7756"/>
<rect x="47.32" y="20.44" width="2.24" height="2.24" fill="#DA7756"/>
<rect x="20.44" y="22.68" width="2.24" height="2.24" fill="#DA7756"/>
<rect x="45.08" y="22.68" width="2.24" height="2.24" fill="#DA7756"/>
<rect x="47.32" y="22.68" width="2.24" height="2.24" fill="#DA7756"/>
<rect x="20.44" y="24.92" width="2.24" height="2.24" fill="#DA7756"/>
<rect x="45.08" y="24.92" width="2.24" height="2.24" fill="#DA7756"/>
<rect x="20.44" y="27.16" width="2.24" height="2.24" fill="#DA7756"/>
<rect x="22.68" y="27.16" width="2.24" height="2.24" fill="#DA7756"/>
<rect x="42.84" y="27.16" width="2.24" height="2.24" fill="#DA7756"/>
<rect x="45.08" y="27.16" width="2.24" height="2.24" fill="#DA7756"/>
<rect x="22.68" y="29.4" width="2.24" height="2.24" fill="#DA7756"/>
<rect x="24.92" y="29.4" width="2.24" height="2.24" fill="#DA7756"/>
<rect x="40.6" y="29.4" width="2.24" height="2.24" fill="#DA7756"/>
<rect x="42.84" y="29.4" width="2.24" height="2.24" fill="#DA7756"/>
<rect x="24.92" y="31.64" width="2.24" height="2.24" fill="#DA7756"/>
<rect x="27.16" y="31.64" width="2.24" height="2.24" fill="#DA7756"/>
<rect x="29.4" y="31.64" width="2.24" height="2.24" fill="#DA7756"/>
<rect x="31.64" y="31.64" width="2.24" height="2.24" fill="#DA7756"/>
<rect x="33.88" y="31.64" width="2.24" height="2.24" fill="#DA7756"/>
<rect x="36.12" y="31.64" width="2.24" height="2.24" fill="#DA7756"/>
<rect x="38.36" y="31.64" width="2.24" height="2.24" fill="#DA7756"/>
<rect x="40.6" y="31.64" width="2.24" height="2.24" fill="#DA7756"/>
<rect x="27.16" y="33.88" width="2.24" height="2.24" fill="#DA7756"/>
<rect x="29.4" y="33.88" width="2.24" height="2.24" fill="#DA7756"/>
<rect x="31.64" y="33.88" width="2.24" height="2.24" fill="#DA7756"/>
<rect x="33.88" y="33.88" width="2.24" height="2.24" fill="#DA7756"/>
<rect x="36.12" y="33.88" width="2.24" height="2.24" fill="#DA7756"/>
<rect x="38.36" y="33.88" width="2.24" height="2.24" fill="#DA7756"/>
<rect x="22.68" y="38.36" width="2.24" height="2.24" fill="#DA7756"/>
<rect x="24.92" y="38.36" width="2.24" height="2.24" fill="#DA7756"/>
<rect x="27.16" y="38.36" width="2.24" height="2.24" fill="#DA7756"/>
<rect x="29.4" y="38.36" width="2.24" height="2.24" fill="#DA7756"/>
<rect x="31.64" y="38.36" width="2.24" height="2.24" fill="#DA7756"/>
<rect x="33.88" y="38.36" width="2.24" height="2.24" fill="#DA7756"/>
<rect x="36.12" y="38.36" width="2.24" height="2.24" fill="#DA7756"/>
<rect x="38.36" y="38.36" width="2.24" height="2.24" fill="#DA7756"/>
<rect x="40.6" y="38.36" width="2.24" height="2.24" fill="#DA7756"/>
<rect x="42.84" y="38.36" width="2.24" height="2.24" fill="#DA7756"/>
<rect x="18.2" y="40.6" width="2.24" height="2.24" fill="#DA7756"/>
<rect x="20.44" y="40.6" width="2.24" height="2.24" fill="#DA7756"/>
<rect x="22.68" y="40.6" width="2.24" height="2.24" fill="#DA7756"/>
<rect x="24.92" y="40.6" width="2.24" height="2.24" fill="#DA7756"/>
<rect x="27.16" y="40.6" width="2.24" height="2.24" fill="#DA7756"/>
<rect x="38.36" y="40.6" width="2.24" height="2.24" fill="#DA7756"/>
<rect x="40.6" y="40.6" width="2.24" height="2.24" fill="#DA7756"/>
<rect x="42.84" y="40.6" width="2.24" height="2.24" fill="#DA7756"/>
<rect x="45.08" y="40.6" width="2.24" height="2.24" fill="#DA7756"/>
<rect x="47.32" y="40.6" width="2.24" height="2.24" fill="#DA7756"/>
<rect x="15.96" y="42.84" width="2.24" height="2.24" fill="#DA7756"/>
<rect x="18.2" y="42.84" width="2.24" height="2.24" fill="#DA7756"/>
<rect x="20.44" y="42.84" width="2.24" height="2.24" fill="#DA7756"/>
<rect x="45.08" y="42.84" width="2.24" height="2.24" fill="#DA7756"/>
<rect x="47.32" y="42.84" width="2.24" height="2.24" fill="#DA7756"/>
<rect x="49.56" y="42.84" width="2.24" height="2.24" fill="#DA7756"/>
<rect x="13.72" y="45.08" width="2.24" height="2.24" fill="#DA7756"/>
<rect x="15.96" y="45.08" width="2.24" height="2.24" fill="#DA7756"/>
<rect x="18.2" y="45.08" width="2.24" height="2.24" fill="#DA7756"/>
<rect x="49.56" y="45.08" width="2.24" height="2.24" fill="#DA7756"/>
<rect x="51.8" y="45.08" width="2.24" height="2.24" fill="#DA7756"/>
<rect x="13.72" y="47.32" width="2.24" height="2.24" fill="#DA7756"/>
<rect x="15.96" y="47.32" width="2.24" height="2.24" fill="#DA7756"/>
<rect x="51.8" y="47.32" width="2.24" height="2.24" fill="#DA7756"/>
<rect x="11.48" y="49.56" width="2.24" height="2.24" fill="#DA7756"/>
<rect x="13.72" y="49.56" width="2.24" height="2.24" fill="#DA7756"/>
<rect x="54.04" y="49.56" width="2.24" height="2.24" fill="#DA7756"/>
<rect x="11.48" y="51.8" width="2.24" height="2.24" fill="#DA7756"/>
<rect x="13.72" y="51.8" width="2.24" height="2.24" fill="#DA7756"/>
<rect x="51.8" y="49.56" width="2.24" height="2.24" fill="#DA7756"/>
<rect x="51.8" y="51.8" width="2.24" height="2.24" fill="#DA7756"/>
<rect x="54.04" y="51.8" width="2.24" height="2.24" fill="#DA7756"/>
<rect x="56.28" y="51.8" width="2.24" height="2.24" fill="#DA7756"/>
<rect x="9.24002" y="54.04" width="2.24" height="2.24" fill="#DA7756"/>
<rect x="11.48" y="54.04" width="2.24" height="2.24" fill="#DA7756"/>
<rect x="54.04" y="54.04" width="2.24" height="2.24" fill="#DA7756"/>
<rect x="56.28" y="54.04" width="2.24" height="2.24" fill="#DA7756"/>
<rect x="9.24002" y="56.28" width="2.24" height="2.24" fill="#DA7756"/>
<rect x="11.48" y="56.28" width="2.24" height="2.24" fill="#DA7756"/>
<rect x="54.04" y="56.28" width="2.24" height="2.24" fill="#DA7756"/>
<rect x="56.28" y="56.28" width="2.24" height="2.24" fill="#DA7756"/>
<rect x="10" y="58.52" width="48" height="2.24" fill="#DA7756"/>
<rect x="7" y="58.52" width="3" height="2.24" fill="#DA7756"/>
<rect x="56.28" y="58.52" width="2.24" height="2.24" fill="#DA7756"/>
<rect x="58.52" y="58.52" width="2.24" height="2.24" fill="#DA7756"/>
<rect x="7" y="60.76" width="2.24" height="2.24" fill="#DA7756"/>
<rect x="9.24002" y="60.76" width="2.24" height="2.24" fill="#DA7756"/>
<rect x="11.48" y="60.76" width="2.24" height="2.24" fill="#DA7756"/>
<rect x="13.72" y="60.76" width="2.24" height="2.24" fill="#DA7756"/>
<rect x="15.96" y="60.76" width="2.24" height="2.24" fill="#DA7756"/>
<rect x="18.2" y="60.76" width="2.24" height="2.24" fill="#DA7756"/>
<rect x="20.44" y="60.76" width="2.24" height="2.24" fill="#DA7756"/>
<rect x="22.68" y="60.76" width="2.24" height="2.24" fill="#DA7756"/>
<rect x="24.92" y="60.76" width="2.24" height="2.24" fill="#DA7756"/>
<rect x="27.16" y="60.76" width="2.24" height="2.24" fill="#DA7756"/>
<rect x="29.4" y="60.76" width="2.24" height="2.24" fill="#DA7756"/>
<rect x="31.64" y="60.76" width="2.24" height="2.24" fill="#DA7756"/>
<rect x="33.88" y="60.76" width="2.24" height="2.24" fill="#DA7756"/>
<rect x="36.12" y="60.76" width="2.24" height="2.24" fill="#DA7756"/>
<rect x="38.36" y="60.76" width="2.24" height="2.24" fill="#DA7756"/>
<rect x="40.6" y="60.76" width="2.24" height="2.24" fill="#DA7756"/>
<rect x="42.84" y="60.76" width="2.24" height="2.24" fill="#DA7756"/>
<rect x="45.08" y="60.76" width="2.24" height="2.24" fill="#DA7756"/>
<rect x="47.32" y="60.76" width="2.24" height="2.24" fill="#DA7756"/>
<rect x="49.56" y="60.76" width="2.24" height="2.24" fill="#DA7756"/>
<rect x="51.8" y="60.76" width="2.24" height="2.24" fill="#DA7756"/>
<rect x="54.04" y="60.76" width="2.24" height="2.24" fill="#DA7756"/>
<rect x="56.28" y="60.76" width="2.24" height="2.24" fill="#DA7756"/>
<rect x="49.56" y="45.08" width="2.24" height="2.24" fill="#DA7756"/>
<rect x="47.32" y="45.08" width="2.24" height="2.24" fill="#DA7756"/>
<rect x="49.56" y="47.32" width="2.24" height="2.24" fill="#DA7756"/>
<rect x="58.52" y="60.76" width="2.24" height="2.24" fill="#DA7756"/>
</svg>
