<svg width="68" height="70" viewBox="0 0 68 70" fill="none" xmlns="http://www.w3.org/2000/svg">
<rect x="27.8438" y="10" width="1.53125" height="1.53125" fill="#DB7858"/>
<rect x="29.375" y="10" width="1.53125" height="1.53125" fill="#DC7757"/>
<rect x="30.9062" y="10" width="1.53125" height="1.53125" fill="#DA7757"/>
<rect x="32.4375" y="10" width="1.53125" height="1.53125" fill="#DA7756"/>
<rect x="33.9688" y="10" width="1.53125" height="1.53125" fill="#DA7756"/>
<rect x="35.5" y="10" width="1.53125" height="1.53125" fill="#DA7656"/>
<rect x="37.0312" y="10" width="1.53125" height="1.53125" fill="#DA7755"/>
<rect x="38.5625" y="10" width="1.53125" height="1.53125" fill="#DB7858"/>
<rect x="24.7812" y="11.5312" width="1.53125" height="1.53125" fill="#D77858"/>
<rect x="26.3125" y="11.5312" width="1.53125" height="1.53125" fill="#DB7757"/>
<rect x="27.8438" y="11.5312" width="1.53125" height="1.53125" fill="#DA7756"/>
<rect x="29.375" y="11.5312" width="1.53125" height="1.53125" fill="#DA7756"/>
<rect x="30.9062" y="11.5312" width="1.53125" height="1.53125" fill="#DA7756"/>
<rect x="32.4375" y="11.5312" width="1.53125" height="1.53125" fill="#DA7756"/>
<rect x="33.9688" y="11.5312" width="1.53125" height="1.53125" fill="#DA7756"/>
<rect x="35.5" y="11.5312" width="1.53125" height="1.53125" fill="#DA7756"/>
<rect x="37.0312" y="11.5312" width="1.53125" height="1.53125" fill="#DA7756"/>
<rect x="38.5625" y="11.5312" width="1.53125" height="1.53125" fill="#DA7756"/>
<rect x="40.0938" y="11.5312" width="1.53125" height="1.53125" fill="#D97656"/>
<rect x="41.625" y="11.5312" width="1.53125" height="1.53125" fill="#D77850"/>
<rect x="23.25" y="13.0625" width="1.53125" height="1.53125" fill="#D77858"/>
<rect x="24.7812" y="13.0625" width="1.53125" height="1.53125" fill="#DA7756"/>
<rect x="26.3125" y="13.0625" width="1.53125" height="1.53125" fill="#DA7756"/>
<rect x="27.8438" y="13.0625" width="1.53125" height="1.53125" fill="#DA7756"/>
<rect x="29.375" y="13.0625" width="1.53125" height="1.53125" fill="#D97654"/>
<rect x="30.9062" y="13.0625" width="1.53125" height="1.53125" fill="#DE7352"/>
<rect x="35.5" y="13.0625" width="1.53125" height="1.53125" fill="#DA7555"/>
<rect x="37.0312" y="13.0625" width="1.53125" height="1.53125" fill="#D97654"/>
<rect x="38.5625" y="13.0625" width="1.53125" height="1.53125" fill="#D97756"/>
<rect x="40.0938" y="13.0625" width="1.53125" height="1.53125" fill="#DA7756"/>
<rect x="41.625" y="13.0625" width="1.53125" height="1.53125" fill="#DA7756"/>
<rect x="43.1562" y="13.0625" width="1.53125" height="1.53125" fill="#D77850"/>
<rect x="23.25" y="14.5938" width="1.53125" height="1.53125" fill="#DA7756"/>
<rect x="24.7812" y="14.5938" width="1.53125" height="1.53125" fill="#DA7756"/>
<rect x="26.3125" y="14.5938" width="1.53125" height="1.53125" fill="#D97655"/>
<rect x="27.8438" y="14.5938" width="1.53125" height="1.53125" fill="#CF7050"/>
<rect x="38.5625" y="14.5938" width="1.53125" height="1.53125" fill="#D77858"/>
<rect x="40.0938" y="14.5938" width="1.53125" height="1.53125" fill="#DA7756"/>
<rect x="41.625" y="14.5938" width="1.53125" height="1.53125" fill="#DA7756"/>
<rect x="43.1562" y="14.5938" width="1.53125" height="1.53125" fill="#DA7756"/>
<rect x="44.6875" y="14.5938" width="1.53125" height="1.53125" fill="#CF7050"/>
<rect x="21.7188" y="16.125" width="1.53125" height="1.53125" fill="#D97856"/>
<rect x="23.25" y="16.125" width="1.53125" height="1.53125" fill="#DA7756"/>
<rect x="24.7812" y="16.125" width="1.53125" height="1.53125" fill="#D97756"/>
<rect x="26.3125" y="16.125" width="1.53125" height="1.53125" fill="#CF7050"/>
<rect x="40.0938" y="16.125" width="1.53125" height="1.53125" fill="#DF8050"/>
<rect x="41.625" y="16.125" width="1.53125" height="1.53125" fill="#DA7756"/>
<rect x="43.1562" y="16.125" width="1.53125" height="1.53125" fill="#DA7756"/>
<rect x="44.6875" y="16.125" width="1.53125" height="1.53125" fill="#DB7656"/>
<rect x="21.7188" y="17.6562" width="1.53125" height="1.53125" fill="#DA7756"/>
<rect x="23.25" y="17.6562" width="1.53125" height="1.53125" fill="#DA7756"/>
<rect x="24.7812" y="17.6562" width="1.53125" height="1.53125" fill="#DB7555"/>
<rect x="41.625" y="17.6562" width="1.53125" height="1.53125" fill="#D77854"/>
<rect x="43.1562" y="17.6562" width="1.53125" height="1.53125" fill="#DA7756"/>
<rect x="44.6875" y="17.6562" width="1.53125" height="1.53125" fill="#DA7655"/>
<rect x="20.1875" y="19.1875" width="1.53125" height="1.53125" fill="#DB7858"/>
<rect x="21.7188" y="19.1875" width="1.53125" height="1.53125" fill="#DA7756"/>
<rect x="23.25" y="19.1875" width="1.53125" height="1.53125" fill="#D97756"/>
<rect x="43.1562" y="19.1875" width="1.53125" height="1.53125" fill="#DA7757"/>
<rect x="44.6875" y="19.1875" width="1.53125" height="1.53125" fill="#DA7756"/>
<rect x="46.2188" y="19.1875" width="1.53125" height="1.53125" fill="#D57555"/>
<rect x="20.1875" y="20.7187" width="1.53125" height="1.53125" fill="#DC7656"/>
<rect x="21.7188" y="20.7187" width="1.53125" height="1.53125" fill="#DA7756"/>
<rect x="23.25" y="20.7187" width="1.53125" height="1.53125" fill="#D97656"/>
<rect x="43.1562" y="20.7187" width="1.53125" height="1.53125" fill="#DA7757"/>
<rect x="44.6875" y="20.7187" width="1.53125" height="1.53125" fill="#DA7756"/>
<rect x="46.2188" y="20.7187" width="1.53125" height="1.53125" fill="#DC7656"/>
<rect x="20.1875" y="22.2501" width="1.53125" height="1.53125" fill="#DA7558"/>
<rect x="21.7188" y="22.2501" width="1.53125" height="1.53125" fill="#DA7756"/>
<rect x="23.25" y="22.2501" width="1.53125" height="1.53125" fill="#DA7755"/>
<rect x="43.1562" y="22.2501" width="1.53125" height="1.53125" fill="#DB7756"/>
<rect x="44.6875" y="22.2501" width="1.53125" height="1.53125" fill="#DA7756"/>
<rect x="46.2188" y="22.2501" width="1.53125" height="1.53125" fill="#DC7656"/>
<rect x="20.1875" y="23.7812" width="1.53125" height="1.53125" fill="#DA7555"/>
<rect x="21.7188" y="23.7812" width="1.53125" height="1.53125" fill="#DA7756"/>
<rect x="23.25" y="23.7812" width="1.53125" height="1.53125" fill="#D97656"/>
<rect x="43.1562" y="23.7812" width="1.53125" height="1.53125" fill="#DB7756"/>
<rect x="44.6875" y="23.7812" width="1.53125" height="1.53125" fill="#DA7756"/>
<rect x="46.2188" y="23.7812" width="1.53125" height="1.53125" fill="#DB7555"/>
<rect x="20.1875" y="25.3125" width="1.53125" height="1.53125" fill="#DF8050"/>
<rect x="21.7188" y="25.3125" width="1.53125" height="1.53125" fill="#DB7756"/>
<rect x="23.25" y="25.3125" width="1.53125" height="1.53125" fill="#DA7756"/>
<rect x="24.7812" y="25.3125" width="1.53125" height="1.53125" fill="#D77854"/>
<rect x="41.625" y="25.3125" width="1.53125" height="1.53125" fill="#D77858"/>
<rect x="43.1562" y="25.3125" width="1.53125" height="1.53125" fill="#DA7756"/>
<rect x="44.6875" y="25.3125" width="1.53125" height="1.53125" fill="#D97756"/>
<rect x="21.7188" y="26.8438" width="1.53125" height="1.53125" fill="#DB7656"/>
<rect x="23.25" y="26.8438" width="1.53125" height="1.53125" fill="#DA7756"/>
<rect x="24.7812" y="26.8438" width="1.53125" height="1.53125" fill="#DA7755"/>
<rect x="41.625" y="26.8438" width="1.53125" height="1.53125" fill="#DB7757"/>
<rect x="43.1562" y="26.8438" width="1.53125" height="1.53125" fill="#DA7756"/>
<rect x="44.6875" y="26.8438" width="1.53125" height="1.53125" fill="#DA7755"/>
<rect x="21.7188" y="28.375" width="1.53125" height="1.53125" fill="#DF8050"/>
<rect x="23.25" y="28.375" width="1.53125" height="1.53125" fill="#D97756"/>
<rect x="24.7812" y="28.375" width="1.53125" height="1.53125" fill="#DA7756"/>
<rect x="26.3125" y="28.375" width="1.53125" height="1.53125" fill="#DA7755"/>
<rect x="38.5625" y="28.375" width="1.53125" height="1.53125" fill="#CF7050"/>
<rect x="40.0938" y="28.375" width="1.53125" height="1.53125" fill="#D97856"/>
<rect x="41.625" y="28.375" width="1.53125" height="1.53125" fill="#DA7756"/>
<rect x="43.1562" y="28.375" width="1.53125" height="1.53125" fill="#D97756"/>
<rect x="44.6875" y="28.375" width="1.53125" height="1.53125" fill="#D77850"/>
<rect x="23.25" y="29.9062" width="1.53125" height="1.53125" fill="#DA7A55"/>
<rect x="24.7812" y="29.9062" width="1.53125" height="1.53125" fill="#DB7756"/>
<rect x="26.3125" y="29.9062" width="1.53125" height="1.53125" fill="#DA7756"/>
<rect x="27.8438" y="29.9062" width="1.53125" height="1.53125" fill="#DA7756"/>
<rect x="29.375" y="29.9062" width="1.53125" height="1.53125" fill="#DC7956"/>
<rect x="30.9062" y="29.9062" width="1.53125" height="1.53125" fill="#CF7050"/>
<rect x="35.5" y="29.9062" width="1.53125" height="1.53125" fill="#CF7050"/>
<rect x="37.0312" y="29.9062" width="1.53125" height="1.53125" fill="#DD7757"/>
<rect x="38.5625" y="29.9062" width="1.53125" height="1.53125" fill="#DA7756"/>
<rect x="40.0938" y="29.9062" width="1.53125" height="1.53125" fill="#DA7756"/>
<rect x="41.625" y="29.9062" width="1.53125" height="1.53125" fill="#DA7756"/>
<rect x="43.1562" y="29.9062" width="1.53125" height="1.53125" fill="#DA7A55"/>
<rect x="24.7812" y="31.4375" width="1.53125" height="1.53125" fill="#D77858"/>
<rect x="26.3125" y="31.4375" width="1.53125" height="1.53125" fill="#D97756"/>
<rect x="27.8438" y="31.4375" width="1.53125" height="1.53125" fill="#DA7756"/>
<rect x="29.375" y="31.4375" width="1.53125" height="1.53125" fill="#DA7756"/>
<rect x="30.9062" y="31.4375" width="1.53125" height="1.53125" fill="#DA7756"/>
<rect x="32.4375" y="31.4375" width="1.53125" height="1.53125" fill="#DA7757"/>
<rect x="33.9688" y="31.4375" width="1.53125" height="1.53125" fill="#DA7757"/>
<rect x="35.5" y="31.4375" width="1.53125" height="1.53125" fill="#DA7756"/>
<rect x="37.0312" y="31.4375" width="1.53125" height="1.53125" fill="#DA7756"/>
<rect x="38.5625" y="31.4375" width="1.53125" height="1.53125" fill="#DA7756"/>
<rect x="40.0938" y="31.4375" width="1.53125" height="1.53125" fill="#D97756"/>
<rect x="41.625" y="31.4375" width="1.53125" height="1.53125" fill="#D77850"/>
<rect x="27.8438" y="32.9688" width="1.53125" height="1.53125" fill="#D77555"/>
<rect x="29.375" y="32.9688" width="1.53125" height="1.53125" fill="#DA7755"/>
<rect x="30.9062" y="32.9688" width="1.53125" height="1.53125" fill="#DA7756"/>
<rect x="32.4375" y="32.9688" width="1.53125" height="1.53125" fill="#DA7756"/>
<rect x="33.9688" y="32.9688" width="1.53125" height="1.53125" fill="#DA7756"/>
<rect x="35.5" y="32.9688" width="1.53125" height="1.53125" fill="#DA7756"/>
<rect x="37.0312" y="32.9688" width="1.53125" height="1.53125" fill="#DA7755"/>
<rect x="38.5625" y="32.9688" width="1.53125" height="1.53125" fill="#D97656"/>
<rect x="32.4375" y="34.5" width="1.53125" height="1.53125" fill="#DE7352"/>
<rect x="33.9688" y="34.5" width="1.53125" height="1.53125" fill="#DE7352"/>
<rect x="26.3125" y="36.0312" width="1.53125" height="1.53125" fill="#DB7858"/>
<rect x="27.8438" y="36.0312" width="1.53125" height="1.53125" fill="#DA7656"/>
<rect x="29.375" y="36.0312" width="1.53125" height="1.53125" fill="#DB7757"/>
<rect x="30.9062" y="36.0312" width="1.53125" height="1.53125" fill="#DA7757"/>
<rect x="32.4375" y="36.0312" width="1.53125" height="1.53125" fill="#DA7756"/>
<rect x="33.9688" y="36.0312" width="1.53125" height="1.53125" fill="#DA7756"/>
<rect x="35.5" y="36.0312" width="1.53125" height="1.53125" fill="#DB7756"/>
<rect x="37.0312" y="36.0312" width="1.53125" height="1.53125" fill="#DB7757"/>
<rect x="38.5625" y="36.0312" width="1.53125" height="1.53125" fill="#DA7656"/>
<rect x="40.0938" y="36.0312" width="1.53125" height="1.53125" fill="#DB7858"/>
<rect x="21.7188" y="37.5625" width="1.53125" height="1.53125" fill="#CF7050"/>
<rect x="23.25" y="37.5625" width="1.53125" height="1.53125" fill="#D97856"/>
<rect x="24.7812" y="37.5625" width="1.53125" height="1.53125" fill="#DB7756"/>
<rect x="26.3125" y="37.5625" width="1.53125" height="1.53125" fill="#DA7756"/>
<rect x="27.8438" y="37.5625" width="1.53125" height="1.53125" fill="#DA7756"/>
<rect x="29.375" y="37.5625" width="1.53125" height="1.53125" fill="#DA7756"/>
<rect x="30.9062" y="37.5625" width="1.53125" height="1.53125" fill="#DA7756"/>
<rect x="32.4375" y="37.5625" width="1.53125" height="1.53125" fill="#DA7756"/>
<rect x="33.9688" y="37.5625" width="1.53125" height="1.53125" fill="#DA7756"/>
<rect x="35.5" y="37.5625" width="1.53125" height="1.53125" fill="#DA7756"/>
<rect x="37.0312" y="37.5625" width="1.53125" height="1.53125" fill="#DA7756"/>
<rect x="38.5625" y="37.5625" width="1.53125" height="1.53125" fill="#DA7756"/>
<rect x="40.0938" y="37.5625" width="1.53125" height="1.53125" fill="#DA7756"/>
<rect x="41.625" y="37.5625" width="1.53125" height="1.53125" fill="#DA7756"/>
<rect x="43.1562" y="37.5625" width="1.53125" height="1.53125" fill="#DA7755"/>
<rect x="44.6875" y="37.5625" width="1.53125" height="1.53125" fill="#D77850"/>
<rect x="18.6563" y="39.0938" width="1.53125" height="1.53125" fill="#CF7050"/>
<rect x="20.1875" y="39.0938" width="1.53125" height="1.53125" fill="#D97856"/>
<rect x="21.7188" y="39.0938" width="1.53125" height="1.53125" fill="#DB7756"/>
<rect x="23.25" y="39.0938" width="1.53125" height="1.53125" fill="#DA7756"/>
<rect x="24.7812" y="39.0938" width="1.53125" height="1.53125" fill="#DA7756"/>
<rect x="26.3125" y="39.0938" width="1.53125" height="1.53125" fill="#DA7755"/>
<rect x="27.8438" y="39.0938" width="1.53125" height="1.53125" fill="#D97654"/>
<rect x="29.375" y="39.0938" width="1.53125" height="1.53125" fill="#DB7555"/>
<rect x="30.9062" y="39.0938" width="1.53125" height="1.53125" fill="#DE7352"/>
<rect x="35.5" y="39.0938" width="1.53125" height="1.53125" fill="#DE7352"/>
<rect x="37.0312" y="39.0938" width="1.53125" height="1.53125" fill="#DB7555"/>
<rect x="38.5625" y="39.0938" width="1.53125" height="1.53125" fill="#DB7656"/>
<rect x="40.0938" y="39.0938" width="1.53125" height="1.53125" fill="#DA7756"/>
<rect x="41.625" y="39.0938" width="1.53125" height="1.53125" fill="#DA7756"/>
<rect x="43.1562" y="39.0938" width="1.53125" height="1.53125" fill="#DA7756"/>
<rect x="44.6875" y="39.0938" width="1.53125" height="1.53125" fill="#DA7756"/>
<rect x="46.2188" y="39.0938" width="1.53125" height="1.53125" fill="#D97856"/>
<rect x="17.125" y="40.625" width="1.53125" height="1.53125" fill="#D77858"/>
<rect x="18.6563" y="40.625" width="1.53125" height="1.53125" fill="#DA7756"/>
<rect x="20.1875" y="40.625" width="1.53125" height="1.53125" fill="#DA7756"/>
<rect x="21.7188" y="40.625" width="1.53125" height="1.53125" fill="#DA7756"/>
<rect x="23.25" y="40.625" width="1.53125" height="1.53125" fill="#DA7755"/>
<rect x="24.7812" y="40.625" width="1.53125" height="1.53125" fill="#DB7555"/>
<rect x="41.625" y="40.625" width="1.53125" height="1.53125" fill="#DA7555"/>
<rect x="43.1562" y="40.625" width="1.53125" height="1.53125" fill="#DA7757"/>
<rect x="44.6875" y="40.625" width="1.53125" height="1.53125" fill="#DA7756"/>
<rect x="46.2188" y="40.625" width="1.53125" height="1.53125" fill="#DA7756"/>
<rect x="47.75" y="40.625" width="1.53125" height="1.53125" fill="#DA7756"/>
<rect x="49.2812" y="40.625" width="1.53125" height="1.53125" fill="#D77850"/>
<rect x="15.5938" y="42.1562" width="1.53125" height="1.53125" fill="#D77858"/>
<rect x="17.125" y="42.1562" width="1.53125" height="1.53125" fill="#DA7756"/>
<rect x="18.6563" y="42.1562" width="1.53125" height="1.53125" fill="#DA7756"/>
<rect x="20.1875" y="42.1562" width="1.53125" height="1.53125" fill="#D97756"/>
<rect x="21.7188" y="42.1562" width="1.53125" height="1.53125" fill="#DB7555"/>
<rect x="44.6875" y="42.1562" width="1.53125" height="1.53125" fill="#D77858"/>
<rect x="46.2188" y="42.1562" width="1.53125" height="1.53125" fill="#D97756"/>
<rect x="47.75" y="42.1562" width="1.53125" height="1.53125" fill="#DA7756"/>
<rect x="49.2812" y="42.1562" width="1.53125" height="1.53125" fill="#DA7756"/>
<rect x="50.8125" y="42.1562" width="1.53125" height="1.53125" fill="#CF7050"/>
<rect x="15.5938" y="43.6875" width="1.53125" height="1.53125" fill="#DA7757"/>
<rect x="17.125" y="43.6875" width="1.53125" height="1.53125" fill="#DA7756"/>
<rect x="18.6563" y="43.6875" width="1.53125" height="1.53125" fill="#D97756"/>
<rect x="20.1875" y="43.6875" width="1.53125" height="1.53125" fill="#CF7050"/>
<rect x="46.2188" y="43.6875" width="1.53125" height="1.53125" fill="#DF8050"/>
<rect x="47.75" y="43.6875" width="1.53125" height="1.53125" fill="#DA7756"/>
<rect x="49.2812" y="43.6875" width="1.53125" height="1.53125" fill="#DA7756"/>
<rect x="50.8125" y="43.6875" width="1.53125" height="1.53125" fill="#DA7756"/>
<rect x="14.0625" y="45.2188" width="1.53125" height="1.53125" fill="#D77858"/>
<rect x="15.5938" y="45.2188" width="1.53125" height="1.53125" fill="#DA7756"/>
<rect x="17.125" y="45.2188" width="1.53125" height="1.53125" fill="#DA7756"/>
<rect x="18.6563" y="45.2188" width="1.53125" height="1.53125" fill="#D77850"/>
<rect x="47.75" y="45.2188" width="1.53125" height="1.53125" fill="#D77858"/>
<rect x="49.2812" y="45.2188" width="1.53125" height="1.53125" fill="#DB7756"/>
<rect x="50.8125" y="45.2188" width="1.53125" height="1.53125" fill="#DA7756"/>
<rect x="52.3438" y="45.2188" width="1.53125" height="1.53125" fill="#D77854"/>
<rect x="14.0625" y="46.7501" width="1.53125" height="1.53125" fill="#DA7757"/>
<rect x="15.5938" y="46.7501" width="1.53125" height="1.53125" fill="#DA7756"/>
<rect x="17.125" y="46.7501" width="1.53125" height="1.53125" fill="#D97654"/>
<rect x="49.2812" y="46.7501" width="1.53125" height="1.53125" fill="#DB7656"/>
<rect x="50.8125" y="46.7501" width="1.53125" height="1.53125" fill="#DA7756"/>
<rect x="52.3438" y="46.7501" width="1.53125" height="1.53125" fill="#DA7755"/>
<rect x="12.5312" y="48.2812" width="1.53125" height="1.53125" fill="#D77858"/>
<rect x="14.0625" y="48.2812" width="1.53125" height="1.53125" fill="#DA7756"/>
<rect x="15.5938" y="48.2812" width="1.53125" height="1.53125" fill="#DA7756"/>
<rect x="17.125" y="48.2812" width="1.53125" height="1.53125" fill="#D77850"/>
<rect x="49.2812" y="48.2812" width="1.53125" height="1.53125" fill="#DF8050"/>
<rect x="50.8125" y="48.2812" width="1.53125" height="1.53125" fill="#DB7756"/>
<rect x="52.3438" y="48.2812" width="1.53125" height="1.53125" fill="#DA7756"/>
<rect x="53.875" y="48.2812" width="1.53125" height="1.53125" fill="#CF7050"/>
<rect x="12.5312" y="49.8125" width="1.53125" height="1.53125" fill="#DB7756"/>
<rect x="14.0625" y="49.8125" width="1.53125" height="1.53125" fill="#DA7756"/>
<rect x="15.5938" y="49.8125" width="1.53125" height="1.53125" fill="#DA7755"/>
<rect x="50.8125" y="49.8125" width="1.53125" height="1.53125" fill="#DB7756"/>
<rect x="52.3438" y="49.8125" width="1.53125" height="1.53125" fill="#DA7756"/>
<rect x="53.875" y="49.8125" width="1.53125" height="1.53125" fill="#DB7656"/>
<rect x="12.5312" y="51.3438" width="1.53125" height="1.53125" fill="#DA7756"/>
<rect x="14.0625" y="51.3438" width="1.53125" height="1.53125" fill="#DA7756"/>
<rect x="15.5938" y="51.3438" width="1.53125" height="1.53125" fill="#DB7555"/>
<rect x="50.8125" y="51.3438" width="1.53125" height="1.53125" fill="#D77854"/>
<rect x="52.3438" y="51.3438" width="1.53125" height="1.53125" fill="#DA7756"/>
<rect x="53.875" y="51.3438" width="1.53125" height="1.53125" fill="#DA7655"/>
<rect x="11" y="52.875" width="1.53125" height="1.53125" fill="#DB7858"/>
<rect x="12.5312" y="52.875" width="1.53125" height="1.53125" fill="#DA7756"/>
<rect x="14.0625" y="52.875" width="1.53125" height="1.53125" fill="#D97756"/>
<rect x="52.3438" y="52.875" width="1.53125" height="1.53125" fill="#DB7756"/>
<rect x="53.875" y="52.875" width="1.53125" height="1.53125" fill="#DA7756"/>
<rect x="55.4063" y="52.875" width="1.53125" height="1.53125" fill="#D77854"/>
<rect x="11" y="54.4062" width="1.53125" height="1.53125" fill="#DA7757"/>
<rect x="12.5312" y="54.4062" width="1.53125" height="1.53125" fill="#DA7756"/>
<rect x="14.0625" y="54.4062" width="1.53125" height="1.53125" fill="#DA7755"/>
<rect x="52.3438" y="54.4062" width="1.53125" height="1.53125" fill="#DB7756"/>
<rect x="53.875" y="54.4062" width="1.53125" height="1.53125" fill="#DA7756"/>
<rect x="55.4063" y="54.4062" width="1.53125" height="1.53125" fill="#DA7656"/>
<rect x="11" y="55.9375" width="1.53125" height="1.53125" fill="#DA7756"/>
<rect x="12.5312" y="55.9375" width="1.53125" height="1.53125" fill="#DA7756"/>
<rect x="14.0625" y="55.9375" width="1.53125" height="1.53125" fill="#DA7756"/>
<rect x="15.5938" y="55.9375" width="1.53125" height="1.53125" fill="#DA7756"/>
<rect x="17.125" y="55.9375" width="1.53125" height="1.53125" fill="#DA7756"/>
<rect x="18.6563" y="55.9375" width="1.53125" height="1.53125" fill="#DA7756"/>
<rect x="20.1875" y="55.9375" width="1.53125" height="1.53125" fill="#DA7756"/>
<rect x="21.7188" y="55.9375" width="1.53125" height="1.53125" fill="#DA7756"/>
<rect x="23.25" y="55.9375" width="1.53125" height="1.53125" fill="#DA7756"/>
<rect x="24.7812" y="55.9375" width="1.53125" height="1.53125" fill="#DA7756"/>
<rect x="26.3125" y="55.9375" width="1.53125" height="1.53125" fill="#DA7756"/>
<rect x="27.8438" y="55.9375" width="1.53125" height="1.53125" fill="#DA7756"/>
<rect x="29.375" y="55.9375" width="1.53125" height="1.53125" fill="#DA7756"/>
<rect x="30.9062" y="55.9375" width="1.53125" height="1.53125" fill="#DA7756"/>
<rect x="32.4375" y="55.9375" width="1.53125" height="1.53125" fill="#DA7756"/>
<rect x="33.9688" y="55.9375" width="1.53125" height="1.53125" fill="#DA7756"/>
<rect x="35.5" y="55.9375" width="1.53125" height="1.53125" fill="#DA7756"/>
<rect x="37.0312" y="55.9375" width="1.53125" height="1.53125" fill="#DA7756"/>
<rect x="38.5625" y="55.9375" width="1.53125" height="1.53125" fill="#DA7756"/>
<rect x="40.0938" y="55.9375" width="1.53125" height="1.53125" fill="#DA7756"/>
<rect x="41.625" y="55.9375" width="1.53125" height="1.53125" fill="#DA7756"/>
<rect x="43.1562" y="55.9375" width="1.53125" height="1.53125" fill="#DA7756"/>
<rect x="44.6875" y="55.9375" width="1.53125" height="1.53125" fill="#DA7756"/>
<rect x="46.2188" y="55.9375" width="1.53125" height="1.53125" fill="#DA7756"/>
<rect x="47.75" y="55.9375" width="1.53125" height="1.53125" fill="#DA7756"/>
<rect x="49.2812" y="55.9375" width="1.53125" height="1.53125" fill="#DA7756"/>
<rect x="50.8125" y="55.9375" width="1.53125" height="1.53125" fill="#DA7756"/>
<rect x="52.3438" y="55.9375" width="1.53125" height="1.53125" fill="#DA7756"/>
<rect x="53.875" y="55.9375" width="1.53125" height="1.53125" fill="#DA7756"/>
<rect x="55.4063" y="55.9375" width="1.53125" height="1.53125" fill="#DA7655"/>
<rect x="11" y="57.4688" width="1.53125" height="1.53125" fill="#D97756"/>
<rect x="12.5312" y="57.4688" width="1.53125" height="1.53125" fill="#DA7756"/>
<rect x="14.0625" y="57.4688" width="1.53125" height="1.53125" fill="#DA7756"/>
<rect x="15.5938" y="57.4688" width="1.53125" height="1.53125" fill="#DA7756"/>
<rect x="17.125" y="57.4688" width="1.53125" height="1.53125" fill="#DA7756"/>
<rect x="18.6563" y="57.4688" width="1.53125" height="1.53125" fill="#DA7756"/>
<rect x="20.1875" y="57.4688" width="1.53125" height="1.53125" fill="#DA7756"/>
<rect x="21.7188" y="57.4688" width="1.53125" height="1.53125" fill="#DA7756"/>
<rect x="23.25" y="57.4688" width="1.53125" height="1.53125" fill="#DA7756"/>
<rect x="24.7812" y="57.4688" width="1.53125" height="1.53125" fill="#DA7756"/>
<rect x="26.3125" y="57.4688" width="1.53125" height="1.53125" fill="#DA7756"/>
<rect x="27.8438" y="57.4688" width="1.53125" height="1.53125" fill="#DA7756"/>
<rect x="29.375" y="57.4688" width="1.53125" height="1.53125" fill="#DA7756"/>
<rect x="30.9062" y="57.4688" width="1.53125" height="1.53125" fill="#DA7756"/>
<rect x="32.4375" y="57.4688" width="1.53125" height="1.53125" fill="#DA7756"/>
<rect x="33.9688" y="57.4688" width="1.53125" height="1.53125" fill="#DA7756"/>
<rect x="35.5" y="57.4688" width="1.53125" height="1.53125" fill="#DA7756"/>
<rect x="37.0312" y="57.4688" width="1.53125" height="1.53125" fill="#DA7756"/>
<rect x="38.5625" y="57.4688" width="1.53125" height="1.53125" fill="#DA7756"/>
<rect x="40.0938" y="57.4688" width="1.53125" height="1.53125" fill="#DA7756"/>
<rect x="41.625" y="57.4688" width="1.53125" height="1.53125" fill="#DA7756"/>
<rect x="43.1562" y="57.4688" width="1.53125" height="1.53125" fill="#DA7756"/>
<rect x="44.6875" y="57.4688" width="1.53125" height="1.53125" fill="#DA7756"/>
<rect x="46.2188" y="57.4688" width="1.53125" height="1.53125" fill="#DA7756"/>
<rect x="47.75" y="57.4688" width="1.53125" height="1.53125" fill="#DA7756"/>
<rect x="49.2812" y="57.4688" width="1.53125" height="1.53125" fill="#DA7756"/>
<rect x="50.8125" y="57.4688" width="1.53125" height="1.53125" fill="#DA7756"/>
<rect x="52.3438" y="57.4688" width="1.53125" height="1.53125" fill="#DA7756"/>
<rect x="53.875" y="57.4688" width="1.53125" height="1.53125" fill="#DA7756"/>
<rect x="55.4063" y="57.4688" width="1.53125" height="1.53125" fill="#D97756"/>
</svg>
