<svg xmlns="http://www.w3.org/2000/svg" width="1447" height="848" viewBox="0 0 1447 848" fill="none"><path d="M688 138H704V146H688Z" fill="#DA7756"/><path d="M680 146H720V154H680Z M736 146H744V154H736Z M760 146H768V154H760Z" fill="#DA7756"/><path d="M632 154H640V162H632Z M664 154H704V162H664Z M712 154H720V162H712Z M728 154H768V162H728Z" fill="#DA7756"/><path d="M608 162H632V170H608Z M640 162H648V170H640Z M664 162H680V170H664Z M688 162H720V170H688Z M728 162H760V170H728Z M784 162H824V170H784Z" fill="#DA7756"/><path d="M616 170H656V178H616Z M672 170H688V178H672Z M696 170H704V178H696Z M712 170H768V178H712Z M784 170H792V178H784Z M800 170H808V178H800Z M816 170H824V178H816Z" fill="#DA7756"/><path d="M632 178H776V186H632Z M784 178H816V186H784Z" fill="#DA7756"/><path d="M608 186H616V194H608Z M624 186H680V194H624Z M688 186H712V194H688Z M720 186H816V194H720Z" fill="#DA7756"/><path d="M592 194H624V202H592Z M632 194H640V202H632Z M648 194H656V202H648Z M664 194H688V202H664Z M696 194H720V202H696Z M728 194H736V202H728Z M744 194H784V202H744Z" fill="#DA7756"/><path d="M584 202H592V210H584Z M600 202H640V210H600Z M648 202H680V210H648Z M688 202H728V210H688Z M736 202H760V210H736Z M768 202H808V210H768Z" fill="#DA7756"/><path d="M584 210H616V218H584Z M624 210H640V218H624Z M648 210H712V218H648Z M720 210H792V218H720Z M816 210H840V218H816Z" fill="#DA7756"/><path d="M576 218H592V226H576Z M600 218H632V226H600Z M640 218H648V226H640Z M656 218H664V226H656Z M672 218H680V226H672Z M688 218H712V226H688Z M720 218H792V226H720Z M800 218H832V226H800Z" fill="#DA7756"/><path d="M584 226H672V234H584Z M688 226H696V234H688Z M712 226H720V234H712Z M744 226H768V234H744Z M784 226H824V234H784Z" fill="#DA7756"/><path d="M600 234H640V242H600Z M656 234H752V242H656Z M760 234H776V242H760Z M792 234H832V242H792Z" fill="#DA7756"/><path d="M480 242H544V250H480Z M624 242H704V250H624Z M720 242H728V250H720Z M744 242H840V250H744Z M872 242H936V250H872Z" fill="#DA7756"/><path d="M472 250H552V258H472Z M592 250H624V258H592Z M632 250H712V258H632Z M720 250H744V258H720Z M752 250H784V258H752Z M792 250H800V258H792Z M808 250H824V258H808Z M864 250H936V258H864Z" fill="#DA7756"/><path d="M184 258H272V266H184Z M472 258H480V266H472Z M544 258H552V266H544Z M584 258H808V266H584Z M816 258H824V266H816Z M856 258H864V266H856Z M872 258H880V266H872Z M928 258H944V266H928Z M1160 258H1248V266H1160Z" fill="#DA7756"/><path d="M168 266H192V274H168Z M232 266H256V274H232Z M264 266H288V274H264Z M472 266H488V274H472Z M544 266H552V274H544Z M608 266H648V274H608Z M672 266H712V274H672Z M720 266H768V274H720Z M776 266H832V274H776Z M856 266H864V274H856Z M872 266H880V274H872Z M928 266H944V274H928Z M1144 266H1168V274H1144Z M1176 266H1200V274H1176Z M1232 266H1264V274H1232Z" fill="#DA7756"/><path d="M152 274H176V282H152Z M192 274H296V282H192Z M464 274H480V282H464Z M544 274H552V282H544Z M592 274H720V282H592Z M728 274H744V282H728Z M760 274H816V282H760Z M856 274H864V282H856Z M872 274H880V282H872Z M936 274H944V282H936Z M1128 274H1232V282H1128Z M1256 274H1272V282H1256Z" fill="#DA7756"/><path d="M144 282H160V290H144Z M184 282H216V290H184Z M272 282H304V290H272Z M464 282H480V290H464Z M488 282H536V290H488Z M544 282H560V290H544Z M592 282H608V290H592Z M632 282H656V290H632Z M672 282H784V290H672Z M800 282H816V290H800Z M856 282H864V290H856Z M872 282H928V290H872Z M936 282H944V290H936Z M1128 282H1168V290H1128Z M1216 282H1248V290H1216Z M1264 282H1288V290H1264Z" fill="#DA7756"/><path d="M136 290H152V298H136Z M168 290H192V298H168Z M288 290H312V298H288Z M464 290H560V298H464Z M584 290H600V298H584Z M624 290H640V298H624Z M648 290H656V298H648Z M664 290H760V298H664Z M768 290H800V298H768Z M856 290H944V298H856Z M1120 290H1152V298H1120Z M1240 290H1256V298H1240Z M1272 290H1288V298H1272Z" fill="#DA7756"/><path d="M136 298H152V306H136Z M160 298H184V306H160Z M296 298H312V306H296Z M464 298H552V306H464Z M616 298H632V306H616Z M640 298H680V306H640Z M688 298H704V306H688Z M736 298H752V306H736Z M768 298H800V306H768Z M856 298H864V306H856Z M872 298H944V306H872Z M1112 298H1144V306H1112Z M1248 298H1264V306H1248Z M1280 298H1296V306H1280Z" fill="#DA7756"/><path d="M136 306H144V314H136Z M152 306H176V314H152Z M296 306H320V314H296Z M472 306H552V314H472Z M624 306H640V314H624Z M664 306H736V314H664Z M744 306H760V314H744Z M784 306H800V314H784Z M856 306H944V314H856Z M1112 306H1136V314H1112Z M1256 306H1272V314H1256Z M1288 306H1296V314H1288Z" fill="#DA7756"/><path d="M128 314H144V322H128Z M152 314H176V322H152Z M304 314H320V322H304Z M472 314H552V322H472Z M648 314H656V322H648Z M664 314H688V322H664Z M728 314H736V322H728Z M744 314H760V322H744Z M864 314H872V322H864Z M880 314H936V322H880Z M1104 314H1136V322H1104Z M1256 314H1272V322H1256Z M1288 314H1296V322H1288Z" fill="#DA7756"/><path d="M128 322H144V330H128Z M152 322H184V330H152Z M304 322H328V330H304Z M480 322H520V330H480Z M528 322H544V330H528Z M656 322H680V330H656Z M736 322H744V330H736Z M752 322H768V330H752Z M872 322H888V330H872Z M896 322H936V330H896Z M1104 322H1136V330H1104Z M1248 322H1272V330H1248Z M1288 322H1304V330H1288Z" fill="#DA7756"/><path d="M128 330H144V338H128Z M152 330H168V338H152Z M176 330H184V338H176Z M312 330H328V338H312Z M496 330H528V338H496Z M576 330H584V338H576Z M592 330H664V338H592Z M672 330H680V338H672Z M744 330H816V338H744Z M880 330H920V338H880Z M1104 330H1128V338H1104Z M1248 330H1256V338H1248Z M1264 330H1272V338H1264Z M1288 330H1304V338H1288Z" fill="#DA7756"/><path d="M128 338H144V346H128Z M152 338H168V346H152Z M176 338H184V346H176Z M312 338H328V346H312Z M496 338H624V346H496Z M648 338H680V346H648Z M744 338H752V346H744Z M760 338H776V346H760Z M792 338H920V346H792Z M1096 338H1128V346H1096Z M1248 338H1256V346H1248Z M1264 338H1272V346H1264Z M1280 338H1304V346H1280Z" fill="#DA7756"/><path d="M128 346H152V354H128Z M160 346H168V354H160Z M176 346H184V354H176Z M312 346H336V354H312Z M424 346H432V354H424Z M440 346H528V354H440Z M648 346H680V354H648Z M752 346H776V354H752Z M888 346H968V354H888Z M1096 346H1128V354H1096Z M1240 346H1256V354H1240Z M1264 346H1272V354H1264Z M1280 346H1296V354H1280Z" fill="#DA7756"/><path d="M136 354H152V362H136Z M160 354H192V362H160Z M312 354H336V362H312Z M392 354H440V362H392Z M504 354H512V362H504Z M520 354H528V362H520Z M648 354H696V362H648Z M712 354H720V362H712Z M728 354H776V362H728Z M888 354H912V362H888Z M960 354H1016V362H960Z M1096 354H1128V362H1096Z M1240 354H1272V362H1240Z M1280 354H1296V362H1280Z" fill="#DA7756"/><path d="M136 362H176V370H136Z M184 362H192V370H184Z M320 362H336V370H320Z M360 362H400V370H360Z M408 362H416V370H408Z M504 362H512V370H504Z M520 362H528V370H520Z M648 362H776V370H648Z M888 362H912V370H888Z M992 362H1000V370H992Z M1008 362H1048V370H1008Z M1096 362H1128V370H1096Z M1240 362H1248V370H1240Z M1256 362H1296V370H1256Z" fill="#DA7756"/><path d="M136 370H176V378H136Z M184 370H192V378H184Z M320 370H368V378H320Z M384 370H472V378H384Z M504 370H512V378H504Z M520 370H528V378H520Z M648 370H664V378H648Z M672 370H752V378H672Z M760 370H776V378H760Z M888 370H912V378H888Z M944 370H1032V378H944Z M1040 370H1080V378H1040Z M1096 370H1120V378H1096Z M1240 370H1248V378H1240Z M1256 370H1296V378H1256Z" fill="#DA7756"/><path d="M136 378H176V386H136Z M184 378H192V386H184Z M320 378H344V386H320Z M360 378H384V386H360Z M472 378H480V386H472Z M496 378H512V386H496Z M520 378H528V386H520Z M648 378H768V386H648Z M888 378H920V386H888Z M928 378H944V386H928Z M1024 378H1048V386H1024Z M1072 378H1120V386H1072Z M1232 378H1248V386H1232Z M1256 378H1296V386H1256Z" fill="#DA7756"/><path d="M136 386H160V394H136Z M168 386H200V394H168Z M296 386H320V394H296Z M344 386H368V394H344Z M456 386H512V394H456Z M528 386H552V394H528Z M656 386H736V394H656Z M744 386H768V394H744Z M864 386H952V394H864Z M1040 386H1072V394H1040Z M1096 386H1120V394H1096Z M1232 386H1248V394H1232Z M1256 386H1264V394H1256Z M1272 386H1296V394H1272Z" fill="#DA7756"/><path d="M144 394H184V402H144Z M192 394H200V402H192Z M288 394H304V402H288Z M320 394H352V402H320Z M440 394H488V402H440Z M512 394H560V402H512Z M664 394H688V402H664Z M736 394H760V402H736Z M856 394H904V402H856Z M928 394H960V402H928Z M1056 394H1072V402H1056Z M1080 394H1096V402H1080Z M1112 394H1136V402H1112Z M1232 394H1288V402H1232Z" fill="#DA7756"/><path d="M144 402H184V410H144Z M192 402H200V410H192Z M280 402H296V410H280Z M304 402H320V410H304Z M336 402H408V410H336Z M432 402H464V410H432Z M480 402H488V410H480Z M520 402H528V410H520Z M560 402H568V410H560Z M680 402H752V410H680Z M848 402H864V410H848Z M888 402H896V410H888Z M920 402H928V410H920Z M944 402H952V410H944Z M960 402H976V410H960Z M1016 402H1072V410H1016Z M1096 402H1112V410H1096Z M1120 402H1144V410H1120Z M1232 402H1240V410H1232Z M1248 402H1288V410H1248Z" fill="#DA7756"/><path d="M144 410H184V418H144Z M192 410H200V418H192Z M272 410H288V418H272Z M304 410H320V418H304Z M344 410H384V418H344Z M400 410H472V418H400Z M496 410H528V418H496Z M544 410H584V418H544Z M832 410H848V418H832Z M864 410H872V418H864Z M888 410H904V418H888Z M936 410H1072V418H936Z M1096 410H1112V418H1096Z M1136 410H1144V418H1136Z M1232 410H1240V418H1232Z M1248 410H1288V418H1248Z" fill="#DA7756"/><path d="M144 418H208V426H144Z M272 418H280V426H272Z M312 418H344V426H312Z M376 418H440V426H376Z M448 418H456V426H448Z M480 418H520V426H480Z M528 418H576V426H528Z M832 418H864V426H832Z M872 418H880V426H872Z M896 418H928V426H896Z M960 418H1048V426H960Z M1080 418H1104V426H1080Z M1136 418H1152V426H1136Z M1224 418H1240V426H1224Z M1248 418H1288V426H1248Z" fill="#DA7756"/><path d="M152 426H208V434H152Z M272 426H280V434H272Z M328 426H568V434H328Z M848 426H880V434H848Z M888 426H976V434H888Z M1000 426H1008V434H1000Z M1016 426H1024V434H1016Z M1040 426H1096V434H1040Z M1136 426H1152V434H1136Z M1224 426H1256V434H1224Z M1264 426H1280V434H1264Z" fill="#DA7756"/><path d="M152 434H192V442H152Z M200 434H208V442H200Z M264 434H280V442H264Z M288 434H296V442H288Z M320 434H560V442H320Z M856 434H896V442H856Z M904 434H920V442H904Z M928 434H1072V442H928Z M1080 434H1096V442H1080Z M1136 434H1152V442H1136Z M1224 434H1280V442H1224Z" fill="#DA7756"/><path d="M152 442H192V450H152Z M200 442H208V450H200Z M264 442H280V450H264Z M288 442H296V450H288Z M344 442H400V450H344Z M456 442H480V450H456Z M488 442H512V450H488Z M888 442H912V450H888Z M928 442H952V450H928Z M968 442H1080V450H968Z M1136 442H1152V450H1136Z M1224 442H1232V450H1224Z M1240 442H1280V450H1240Z" fill="#DA7756"/><path d="M160 450H176V458H160Z M184 450H208V458H184Z M264 450H280V458H264Z M288 450H296V458H288Z M440 450H456V458H440Z M464 450H496V458H464Z M904 450H936V458H904Z M952 450H960V458H952Z M984 450H1040V458H984Z M1136 450H1160V458H1136Z M1224 450H1232V458H1224Z M1240 450H1280V458H1240Z" fill="#DA7756"/><path d="M160 458H216V466H160Z M264 458H280V466H264Z M288 458H296V466H288Z M440 458H472V466H440Z M920 458H968V466H920Z M1088 458H1120V466H1088Z M1144 458H1160V466H1144Z M1224 458H1272V466H1224Z" fill="#DA7756"/><path d="M160 466H216V474H160Z M264 466H280V474H264Z M288 466H296V474H288Z M368 466H384V474H368Z M1064 466H1096V474H1064Z M1112 466H1120V474H1112Z M1144 466H1160V474H1144Z M1216 466H1272V474H1216Z" fill="#DA7756"/><path d="M160 474H216V482H160Z M248 474H280V482H248Z M288 474H296V482H288Z M392 474H424V482H392Z M984 474H1008V482H984Z M1040 474H1064V482H1040Z M1112 474H1120V482H1112Z M1144 474H1192V482H1144Z M1216 474H1272V482H1216Z" fill="#DA7756"/><path d="M168 482H184V490H168Z M192 482H216V490H192Z M224 482H280V490H224Z M288 482H296V490H288Z M336 482H344V490H336Z M424 482H480V490H424Z M944 482H984V490H944Z M1112 482H1120V490H1112Z M1144 482H1160V490H1144Z M1168 482H1272V490H1168Z" fill="#DA7756"/><path d="M168 490H240V498H168Z M256 490H272V498H256Z M280 490H296V498H280Z M336 490H344V498H336Z M472 490H568V498H472Z M800 490H808V498H800Z M880 490H944V498H880Z M1112 490H1120V498H1112Z M1144 490H1160V498H1144Z M1192 490H1272V498H1192Z" fill="#DA7756"/><path d="M168 498H216V506H168Z M264 498H272V506H264Z M280 498H296V506H280Z M328 498H344V506H328Z M544 498H800V506H544Z M992 498H1000V506H992Z M1112 498H1128V506H1112Z M1144 498H1160V506H1144Z M1216 498H1264V506H1216Z" fill="#DA7756"/><path d="M168 506H216V514H168Z M256 506H272V514H256Z M280 506H288V514H280Z M328 506H344V514H328Z M992 506H1000V514H992Z M1112 506H1128V514H1112Z M1144 506H1168V514H1144Z M1216 506H1240V514H1216Z M1248 506H1264V514H1248Z" fill="#DA7756"/><path d="M168 514H240V522H168Z M256 514H272V522H256Z M280 514H288V522H280Z M328 514H344V522H328Z M352 514H360V522H352Z M992 514H1000V522H992Z M1112 514H1128V522H1112Z M1144 514H1168V522H1144Z M1192 514H1216V522H1192Z M1224 514H1240V522H1224Z M1248 514H1264V522H1248Z" fill="#DA7756"/><path d="M176 522H192V530H176Z M200 522H216V530H200Z M232 522H272V530H232Z M280 522H288V530H280Z M328 522H344V530H328Z M352 522H360V530H352Z M760 522H768V530H760Z M992 522H1000V530H992Z M1120 522H1128V530H1120Z M1152 522H1200V530H1152Z M1224 522H1264V530H1224Z" fill="#DA7756"/><path d="M176 530H192V538H176Z M200 530H216V538H200Z M256 530H272V538H256Z M280 530H288V538H280Z M328 530H344V538H328Z M352 530H360V538H352Z M456 530H464V538H456Z M560 530H568V538H560Z M760 530H768V538H760Z M992 530H1000V538H992Z M1120 530H1128V538H1120Z M1152 530H1176V538H1152Z M1224 530H1264V538H1224Z" fill="#DA7756"/><path d="M176 538H216V546H176Z M256 538H288V546H256Z M328 538H344V546H328Z M352 538H360V546H352Z M456 538H464V546H456Z M560 538H568V546H560Z M760 538H768V546H760Z M992 538H1000V546H992Z M1120 538H1136V546H1120Z M1152 538H1168V546H1152Z M1216 538H1264V546H1216Z" fill="#DA7756"/><path d="M176 546H232V554H176Z M256 546H288V554H256Z M328 546H344V554H328Z M352 546H360V554H352Z M456 546H464V554H456Z M560 546H568V554H560Z M760 546H768V554H760Z M992 546H1008V554H992Z M1120 546H1136V554H1120Z M1152 546H1168V554H1152Z M1208 546H1264V554H1208Z" fill="#DA7756"/><path d="M176 554H208V562H176Z M216 554H248V562H216Z M256 554H288V562H256Z M328 554H344V562H328Z M352 554H360V562H352Z M456 554H464V562H456Z M560 554H568V562H560Z M760 554H768V562H760Z M992 554H1008V562H992Z M1120 554H1136V562H1120Z M1152 554H1176V562H1152Z M1184 554H1216V562H1184Z M1224 554H1256V562H1224Z" fill="#DA7756"/><path d="M184 562H216V570H184Z M232 562H288V570H232Z M328 562H344V570H328Z M352 562H360V570H352Z M456 562H464V570H456Z M560 562H576V570H560Z M760 562H768V570H760Z M992 562H1008V570H992Z M1120 562H1136V570H1120Z M1152 562H1200V570H1152Z M1216 562H1256V570H1216Z" fill="#DA7756"/><path d="M184 570H240V578H184Z M256 570H288V578H256Z M328 570H344V578H328Z M352 570H360V578H352Z M456 570H464V578H456Z M568 570H576V578H568Z M760 570H768V578H760Z M992 570H1008V578H992Z M1128 570H1136V578H1128Z M1152 570H1176V578H1152Z M1192 570H1256V578H1192Z" fill="#DA7756"/><path d="M184 578H288V586H184Z M328 578H344V586H328Z M352 578H360V586H352Z M456 578H464V586H456Z M568 578H576V586H568Z M760 578H768V586H760Z M992 578H1008V586H992Z M1128 578H1144V586H1128Z M1152 578H1216V586H1152Z M1224 578H1256V586H1224Z" fill="#DA7756"/><path d="M184 586H216V594H184Z M232 586H288V594H232Z M328 586H344V594H328Z M456 586H464V594H456Z M568 586H576V594H568Z M760 586H768V594H760Z M1000 586H1008V594H1000Z M1128 586H1144V594H1128Z M1152 586H1192V594H1152Z M1208 586H1256V594H1208Z" fill="#DA7756"/><path d="M184 594H232V602H184Z M248 594H288V602H248Z M328 594H344V602H328Z M360 594H368V602H360Z M456 594H464V602H456Z M568 594H576V602H568Z M760 594H776V602H760Z M1000 594H1016V602H1000Z M1128 594H1176V602H1128Z M1184 594H1256V602H1184Z" fill="#DA7756"/><path d="M184 602H200V610H184Z M208 602H288V610H208Z M328 602H344V610H328Z M360 602H368V610H360Z M456 602H464V610H456Z M568 602H584V610H568Z M760 602H776V610H760Z M960 602H968V610H960Z M1000 602H1016V610H1000Z M1128 602H1208V610H1128Z M1216 602H1232V610H1216Z M1240 602H1256V610H1240Z" fill="#DA7756"/><path d="M184 610H200V618H184Z M208 610H224V618H208Z M240 610H280V618H240Z M328 610H352V618H328Z M360 610H368V618H360Z M456 610H464V618H456Z M568 610H584V618H568Z M760 610H776V618H760Z M952 610H968V618H952Z M1000 610H1016V618H1000Z M1128 610H1184V618H1128Z M1216 610H1232V618H1216Z M1240 610H1256V618H1240Z" fill="#DA7756"/><path d="M184 618H200V626H184Z M208 618H224V626H208Z M256 618H280V626H256Z M328 618H352V626H328Z M456 618H464V626H456Z M568 618H584V626H568Z M760 618H776V626H760Z M952 618H968V626H952Z M1000 618H1016V626H1000Z M1136 618H1160V626H1136Z M1216 618H1232V626H1216Z M1240 618H1256V626H1240Z" fill="#DA7756"/><path d="M184 626H200V634H184Z M208 626H224V634H208Z M264 626H280V634H264Z M328 626H352V634H328Z M456 626H464V634H456Z M568 626H584V634H568Z M760 626H776V634H760Z M952 626H968V634H952Z M1000 626H1016V634H1000Z M1136 626H1152V634H1136Z M1216 626H1256V634H1216Z" fill="#DA7756"/><path d="M184 634H192V642H184Z M208 634H224V642H208Z M264 634H288V642H264Z M328 634H352V642H328Z M456 634H464V642H456Z M568 634H584V642H568Z M760 634H776V642H760Z M952 634H968V642H952Z M1008 634H1024V642H1008Z M1136 634H1152V642H1136Z M1216 634H1240V642H1216Z M1248 634H1256V642H1248Z" fill="#DA7756"/><path d="M184 642H192V650H184Z M208 642H224V650H208Z M272 642H296V650H272Z M328 642H352V650H328Z M456 642H464V650H456Z M576 642H584V650H576Z M760 642H776V650H760Z M960 642H968V650H960Z M1008 642H1024V650H1008Z M1128 642H1152V650H1128Z M1216 642H1240V650H1216Z M1248 642H1256V650H1248Z" fill="#DA7756"/><path d="M208 650H216V658H208Z M280 650H352V658H280Z M456 650H464V658H456Z M576 650H592V658H576Z M760 650H784V658H760Z M960 650H968V658H960Z M1008 650H1024V658H1008Z M1112 650H1144V658H1112Z M1216 650H1240V658H1216Z" fill="#DA7756"/><path d="M296 658H352V666H296Z M456 658H464V666H456Z M576 658H592V666H576Z M760 658H784V666H760Z M960 658H968V666H960Z M1008 658H1032V666H1008Z M1072 658H1128V666H1072Z M1224 658H1232V666H1224Z" fill="#DA7756"/><path d="M336 666H352V674H336Z M456 666H464V674H456Z M576 666H592V674H576Z M760 666H784V674H760Z M960 666H968V674H960Z M1016 666H1104V674H1016Z" fill="#DA7756"/><path d="M336 674H360V682H336Z M456 674H464V682H456Z M576 674H592V682H576Z M768 674H784V682H768Z M960 674H976V682H960Z M1016 674H1040V682H1016Z" fill="#DA7756"/><path d="M344 682H376V690H344Z M456 682H464V690H456Z M584 682H592V690H584Z M768 682H784V690H768Z M960 682H1040V690H960Z" fill="#DA7756"/><path d="M360 690H464V698H360Z M584 690H600V698H584Z M768 690H816V698H768Z M960 690H1024V698H960Z" fill="#DA7756"/><path d="M376 698H472V706H376Z M568 698H600V706H568Z M768 698H840V706H768Z M960 698H992V706H960Z" fill="#DA7756"/><path d="M456 706H504V714H456Z M528 706H616V714H528Z M760 706H792V714H760Z M824 706H872V714H824Z M944 706H976V714H944Z" fill="#DA7756"/><path d="M472 714H568V722H472Z M600 714H640V722H600Z M744 714H792V722H744Z M848 714H968V722H848Z" fill="#DA7756"/><path d="M616 722H776V730H616Z M880 722H936V730H880Z" fill="#DA7756"/><path d="M648 730H752V738H648Z" fill="#DA7756"/></svg>