<svg width="154" height="154" viewBox="0 0 154 154" fill="none" xmlns="http://www.w3.org/2000/svg">
<path d="M68 24H73V29H68V24Z" fill="#DA7756"/>
<path d="M73 24H78V29H73V24Z" fill="#DA7756"/>
<path d="M78 24H83V29H78V24Z" fill="#DA7756"/>
<path d="M83 24H88V29H83V24Z" fill="#DA7756"/>
<path d="M88 24H93V29H88V24Z" fill="#DA7756"/>
<path d="M68 29H73V34H68V29Z" fill="#DA7756"/>
<path d="M73 29H78V34H73V29Z" fill="#DA7756"/>
<path d="M78 29H83V34H78V29Z" fill="#DA7756"/>
<path d="M83 29H88V34H83V29Z" fill="#DA7756"/>
<path d="M88 29H93V34H88V29Z" fill="#DA7756"/>
<path d="M78 34H83V39H78V34Z" fill="#DA7756"/>
<path d="M78 34H83V39H78V34Z" fill="#DA7756"/>
<path d="M63 15H68V20H63V15Z" fill="#DA7756"/>
<path d="M58 15H63V20H58V15Z" fill="#DA7756"/>
<path d="M53 15H58V20H53V15Z" fill="#DA7756"/>
<path d="M48 20H53V25H48V20Z" fill="#DA7756"/>
<path d="M43 25H48V30H43V25Z" fill="#DA7756"/>
<path d="M43 30H48V35H43V30Z" fill="#DA7756"/>
<path d="M43 35H48V40H43V35Z" fill="#DA7756"/>
<path d="M78 34H83V39H78V34Z" fill="#DA7756"/>
<path d="M78 34H83V39H78V34Z" fill="#DA7756"/>
<path d="M78 19H83V24H78V19Z" fill="#DA7756"/>
<path d="M68 19H73V24H68V19Z" fill="#DA7756"/>
<path d="M88 19H93V24H88V19Z" fill="#DA7756"/>
<path d="M93 15H98V20H93V15Z" fill="#DA7756"/>
<path d="M98 15H103V20H98V15Z" fill="#DA7756"/>
<path d="M103 15H108V20H103V15Z" fill="#DA7756"/>
<path d="M108 20H113V25H108V20Z" fill="#DA7756"/>
<path d="M113 24H118V29H113V24Z" fill="#DA7756"/>
<path d="M113 29H118V34H113V29Z" fill="#DA7756"/>
<path d="M113 34H118V39H113V34Z" fill="#DA7756"/>
<path d="M93 29H98V34H93V29Z" fill="#DA7756"/>
<path d="M93 34H98V39H93V34Z" fill="#DA7756"/>
<path d="M98 34H103V39H98V34Z" fill="#DA7756"/>
<path d="M98 29H103V34H98V29Z" fill="#DA7756"/>
<path d="M103 34H108V39H103V34Z" fill="#DA7756"/>
<path d="M103 39H108V44H103V39Z" fill="#DA7756"/>
<path d="M98 44H103V49H98V44Z" fill="#DA7756"/>
<path d="M108 39H113V44H108V39Z" fill="#DA7756"/>
<path d="M108 44H113V49H108V44Z" fill="#DA7756"/>
<path d="M113 44H118V49H113V44Z" fill="#DA7756"/>
<path d="M118 59H123V64H118V59Z" fill="#DA7756"/>
<path d="M118 64H123V69H118V64Z" fill="#DA7756"/>
<path d="M113 69H118V74H113V69Z" fill="#DA7756"/>
<path d="M118 69H123V74H118V69Z" fill="#DA7756"/>
<path d="M113 74H118V79H113V74Z" fill="#DA7756"/>
<path d="M118 74H123V79H118V74Z" fill="#DA7756"/>
<path d="M113 79H118V84H113V79Z" fill="#DA7756"/>
<path d="M109 79H114V84H109V79Z" fill="#DA7756"/>
<path d="M113 84H118V89H113V84Z" fill="#DA7756"/>
<path d="M109 84H114V89H109V84Z" fill="#DA7756"/>
<path d="M109 89H114V94H109V89Z" fill="#DA7756"/>
<path d="M104 88H109V94H104V88Z" fill="#DA7756"/>
<path d="M99 84H104V89H99V84Z" fill="#DA7756"/>
<path d="M104 94H109V99H104V94Z" fill="#DA7756"/>
<path d="M99 94H104V99H99V94Z" fill="#DA7756"/>
<path d="M99 99H104V104H99V99Z" fill="#DA7756"/>
<path d="M94 94H99V99H94V94Z" fill="#DA7756"/>
<path d="M94 99H99V104H94V99Z" fill="#DA7756"/>
<path d="M89 99H94V104H89V99Z" fill="#DA7756"/>
<path d="M84 99H89V104H84V99Z" fill="#DA7756"/>
<path d="M79 99H84V104H79V99Z" fill="#DA7756"/>
<path d="M79 94H84V99H79V94Z" fill="#DA7756"/>
<path d="M89 104H94V109H89V104Z" fill="#DA7756"/>
<path d="M84 104H89V109H84V104Z" fill="#DA7756"/>
<path d="M79 104H84V109H79V104Z" fill="#DA7756"/>
<path d="M74 104H79V109H74V104Z" fill="#DA7756"/>
<path d="M74 99H79V104H74V99Z" fill="#DA7756"/>
<path d="M69 99H74V104H69V99Z" fill="#DA7756"/>
<path d="M69 104H74V109H69V104Z" fill="#DA7756"/>
<path d="M64 99H69V104H64V99Z" fill="#DA7756"/>
<path d="M64 94H69V99H64V94Z" fill="#DA7756"/>
<path d="M59 99H64V104H59V99Z" fill="#DA7756"/>
<path d="M59 94H64V99H59V94Z" fill="#DA7756"/>
<path d="M54 94H59V99H54V94Z" fill="#DA7756"/>
<path d="M54 89H59V94H54V89Z" fill="#DA7756"/>
<path d="M49 89H54V94H49V89Z" fill="#DA7756"/>
<path d="M49 84H54V89H49V84Z" fill="#DA7756"/>
<path d="M44 84H49V89H44V84Z" fill="#DA7756"/>
<path d="M44 79H49V84H44V79Z" fill="#DA7756"/>
<path d="M49 79H54V84H49V79Z" fill="#DA7756"/>
<path d="M44 74H49V79H44V74Z" fill="#DA7756"/>
<path d="M44 69H49V74H44V69Z" fill="#DA7756"/>
<path d="M39 74H44V79H39V74Z" fill="#DA7756"/>
<path d="M39 69H44V74H39V69Z" fill="#DA7756"/>
<path d="M39 64H44V69H39V64Z" fill="#DA7756"/>
<path d="M44 64H49V69H44V64Z" fill="#DA7756"/>
<path d="M49 64H54V69H49V64Z" fill="#DA7756"/>
<path d="M44 59H49V64H44V59Z" fill="#DA7756"/>
<path d="M39 59H44V64H39V59Z" fill="#DA7756"/>
<path d="M44 54H49V59H44V54Z" fill="#DA7756"/>
<path d="M39 54H44V59H39V54Z" fill="#DA7756"/>
<path d="M44 49H49V54H44V49Z" fill="#DA7756"/>
<path d="M49 49H54V54H49V49Z" fill="#DA7756"/>
<path d="M44 44H49V49H44V44Z" fill="#DA7756"/>
<path d="M49 44H54V49H49V44Z" fill="#DA7756"/>
<path d="M47 39H54V44H47V39Z" fill="#DA7756"/>
<path d="M54 39H59V44H54V39Z" fill="#DA7756"/>
<path d="M58 44H63V49H58V44Z" fill="#DA7756"/>
<path d="M52 34H59V39H52V34Z" fill="#DA7756"/>
<path d="M59 34H64V39H59V34Z" fill="#DA7756"/>
<path d="M64 34H69V39H64V34Z" fill="#DA7756"/>
<path d="M63 29H68V34H63V29Z" fill="#DA7756"/>
<path d="M58 29H63V34H58V29Z" fill="#DA7756"/>
<path d="M59 84H64V89H59V84Z" fill="#DA7756"/>
<path d="M108 49H113V54H108V49Z" fill="#DA7756"/>
<path d="M113 49H118V54H113V49Z" fill="#DA7756"/>
<path d="M113 54H118V59H113V54Z" fill="#DA7756"/>
<path d="M118 54H123V59H118V54Z" fill="#DA7756"/>
<path d="M113 59H118V64H113V59Z" fill="#DA7756"/>
<path d="M113 64H118V69H113V64Z" fill="#DA7756"/>
<path d="M108 64H113V69H108V64Z" fill="#DA7756"/>
<path d="M78 64H83V69H78V64Z" fill="#DA7756"/>
<path d="M78 59H83V64H78V59Z" fill="#DA7756"/>
<path d="M78 54H83V59H78V54Z" fill="#DA7756"/>
<path d="M78 49H83V54H78V49Z" fill="#DA7756"/>
<path d="M78 44H83V49H78V44Z" fill="#DA7756"/>
<path d="M83 64H88V69H83V64Z" fill="#DA7756"/>
<path d="M88 64H93V69H88V64Z" fill="#DA7756"/>
<path d="M44 49H49V54H44V49Z" fill="#DA7756"/>
</svg>
