<svg width="138" height="138" viewBox="0 0 138 138" fill="none" xmlns="http://www.w3.org/2000/svg">
<path d="M96 28H103V64H96V28Z" fill="#DA7756"/>
<path d="M91 53H96V58H91V53Z" fill="#DA7756"/>
<path d="M96 24H101V29H96V24Z" fill="#DA7756"/>
<path d="M92 22H97V27H92V22Z" fill="#DA7756"/>
<path d="M48 90H53V94H48V90Z" fill="#DA7756"/>
<path d="M48 94H53V99H48V94Z" fill="#DA7756"/>
<path d="M48 99H53V104H48V99Z" fill="#DA7756"/>
<path d="M48 114H53V119H48V114Z" fill="#DA7756"/>
<path d="M48 119H53V124H48V119Z" fill="#DA7756"/>
<path d="M53 116H58V119H53V116Z" fill="#DA7756"/>
<path d="M58 116H63V119H58V116Z" fill="#DA7756"/>
<path d="M63 116H68V119H63V116Z" fill="#DA7756"/>
<path d="M68 116H73V119H68V116Z" fill="#DA7756"/>
<path d="M73 116H78V119H73V116Z" fill="#DA7756"/>
<path d="M78 116H83V119H78V116Z" fill="#DA7756"/>
<path d="M83 116H88V119H83V116Z" fill="#DA7756"/>
<path d="M85 110H90V115H85V110Z" fill="#DA7756"/>
<path d="M85 95H90V100H85V95Z" fill="#DA7756"/>
<path d="M85 90H90V95H85V90Z" fill="#DA7756"/>
<path d="M53 119H58V124H53V119Z" fill="#DA7756"/>
<path d="M58 119H63V124H58V119Z" fill="#DA7756"/>
<path d="M63 119H68V124H63V119Z" fill="#DA7756"/>
<path d="M67 119H72V124H67V119Z" fill="#DA7756"/>
<path d="M71 119H76V124H71V119Z" fill="#DA7756"/>
<path d="M75 119H80V124H75V119Z" fill="#DA7756"/>
<path d="M80 119H85V124H80V119Z" fill="#DA7756"/>
<path d="M85 119H90V124H85V119Z" fill="#DA7756"/>
<path d="M67 103H71V105H67V103Z" fill="#DA7756"/>
<path d="M66 109H71V112H66V109Z" fill="#DA7756"/>
<path d="M67 98H71V103H67V98Z" fill="#DA7756"/>
<path d="M71 93H76V98H71V93Z" fill="#DA7756"/>
<path d="M76 88H81V95H76V88Z" fill="#DA7756"/>
<path d="M63 93H67V98H63V93Z" fill="#DA7756"/>
<path d="M58 88H63V95H58V88Z" fill="#DA7756"/>
<path d="M53 88H58V93H53V88Z" fill="#DA7756"/>
<path d="M85 105H90V110H85V105Z" fill="#DA7756"/>
<path d="M85 114H90V119H85V114Z" fill="#DA7756"/>
<path d="M85 100H90V105H85V100Z" fill="#DA7756"/>
<path d="M71 109H76V114H71V109Z" fill="#DA7756"/>
<path d="M71 112H76V117H71V112Z" fill="#DA7756"/>
<path d="M76 106H81V111H76V106Z" fill="#DA7756"/>
<path d="M81 109H86V114H81V109Z" fill="#DA7756"/>
<path d="M76 111H81V116H76V111Z" fill="#DA7756"/>
<path d="M81 112H86V117H81V112Z" fill="#DA7756"/>
<path d="M63 88H68V93H63V88Z" fill="#DA7756"/>
<path d="M67 93H72V98H67V93Z" fill="#DA7756"/>
<path d="M66 88H71V93H66V88Z" fill="#DA7756"/>
<path d="M71 88H76V93H71V88Z" fill="#DA7756"/>
<path d="M99 93H104V98H99V93Z" fill="#DA7756"/>
<path d="M104 93H109V98H104V93Z" fill="#DA7756"/>
<path d="M99 97H104V102H99V97Z" fill="#DA7756"/>
<path d="M104 97H109V102H104V97Z" fill="#DA7756"/>
<path d="M99 102H104V107H99V102Z" fill="#DA7756"/>
<path d="M104 102H109V107H104V102Z" fill="#DA7756"/>
<path d="M109 97H114V102H109V97Z" fill="#DA7756"/>
<path d="M109 102H114V107H109V102Z" fill="#DA7756"/>
<path d="M114 97H119V102H114V97Z" fill="#DA7756"/>
<path d="M114 102H119V107H114V102Z" fill="#DA7756"/>
<path d="M99 107H104V112H99V107Z" fill="#DA7756"/>
<path d="M104 107H109V112H104V107Z" fill="#DA7756"/>
<path d="M109 107H114V112H109V107Z" fill="#DA7756"/>
<path d="M114 107H119V112H114V107Z" fill="#DA7756"/>
<path d="M119 102H124V107H119V102Z" fill="#DA7756"/>
<path d="M119 107H124V112H119V107Z" fill="#DA7756"/>
<path d="M124 107H129V112H124V107Z" fill="#DA7756"/>
<path d="M32 74H49V79H32V74Z" fill="#DA7756"/>
<path d="M30 77H53V82H30V77Z" fill="#DA7756"/>
<path d="M86 74H105V79H86V74Z" fill="#DA7756"/>
<path d="M35 64H45V74H35V69V64Z" fill="#DA7756"/>
<path d="M40 69H45V74H40V69Z" fill="#DA7756"/>
<path d="M91 64H103V74H91V64Z" fill="#DA7756"/>
<path d="M92 18H97V23H92V18Z" fill="#DA7756"/>
<path d="M87 17H92V22H87V17Z" fill="#DA7756"/>
<path d="M85 15H90V20H85V15Z" fill="#DA7756"/>
<path d="M37 24H42V29H37V24Z" fill="#DA7756"/>
<path d="M39 20H44V25H39V20Z" fill="#DA7756"/>
<path d="M42 18H47V23H42V18Z" fill="#DA7756"/>
<path d="M47 15H89V20H47V15Z" fill="#DA7756"/>
<path d="M86 53H91V58H86V53Z" fill="#DA7756"/>
<path d="M86 48H91V53H86V48Z" fill="#DA7756"/>
<path d="M81 48H86V53H81V48Z" fill="#DA7756"/>
<path d="M76 48H81V53H76V48Z" fill="#DA7756"/>
<path d="M74 45H79V50H74V45Z" fill="#DA7756"/>
<path d="M69 45H74V50H69V45Z" fill="#DA7756"/>
<path d="M67 42H72V47H67V42Z" fill="#DA7756"/>
<path d="M66 39H71V44H66V39Z" fill="#DA7756"/>
<path d="M61 37H66V42H61V37Z" fill="#DA7756"/>
<path d="M58 34H63V39H58V34Z" fill="#DA7756"/>
<path d="M54.5 32.5H59.5V37.5H54.5V32.5Z" fill="#DA7756"/>
<path d="M51 34H56V39H51V34Z" fill="#DA7756"/>
<path d="M48 37H53V42H48V37Z" fill="#DA7756"/>
<path d="M45 39H50V44H45V39Z" fill="#DA7756"/>
<path d="M43 43H48V48H43V43Z" fill="#DA7756"/>
<path d="M41 48H46V53H41V48Z" fill="#DA7756"/>
<path d="M38 52H43V57H38V52Z" fill="#DA7756"/>
<path d="M36 54H41V59H36V54Z" fill="#DA7756"/>
<path d="M35 28H40V64H35V28Z" fill="#DA7756"/>
<path d="M48 100H53V105H48V100Z" fill="#DA7756"/>
<path d="M48 95H53V100H48V95Z" fill="#DA7756"/>
<path d="M48 91H53V96H48V91Z" fill="#DA7756"/>
<path d="M28 98H38V138H28V98Z" fill="#DA7756"/>
<path d="M8 121H28V138H8V121Z" fill="#DA7756"/>
<path d="M23 103H28V108H23V103Z" fill="#DA7756"/>
<path d="M13 108H28V122H13V108Z" fill="#DA7756"/>
<path d="M33 93H38V98H33V93Z" fill="#DA7756"/>
<path d="M28 93H33V98H28V93Z" fill="#DA7756"/>
<path d="M28 98H33V103H28V98Z" fill="#DA7756"/>
<path d="M23 98H28V103H23V98Z" fill="#DA7756"/>
<path d="M18 98H23V103H18V98Z" fill="#DA7756"/>
<path d="M18 103H23V108H18V103Z" fill="#DA7756"/>
<path d="M13 103H18V108H13V103Z" fill="#DA7756"/>
<path d="M13 108H18V113H13V108Z" fill="#DA7756"/>
<path d="M8 108H13V113H8V108Z" fill="#DA7756"/>
<path d="M8 113H13V118H8V113Z" fill="#DA7756"/>
<path d="M8 118H13V123H8V118Z" fill="#DA7756"/>
<path d="M3 118H8V123H3V118Z" fill="#DA7756"/>
<path d="M3 122H8V127H3V122Z" fill="#DA7756"/>
<path d="M3 127H8V132H3V127Z" fill="#DA7756"/>
<path d="M3 132H8V138H3V132Z" fill="#DA7756"/>
<path d="M62 100H67V105H62V100Z" fill="#DA7756"/>
<path d="M57 102H62V107H57V102Z" fill="#DA7756"/>
<path d="M52 104H57V109H52V104Z" fill="#DA7756"/>
<path d="M71 100H76V106H71V100Z" fill="#DA7756"/>
<path d="M75 102H80V107H75V102Z" fill="#DA7756"/>
<path d="M80 104H85V109H80V104Z" fill="#DA7756"/>
<path d="M62 105H67V110H62V105Z" fill="#DA7756"/>
<path d="M57 107H62V112H57V107Z" fill="#DA7756"/>
<path d="M52 109H57V114H52V109Z" fill="#DA7756"/>
<path d="M53 112H58V117H53V112Z" fill="#DA7756"/>
<path d="M57 111H62V116H57V111Z" fill="#DA7756"/>
<path d="M61 111H66V116H61V111Z" fill="#DA7756"/>
<path d="M61 108H66V113H61V108Z" fill="#DA7756"/>
<path d="M71 106H76V111H71V106Z" fill="#DA7756"/>
<path d="M62 110H67V116H62V110Z" fill="#DA7756"/>
<path d="M48 104H53V109H48V104Z" fill="#DA7756"/>
<path d="M48 109H53V114H48V109Z" fill="#DA7756"/>
<path d="M99 112H129V138H99V112Z" fill="#DA7756"/>
<path d="M129 117H134V122H129V117Z" fill="#DA7756"/>
<path d="M129 121H134V138H129V121Z" fill="#DA7756"/>
<path d="M80 88H85V93H80V88Z" fill="#DA7756"/>
<path d="M82 85H87V88H82V85Z" fill="#DA7756"/>
<path d="M50 85H55V88H50V85Z" fill="#DA7756"/>
<path d="M47 81H52V85H47V81Z" fill="#DA7756"/>
<path d="M80 82H85V85H80V82Z" fill="#DA7756"/>
<path d="M52 82H83V86H52V82Z" fill="#DA7756"/>
<path d="M52 82H83V88H52V82Z" fill="#DA7756"/>
<path d="M85 80H90V85H85V80Z" fill="#DA7756"/>
<path d="M89 80H94V85H89V80Z" fill="#DA7756"/>
<path d="M93 80H98V85H93V80Z" fill="#DA7756"/>
<path d="M98 80H103V85H98V80Z" fill="#DA7756"/>
<path d="M103 80H108V85H103V80Z" fill="#DA7756"/>
<path d="M42 81H47V85H42V81Z" fill="#DA7756"/>
<path d="M37 81H42V85H37V81Z" fill="#DA7756"/>
<path d="M32 81H37V85H32V81Z" fill="#DA7756"/>
<path d="M29 80H32V85H29V80Z" fill="#DA7756"/>
<path d="M82 77H86V82H82V77Z" fill="#DA7756"/>
<path d="M80 83H85V88H80V83Z" fill="#DA7756"/>
<path d="M80 83H85V88H80V83Z" fill="#DA7756"/>
<path d="M85 77H107V82H85V77Z" fill="#DA7756"/>
<path d="M47 20H96V34H47V20Z" fill="#DA7756"/>
<path d="M36 35H43V52H36V35Z" fill="#DA7756"/>
<path d="M43 23H48V28H43V23Z" fill="#DA7756"/>
<path d="M38 25H51V34H38V25Z" fill="#DA7756"/>
<path d="M40 32H48V43H40V32Z" fill="#DA7756"/>
<path d="M46 32H51V37H46V32Z" fill="#DA7756"/>
<path d="M62 32H97V39H62V32Z" fill="#DA7756"/>
<path d="M70 39H97V44H70V39Z" fill="#DA7756"/>
<path d="M72 28H97V47H72V28Z" fill="#DA7756"/>
<path d="M79 45H98V53H79V45Z" fill="#DA7756"/>
</svg>
