<!DOCTYPE svg PUBLIC "-//W3C//DTD SVG 1.1//EN" "http://www.w3.org/Graphics/SVG/1.1/DTD/svg11.dtd">
<!-- Uploaded to: SVG Repo, www.svgrepo.com, Transformed by: SVG Repo Mixer Tools -->
<svg fill="#F2F6FF" version="1.1" id="Layer_1" xmlns="http://www.w3.org/2000/svg" xmlns:xlink="http://www.w3.org/1999/xlink" viewBox="0 0 512 512" xml:space="preserve" width="800px" height="800px">
<g id="SVGRepo_bgCarrier" stroke-width="0"/>
<g id="SVGRepo_tracerCarrier" stroke-linecap="round" stroke-linejoin="round"/>
<g id="SVGRepo_iconCarrier"> <g> <g> <rect x="122.435" y="66.783" width="33.391" height="66.783"/> </g> </g> <g> <g> <rect x="155.826" width="33.391" height="66.783"/> </g> </g> <g> <g> <rect x="356.174" y="66.783" width="33.391" height="66.783"/> </g> </g> <g> <g> <rect x="322.783" width="33.391" height="66.783"/> </g> </g> <g> <g> <path d="M422.957,200.348v-66.783h-33.391v66.783h-267.13v-66.783H89.044v66.783H0v155.826h33.391v122.435h33.391V512h378.435 v-33.391h33.391V356.174H512V200.348H422.957z M155.826,445.217h-33.391V267.13h33.391V445.217z M233.739,445.217h-33.391V267.13 h33.391V445.217z M311.652,445.217h-33.391V267.13h33.391V445.217z M389.565,445.217h-33.391V267.13h33.391V445.217z"/> </g> </g> </g>
</svg>