<svg width="24" height="24" viewBox="0 0 24 24" fill="none" xmlns="http://www.w3.org/2000/svg">
<path d="M12.6934 4.25879C13.3269 4.80472 14.2076 5.56273 15.1953 6.41113C17.1705 8.10764 19.5765 10.1666 21.2949 11.6143L21.3037 11.6221L21.3125 11.6289C21.3701 11.6732 21.4168 11.7299 21.4492 11.7949C21.4654 11.8273 21.4779 11.8615 21.4863 11.8965L21.5 12.0049C21.4987 12.1357 21.4461 12.2609 21.3535 12.3535C21.2597 12.4473 21.1326 12.5 21 12.5H18.5V20C18.5 20.1326 18.4473 20.2597 18.3535 20.3535C18.2597 20.4473 18.1326 20.5 18 20.5H15C14.8674 20.5 14.7403 20.4473 14.6465 20.3535C14.5527 20.2597 14.5 20.1326 14.5 20V17C14.5 16.1716 13.8284 15.5 13 15.5H11C10.1716 15.5 9.5 16.1716 9.5 17V20C9.5 20.1326 9.44728 20.2597 9.35352 20.3535C9.25975 20.4473 9.13261 20.5 9 20.5H6C5.86739 20.5 5.74025 20.4473 5.64648 20.3535C5.55272 20.2597 5.5 20.1326 5.5 20V12.5H3C2.86739 12.5 2.74025 12.4473 2.64648 12.3535C2.55364 12.2607 2.50102 12.1351 2.5 12.0039C2.50172 11.9297 2.51854 11.8565 2.5498 11.7891C2.58173 11.7204 2.62746 11.6581 2.68457 11.6084C4.41508 10.1606 6.82492 8.10526 8.80078 6.41113C9.79024 5.56276 10.6716 4.80471 11.3057 4.25879C11.592 4.01226 11.8273 3.80802 12 3.65918C12.1725 3.80799 12.4074 4.01238 12.6934 4.25879Z" stroke="#DA7756"/>
<path d="M15.5 3.5V3C15.2239 3 15 3.22386 15 3.5H15.5ZM17.5 3.5H18C18 3.22386 17.7761 3 17.5 3V3.5ZM15.5 6.5H16V3.5H15.5H15V6.5H15.5ZM15.5 3.5V4H17.5V3.5V3H15.5V3.5ZM17.5 3.5H17V8H17.5H18V3.5H17.5ZM17.5 8H17V8.5H17.5H18V8H17.5Z" fill="#DA7756"/>
</svg>
