<svg width="152" height="138" viewBox="0 0 152 138" fill="none" xmlns="http://www.w3.org/2000/svg">
<path d="M56 50H61V55H56V50Z" fill="#DA7756"/>
<path d="M56 55H61V60H56V55Z" fill="#DA7756"/>
<path d="M51 55H56V60H51V55Z" fill="#DA7756"/>
<path d="M61 50H66V55H61V50Z" fill="#DA7756"/>
<path d="M61 45H66V50H61V45Z" fill="#DA7756"/>
<path d="M66 45H71V50H66V45Z" fill="#DA7756"/>
<path d="M66 40H71V45H66V40Z" fill="#DA7756"/>
<path d="M71 40H76V45H71V40Z" fill="#DA7756"/>
<path d="M76 40H81V45H76V40Z" fill="#DA7756"/>
<path d="M51 60H56V65H51V60Z" fill="#DA7756"/>
<path d="M46 60H51V65H46V60Z" fill="#DA7756"/>
<path d="M46 70H51V75H46V70Z" fill="#DA7756"/>
<path d="M46 75H51V80H46V75Z" fill="#DA7756"/>
<path d="M46 80H51V85H46V80Z" fill="#DA7756"/>
<path d="M69 37H74V41H69V37Z" fill="#DA7756"/>
<path d="M75 37H80V41H75V37Z" fill="#DA7756"/>
<path d="M78 37H83V41H78V37Z" fill="#DA7756"/>
<path d="M72 37H77V41H72V37Z" fill="#DA7756"/>
<path d="M46 65H51V70H46V65Z" fill="#DA7756"/>
<path d="M101 65H106V70H101V65Z" fill="#DA7756"/>
<path d="M46 85H51V90H46V85Z" fill="#DA7756"/>
<path d="M46 90H51V95H46V90Z" fill="#DA7756"/>
<path d="M51 90H56V95H51V90Z" fill="#DA7756"/>
<path d="M51 95H56V100H51V95Z" fill="#DA7756"/>
<path d="M56 95H61V100H56V95Z" fill="#DA7756"/>
<path d="M61 95H66V100H61V95Z" fill="#DA7756"/>
<path d="M66 95H71V100H66V95Z" fill="#DA7756"/>
<path d="M66 90H71V95H66V90Z" fill="#DA7756"/>
<path d="M66 85H71V90H66V85Z" fill="#DA7756"/>
<path d="M66 80H71V85H66V80Z" fill="#DA7756"/>
<path d="M71 80H76V85H71V80Z" fill="#DA7756"/>
<path d="M76 80H81V85H76V80Z" fill="#DA7756"/>
<path d="M81 80H86V85H81V80Z" fill="#DA7756"/>
<path d="M79 82H84V87H79V82Z" fill="#DA7756"/>
<path d="M79 78H84V83H79V78Z" fill="#DA7756"/>
<path d="M76 78H81V83H76V78Z" fill="#DA7756"/>
<path d="M71 78H76V83H71V78Z" fill="#DA7756"/>
<path d="M68 78H73V83H68V78Z" fill="#DA7756"/>
<path d="M64 82H69V87H64V82Z" fill="#DA7756"/>
<path d="M65 85H70V90H65V85Z" fill="#DA7756"/>
<path d="M64 85H69V90H64V85Z" fill="#DA7756"/>
<path d="M83 82H88V87H83V82Z" fill="#DA7756"/>
<path d="M83 87H88V92H83V87Z" fill="#DA7756"/>
<path d="M83 91H88V96H83V91Z" fill="#DA7756"/>
<path d="M64 90H69V95H64V90Z" fill="#DA7756"/>
<path d="M64 85H69V90H64V85Z" fill="#DA7756"/>
<path d="M68 82H73V87H68V82Z" fill="#DA7756"/>
<path d="M81 85H86V90H81V85Z" fill="#DA7756"/>
<path d="M81 90H86V95H81V90Z" fill="#DA7756"/>
<path d="M81 95H86V100H81V95Z" fill="#DA7756"/>
<path d="M86 95H91V100H86V95Z" fill="#DA7756"/>
<path d="M91 95H96V100H91V95Z" fill="#DA7756"/>
<path d="M96 95H101V100H96V95Z" fill="#DA7756"/>
<path d="M96 90H101V95H96V90Z" fill="#DA7756"/>
<path d="M101 90H106V95H101V90Z" fill="#DA7756"/>
<path d="M101 85H106V90H101V85Z" fill="#DA7756"/>
<path d="M101 80H106V85H101V80Z" fill="#DA7756"/>
<path d="M101 75H106V80H101V75Z" fill="#DA7756"/>
<path d="M43 68H46V73H43V68Z" fill="#DA7756"/>
<path d="M43 73H46V78H43V73Z" fill="#DA7756"/>
<path d="M43 78H46V83H43V78Z" fill="#DA7756"/>
<path d="M43 83H46V88H43V83Z" fill="#DA7756"/>
<path d="M105 68H108V73H105V68Z" fill="#DA7756"/>
<path d="M105 73H108V78H105V73Z" fill="#DA7756"/>
<path d="M105 78H108V83H105V78Z" fill="#DA7756"/>
<path d="M105 83H108V88H105V83Z" fill="#DA7756"/>
<path d="M101 70H106V75H101V70Z" fill="#DA7756"/>
<path d="M101 60H106V65H101V60Z" fill="#DA7756"/>
<path d="M96 60H101V65H96V60Z" fill="#DA7756"/>
<path d="M96 55H101V60H96V55Z" fill="#DA7756"/>
<path d="M91 55H96V60H91V55Z" fill="#DA7756"/>
<path d="M91 50H96V55H91V50Z" fill="#DA7756"/>
<path d="M86 50H91V55H86V50Z" fill="#DA7756"/>
<path d="M86 45H91V50H86V45Z" fill="#DA7756"/>
<path d="M81 45H86V50H81V45Z" fill="#DA7756"/>
<path d="M81 40H86V45H81V40Z" fill="#DA7756"/>
</svg>
