<svg width="19" height="19" viewBox="0 0 19 19" fill="none" xmlns="http://www.w3.org/2000/svg">
<path d="M9 9.05882C9.97634 9.05882 10.9127 8.68698 11.6031 8.02508C12.2935 7.36319 12.6813 6.46547 12.6813 5.52941C12.6813 4.59335 12.2935 3.69563 11.6031 3.03374C10.9127 2.37185 9.97634 2 9 2C8.02366 2 7.0873 2.37185 6.39692 3.03374C5.70655 3.69563 5.3187 4.59335 5.3187 5.52941C5.3187 6.46547 5.70655 7.36319 6.39692 8.02508C7.0873 8.68698 8.02366 9.05882 9 9.05882ZM16 17C15.5242 15.5786 14.758 12.8797 13.5 12C12.242 11.1203 10.5571 10.5 9 10.5C7.44292 10.5 5.75803 11.1203 4.5 12C3.24197 12.8797 2.47576 15.5786 2 17H16Z" stroke="#DA7756" stroke-linecap="round" stroke-linejoin="round"/>
</svg>
