<svg width="68" height="70" viewBox="0 0 68 70" fill="none" xmlns="http://www.w3.org/2000/svg">
<rect x="30.3438" y="7" width="1.71875" height="1.71875" fill="#DA7756"/>
<rect x="28.625" y="7" width="1.71875" height="1.71875" fill="#DA7756"/>
<rect x="26.9062" y="7" width="1.71875" height="1.71875" fill="#DA7756"/>
<rect x="38.9375" y="7" width="1.71875" height="1.71875" fill="#DA7756"/>
<rect x="40.6562" y="8.71875" width="1.71875" height="1.71875" fill="#DA7756"/>
<rect x="32.0625" y="7" width="1.71875" height="1.71875" fill="#DA7756"/>
<rect x="33.7812" y="7" width="1.71875" height="1.71875" fill="#DA7756"/>
<rect x="35.5" y="7" width="1.71875" height="1.71875" fill="#DA7756"/>
<rect x="37.2188" y="7" width="1.71875" height="1.71875" fill="#DA7756"/>
<rect x="35.5" y="7" width="1.71875" height="1.71875" fill="#DA7756"/>
<rect x="26.9062" y="8.71875" width="1.71875" height="1.71875" fill="#DA7756"/>
<rect x="25.19" y="8.71997" width="1.71875" height="1.71875" fill="#DA7756"/>
<rect x="28.625" y="8.71875" width="1.71875" height="1.71875" fill="#DA7756"/>
<rect x="30.3438" y="8.71875" width="1.71875" height="1.71875" fill="#DA7756"/>
<rect x="32.0625" y="8.71875" width="1.71875" height="1.71875" fill="#DA7756"/>
<rect x="33.7812" y="8.71875" width="1.71875" height="1.71875" fill="#DA7756"/>
<rect x="35.5" y="8.71875" width="1.71875" height="1.71875" fill="#DA7756"/>
<rect x="37.2188" y="8.71875" width="1.71875" height="1.71875" fill="#DA7756"/>
<rect x="38.9375" y="8.71875" width="1.71875" height="1.71875" fill="#DA7756"/>
<rect x="23.4688" y="10.4375" width="1.71875" height="1.71875" fill="#DA7756"/>
<rect x="25.1875" y="10.4375" width="1.71875" height="1.71875" fill="#DA7756"/>
<rect x="26.9062" y="10.4375" width="1.71875" height="1.71875" fill="#DA7756"/>
<rect x="38.9375" y="10.4375" width="1.71875" height="1.71875" fill="#DA7756"/>
<rect x="40.6562" y="10.4375" width="1.71875" height="1.71875" fill="#DA7756"/>
<rect x="42.375" y="10.4375" width="1.71875" height="1.71875" fill="#DA7756"/>
<rect x="21.75" y="12.1562" width="1.71875" height="1.71875" fill="#DA7756"/>
<rect x="20.03" y="13.88" width="1.71875" height="1.71875" fill="#DA7756"/>
<rect x="23.4688" y="12.1562" width="1.71875" height="1.71875" fill="#DA7756"/>
<rect x="25.1875" y="12.1562" width="1.71875" height="1.71875" fill="#DA7756"/>
<rect x="40.6562" y="12.1562" width="1.71875" height="1.71875" fill="#DA7756"/>
<rect x="42.375" y="12.1562" width="1.71875" height="1.71875" fill="#DA7756"/>
<rect x="44.0938" y="12.1562" width="1.71875" height="1.71875" fill="#DA7756"/>
<rect x="21.75" y="13.875" width="1.71875" height="1.71875" fill="#DA7756"/>
<rect x="23.4688" y="13.875" width="1.71875" height="1.71875" fill="#DA7756"/>
<rect x="42.375" y="13.875" width="1.71875" height="1.71875" fill="#DA7756"/>
<rect x="44.0938" y="13.875" width="1.71875" height="1.71875" fill="#DA7756"/>
<rect x="20.0312" y="15.5938" width="1.71875" height="1.71875" fill="#DA7756"/>
<rect x="21.75" y="15.5938" width="1.71875" height="1.71875" fill="#DA7756"/>
<rect x="44.0938" y="15.5938" width="1.71875" height="1.71875" fill="#DA7756"/>
<rect x="45.8125" y="15.5938" width="1.71875" height="1.71875" fill="#DA7756"/>
<rect x="45.81" y="13.88" width="1.71875" height="1.71875" fill="#DA7756"/>
<rect x="20.0312" y="17.3125" width="1.71875" height="1.71875" fill="#DA7756"/>
<rect x="21.75" y="17.3125" width="1.71875" height="1.71875" fill="#DA7756"/>
<rect x="44.0938" y="17.3125" width="1.71875" height="1.71875" fill="#DA7756"/>
<rect x="45.8125" y="17.3125" width="1.71875" height="1.71875" fill="#DA7756"/>
<rect x="20.0312" y="19.0312" width="1.71875" height="1.71875" fill="#DA7756"/>
<rect x="21.75" y="19.0312" width="1.71875" height="1.71875" fill="#DA7756"/>
<rect x="44.0938" y="19.0312" width="1.71875" height="1.71875" fill="#DA7756"/>
<rect x="45.8125" y="19.0312" width="1.71875" height="1.71875" fill="#DA7756"/>
<rect x="20.0312" y="20.75" width="1.71875" height="1.71875" fill="#DA7756"/>
<rect x="21.75" y="20.75" width="1.71875" height="1.71875" fill="#DA7756"/>
<rect x="44.0938" y="20.75" width="1.71875" height="1.71875" fill="#DA7756"/>
<rect x="45.8125" y="20.75" width="1.71875" height="1.71875" fill="#DA7756"/>
<rect x="20.0312" y="22.4688" width="1.71875" height="1.71875" fill="#DA7756"/>
<rect x="21.75" y="22.4688" width="1.71875" height="1.71875" fill="#DA7756"/>
<rect x="44.0938" y="22.4688" width="1.71875" height="1.71875" fill="#DA7756"/>
<rect x="45.8125" y="22.4688" width="1.71875" height="1.71875" fill="#DA7756"/>
<rect x="20.0312" y="24.1875" width="1.71875" height="1.71875" fill="#DA7756"/>
<rect x="21.75" y="24.1875" width="1.71875" height="1.71875" fill="#DA7756"/>
<rect x="44.0938" y="24.1875" width="1.71875" height="1.71875" fill="#DA7756"/>
<rect x="45.8125" y="24.1875" width="1.71875" height="1.71875" fill="#DA7756"/>
<rect x="20.0312" y="25.9062" width="1.71875" height="1.71875" fill="#DA7756"/>
<rect x="21.75" y="25.9062" width="1.71875" height="1.71875" fill="#DA7756"/>
<rect x="23.4688" y="25.9062" width="1.71875" height="1.71875" fill="#DA7756"/>
<rect x="42.375" y="25.9062" width="1.71875" height="1.71875" fill="#DA7756"/>
<rect x="44.0938" y="25.9062" width="1.71875" height="1.71875" fill="#DA7756"/>
<rect x="45.8125" y="25.9062" width="1.71875" height="1.71875" fill="#DA7756"/>
<rect x="21.75" y="27.625" width="1.71875" height="1.71875" fill="#DA7756"/>
<rect x="23.4688" y="27.625" width="1.71875" height="1.71875" fill="#DA7756"/>
<rect x="25.1875" y="27.625" width="1.71875" height="1.71875" fill="#DA7756"/>
<rect x="40.6562" y="27.625" width="1.71875" height="1.71875" fill="#DA7756"/>
<rect x="42.375" y="27.625" width="1.71875" height="1.71875" fill="#DA7756"/>
<rect x="44.0938" y="27.625" width="1.71875" height="1.71875" fill="#DA7756"/>
<rect x="23.4688" y="29.3438" width="1.71875" height="1.71875" fill="#DA7756"/>
<rect x="25.1875" y="29.3438" width="1.71875" height="1.71875" fill="#DA7756"/>
<rect x="26.9062" y="29.3438" width="1.71875" height="1.71875" fill="#DA7756"/>
<rect x="38.9375" y="29.3438" width="1.71875" height="1.71875" fill="#DA7756"/>
<rect x="40.6562" y="29.3438" width="1.71875" height="1.71875" fill="#DA7756"/>
<rect x="42.375" y="29.3438" width="1.71875" height="1.71875" fill="#DA7756"/>
<rect x="25.1875" y="31.0625" width="1.71875" height="1.71875" fill="#DA7756"/>
<rect x="26.9062" y="31.0625" width="1.71875" height="1.71875" fill="#DA7756"/>
<rect x="28.625" y="31.0625" width="1.71875" height="1.71875" fill="#DA7756"/>
<rect x="30.3438" y="31.0625" width="1.71875" height="1.71875" fill="#DA7756"/>
<rect x="32.0625" y="31.0625" width="1.71875" height="1.71875" fill="#DA7756"/>
<rect x="33.7812" y="31.0625" width="1.71875" height="1.71875" fill="#DA7756"/>
<rect x="35.5" y="31.0625" width="1.71875" height="1.71875" fill="#DA7756"/>
<rect x="37.2188" y="31.0625" width="1.71875" height="1.71875" fill="#DA7756"/>
<rect x="38.9375" y="31.0625" width="1.71875" height="1.71875" fill="#DA7756"/>
<rect x="40.6562" y="31.0625" width="1.71875" height="1.71875" fill="#DA7756"/>
<rect x="28.625" y="32.7812" width="1.71875" height="1.71875" fill="#DA7756"/>
<rect x="26.9062" y="32.7812" width="1.71875" height="1.71875" fill="#DA7756"/>
<rect x="30.3438" y="32.7812" width="1.71875" height="1.71875" fill="#DA7756"/>
<rect x="32.0625" y="32.7812" width="1.71875" height="1.71875" fill="#DA7756"/>
<rect x="33.7812" y="32.7812" width="1.71875" height="1.71875" fill="#DA7756"/>
<rect x="35.5" y="32.7812" width="1.71875" height="1.71875" fill="#DA7756"/>
<rect x="37.2188" y="32.7812" width="1.71875" height="1.71875" fill="#DA7756"/>
<rect x="38.9375" y="32.7812" width="1.71875" height="1.71875" fill="#DA7756"/>
<rect x="26.9062" y="36.2188" width="1.71875" height="1.71875" fill="#DA7756"/>
<rect x="28.625" y="36.2188" width="1.71875" height="1.71875" fill="#DA7756"/>
<rect x="30.3438" y="36.2188" width="1.71875" height="1.71875" fill="#DA7756"/>
<rect x="32.0625" y="36.2188" width="1.71875" height="1.71875" fill="#DA7756"/>
<rect x="33.7812" y="36.2188" width="1.71875" height="1.71875" fill="#DA7756"/>
<rect x="35.5" y="36.2188" width="1.71875" height="1.71875" fill="#DA7756"/>
<rect x="37.2188" y="36.2188" width="1.71875" height="1.71875" fill="#DA7756"/>
<rect x="38.9375" y="36.2188" width="1.71875" height="1.71875" fill="#DA7756"/>
<rect x="21.75" y="37.9375" width="1.71875" height="1.71875" fill="#DA7756"/>
<rect x="23.4688" y="37.9375" width="1.71875" height="1.71875" fill="#DA7756"/>
<rect x="25.1875" y="37.9375" width="1.71875" height="1.71875" fill="#DA7756"/>
<rect x="26.9062" y="37.9375" width="1.71875" height="1.71875" fill="#DA7756"/>
<rect x="28.625" y="37.9375" width="1.71875" height="1.71875" fill="#DA7756"/>
<rect x="30.3438" y="37.9375" width="1.71875" height="1.71875" fill="#DA7756"/>
<rect x="32.0625" y="37.9375" width="1.71875" height="1.71875" fill="#DA7756"/>
<rect x="33.7812" y="37.9375" width="1.71875" height="1.71875" fill="#DA7756"/>
<rect x="35.5" y="37.9375" width="1.71875" height="1.71875" fill="#DA7756"/>
<rect x="37.2188" y="37.9375" width="1.71875" height="1.71875" fill="#DA7756"/>
<rect x="38.9375" y="37.9375" width="1.71875" height="1.71875" fill="#DA7756"/>
<rect x="40.6562" y="37.9375" width="1.71875" height="1.71875" fill="#DA7756"/>
<rect x="42.375" y="37.9375" width="1.71875" height="1.71875" fill="#DA7756"/>
<rect x="44.0938" y="37.9375" width="1.71875" height="1.71875" fill="#DA7756"/>
<rect x="18.3125" y="39.6562" width="1.71875" height="1.71875" fill="#DA7756"/>
<rect x="20.0312" y="39.6562" width="1.71875" height="1.71875" fill="#DA7756"/>
<rect x="21.75" y="39.6562" width="1.71875" height="1.71875" fill="#DA7756"/>
<rect x="23.4688" y="39.6562" width="1.71875" height="1.71875" fill="#DA7756"/>
<rect x="25.1875" y="39.6562" width="1.71875" height="1.71875" fill="#DA7756"/>
<rect x="26.9062" y="39.6562" width="1.71875" height="1.71875" fill="#DA7756"/>
<rect x="38.9375" y="39.6562" width="1.71875" height="1.71875" fill="#DA7756"/>
<rect x="40.6562" y="39.6562" width="1.71875" height="1.71875" fill="#DA7756"/>
<rect x="42.375" y="39.6562" width="1.71875" height="1.71875" fill="#DA7756"/>
<rect x="44.0938" y="39.6562" width="1.71875" height="1.71875" fill="#DA7756"/>
<rect x="45.8125" y="39.6562" width="1.71875" height="1.71875" fill="#DA7756"/>
<rect x="47.5312" y="39.6562" width="1.71875" height="1.71875" fill="#DA7756"/>
<rect x="16.5938" y="41.375" width="1.71875" height="1.71875" fill="#DA7756"/>
<rect x="18.3125" y="41.375" width="1.71875" height="1.71875" fill="#DA7756"/>
<rect x="20.0312" y="41.375" width="1.71875" height="1.71875" fill="#DA7756"/>
<rect x="21.75" y="41.375" width="1.71875" height="1.71875" fill="#DA7756"/>
<rect x="44.0938" y="41.375" width="1.71875" height="1.71875" fill="#DA7756"/>
<rect x="45.8125" y="41.375" width="1.71875" height="1.71875" fill="#DA7756"/>
<rect x="47.5312" y="41.375" width="1.71875" height="1.71875" fill="#DA7756"/>
<rect x="49.25" y="41.375" width="1.71875" height="1.71875" fill="#DA7756"/>
<rect x="14.875" y="43.0938" width="1.71875" height="1.71875" fill="#DA7756"/>
<rect x="16.5938" y="43.0938" width="1.71875" height="1.71875" fill="#DA7756"/>
<rect x="18.3125" y="43.0938" width="1.71875" height="1.71875" fill="#DA7756"/>
<rect x="47.5312" y="43.0938" width="1.71875" height="1.71875" fill="#DA7756"/>
<rect x="49.25" y="43.0938" width="1.71875" height="1.71875" fill="#DA7756"/>
<rect x="50.9688" y="43.0938" width="1.71875" height="1.71875" fill="#DA7756"/>
<rect x="13.1562" y="44.8125" width="1.71875" height="1.71875" fill="#DA7756"/>
<rect x="14.875" y="44.8125" width="1.71875" height="1.71875" fill="#DA7756"/>
<rect x="16.5938" y="44.8125" width="1.71875" height="1.71875" fill="#DA7756"/>
<rect x="49.25" y="44.8125" width="1.71875" height="1.71875" fill="#DA7756"/>
<rect x="50.9688" y="44.8125" width="1.71875" height="1.71875" fill="#DA7756"/>
<rect x="52.6875" y="44.8125" width="1.71875" height="1.71875" fill="#DA7756"/>
<rect x="13.1562" y="46.5312" width="1.71875" height="1.71875" fill="#DA7756"/>
<rect x="14.875" y="46.5312" width="1.71875" height="1.71875" fill="#DA7756"/>
<rect x="50.9688" y="46.5312" width="1.71875" height="1.71875" fill="#DA7756"/>
<rect x="52.6875" y="46.5312" width="1.71875" height="1.71875" fill="#DA7756"/>
<rect x="11.4375" y="48.25" width="1.71875" height="1.71875" fill="#DA7756"/>
<rect x="13.1562" y="48.25" width="1.71875" height="1.71875" fill="#DA7756"/>
<rect x="14.875" y="48.25" width="1.71875" height="1.71875" fill="#DA7756"/>
<rect x="50.9688" y="48.25" width="1.71875" height="1.71875" fill="#DA7756"/>
<rect x="52.6875" y="48.25" width="1.71875" height="1.71875" fill="#DA7756"/>
<rect x="54.4062" y="48.25" width="1.71875" height="1.71875" fill="#DA7756"/>
<rect x="11.4375" y="49.9688" width="1.71875" height="1.71875" fill="#DA7756"/>
<rect x="13.1562" y="49.9688" width="1.71875" height="1.71875" fill="#DA7756"/>
<rect x="52.6875" y="49.9688" width="1.71875" height="1.71875" fill="#DA7756"/>
<rect x="54.4062" y="49.9688" width="1.71875" height="1.71875" fill="#DA7756"/>
<rect x="11.4375" y="51.6875" width="1.71875" height="1.71875" fill="#DA7756"/>
<rect x="13.1562" y="51.6875" width="1.71875" height="1.71875" fill="#DA7756"/>
<rect x="52.6875" y="51.6875" width="1.71875" height="1.71875" fill="#DA7756"/>
<rect x="54.4062" y="51.6875" width="1.71875" height="1.71875" fill="#DA7756"/>
<rect x="9.71875" y="53.4062" width="1.71875" height="1.71875" fill="#DA7756"/>
<rect x="11.4375" y="53.4062" width="1.71875" height="1.71875" fill="#DA7756"/>
<rect x="13.1562" y="53.4062" width="1.71875" height="1.71875" fill="#DA7756"/>
<rect x="52.6875" y="53.4062" width="1.71875" height="1.71875" fill="#DA7756"/>
<rect x="54.4062" y="53.4062" width="1.71875" height="1.71875" fill="#DA7756"/>
<rect x="56.125" y="53.4062" width="1.71875" height="1.71875" fill="#DA7756"/>
<rect x="9.71875" y="55.125" width="1.71875" height="1.71875" fill="#DA7756"/>
<rect x="11.4375" y="55.125" width="1.71875" height="1.71875" fill="#DA7756"/>
<rect x="54.4062" y="55.125" width="1.71875" height="1.71875" fill="#DA7756"/>
<rect x="56.125" y="55.125" width="1.71875" height="1.71875" fill="#DA7756"/>
<rect x="9.71875" y="56.8438" width="1.71875" height="1.71875" fill="#DA7756"/>
<rect x="11.4375" y="56.8438" width="1.71875" height="1.71875" fill="#DA7756"/>
<rect x="13.1562" y="56.8438" width="1.71875" height="1.71875" fill="#DA7756"/>
<rect x="14.875" y="56.8438" width="1.71875" height="1.71875" fill="#DA7756"/>
<rect x="16.5938" y="56.8438" width="1.71875" height="1.71875" fill="#DA7756"/>
<rect x="18.3125" y="56.8438" width="1.71875" height="1.71875" fill="#DA7756"/>
<rect x="20.0312" y="56.8438" width="1.71875" height="1.71875" fill="#DA7756"/>
<rect x="21.75" y="56.8438" width="1.71875" height="1.71875" fill="#DA7756"/>
<rect x="23.4688" y="56.8438" width="1.71875" height="1.71875" fill="#DA7756"/>
<rect x="25.1875" y="56.8438" width="1.71875" height="1.71875" fill="#DA7756"/>
<rect x="26.9062" y="56.8438" width="1.71875" height="1.71875" fill="#DA7756"/>
<rect x="28.625" y="56.8438" width="1.71875" height="1.71875" fill="#DA7756"/>
<rect x="30.3438" y="56.8438" width="1.71875" height="1.71875" fill="#DA7756"/>
<rect x="32.0625" y="56.8438" width="1.71875" height="1.71875" fill="#DA7756"/>
<rect x="33.7812" y="56.8438" width="1.71875" height="1.71875" fill="#DA7756"/>
<rect x="35.5" y="56.8438" width="1.71875" height="1.71875" fill="#DA7756"/>
<rect x="37.2188" y="56.8438" width="1.71875" height="1.71875" fill="#DA7756"/>
<rect x="38.9375" y="56.8438" width="1.71875" height="1.71875" fill="#DA7756"/>
<rect x="40.6562" y="56.8438" width="1.71875" height="1.71875" fill="#DA7756"/>
<rect x="42.375" y="56.8438" width="1.71875" height="1.71875" fill="#DA7756"/>
<rect x="44.0938" y="56.8438" width="1.71875" height="1.71875" fill="#DA7756"/>
<rect x="45.8125" y="56.8438" width="1.71875" height="1.71875" fill="#DA7756"/>
<rect x="47.5312" y="56.8438" width="1.71875" height="1.71875" fill="#DA7756"/>
<rect x="49.25" y="56.8438" width="1.71875" height="1.71875" fill="#DA7756"/>
<rect x="50.9688" y="56.8438" width="1.71875" height="1.71875" fill="#DA7756"/>
<rect x="52.6875" y="56.8438" width="1.71875" height="1.71875" fill="#DA7756"/>
<rect x="54.4062" y="56.8438" width="1.71875" height="1.71875" fill="#DA7756"/>
<rect x="56.125" y="56.8438" width="1.71875" height="1.71875" fill="#DA7756"/>
<rect x="8" y="58.5625" width="1.71875" height="1.71875" fill="#DA7756"/>
<rect x="9.71875" y="58.5625" width="1.71875" height="1.71875" fill="#DA7756"/>
<rect x="11.4375" y="58.5625" width="1.71875" height="1.71875" fill="#DA7756"/>
<rect x="13.1562" y="58.5625" width="1.71875" height="1.71875" fill="#DA7756"/>
<rect x="14.875" y="58.5625" width="1.71875" height="1.71875" fill="#DA7756"/>
<rect x="16.5938" y="58.5625" width="1.71875" height="1.71875" fill="#DA7756"/>
<rect x="18.3125" y="58.5625" width="1.71875" height="1.71875" fill="#DA7756"/>
<rect x="20.0312" y="58.5625" width="1.71875" height="1.71875" fill="#DA7756"/>
<rect x="21.75" y="58.5625" width="1.71875" height="1.71875" fill="#DA7756"/>
<rect x="23.4688" y="58.5625" width="1.71875" height="1.71875" fill="#DA7756"/>
<rect x="25.1875" y="58.5625" width="1.71875" height="1.71875" fill="#DA7756"/>
<rect x="26.9062" y="58.5625" width="1.71875" height="1.71875" fill="#DA7756"/>
<rect x="28.625" y="58.5625" width="1.71875" height="1.71875" fill="#DA7756"/>
<rect x="30.3438" y="58.5625" width="1.71875" height="1.71875" fill="#DA7756"/>
<rect x="32.0625" y="58.5625" width="1.71875" height="1.71875" fill="#DA7756"/>
<rect x="33.7812" y="58.5625" width="1.71875" height="1.71875" fill="#DA7756"/>
<rect x="35.5" y="58.5625" width="1.71875" height="1.71875" fill="#DA7756"/>
<rect x="37.2188" y="58.5625" width="1.71875" height="1.71875" fill="#DA7756"/>
<rect x="38.9375" y="58.5625" width="1.71875" height="1.71875" fill="#DA7756"/>
<rect x="40.6562" y="58.5625" width="1.71875" height="1.71875" fill="#DA7756"/>
<rect x="42.375" y="58.5625" width="1.71875" height="1.71875" fill="#DA7756"/>
<rect x="44.0938" y="58.5625" width="1.71875" height="1.71875" fill="#DA7756"/>
<rect x="45.8125" y="58.5625" width="1.71875" height="1.71875" fill="#DA7756"/>
<rect x="47.5312" y="58.5625" width="1.71875" height="1.71875" fill="#DA7756"/>
<rect x="49.25" y="58.5625" width="1.71875" height="1.71875" fill="#DA7756"/>
<rect x="50.9688" y="58.5625" width="1.71875" height="1.71875" fill="#DA7756"/>
<rect x="52.6875" y="58.5625" width="1.71875" height="1.71875" fill="#DA7756"/>
<rect x="54.4062" y="58.5625" width="1.71875" height="1.71875" fill="#DA7756"/>
<rect x="56.125" y="58.5625" width="1.71875" height="1.71875" fill="#DA7756"/>
<rect x="57.8438" y="58.5625" width="1.71875" height="1.71875" fill="#DA7756"/>
<rect x="9.71875" y="60.2812" width="1.71875" height="1.71875" fill="#DA7756"/>
<rect x="11.4375" y="60.2812" width="1.71875" height="1.71875" fill="#DA7756"/>
<rect x="13.1562" y="60.2812" width="1.71875" height="1.71875" fill="#DA7756"/>
<rect x="14.875" y="60.2812" width="1.71875" height="1.71875" fill="#DA7756"/>
<rect x="16.5938" y="60.2812" width="1.71875" height="1.71875" fill="#DA7756"/>
<rect x="18.3125" y="60.2812" width="1.71875" height="1.71875" fill="#DA7756"/>
<rect x="8" y="60.28" width="1.71875" height="1.71875" fill="#DA7756"/>
<rect x="20.0312" y="60.2812" width="1.71875" height="1.71875" fill="#DA7756"/>
<rect x="21.75" y="60.2812" width="1.71875" height="1.71875" fill="#DA7756"/>
<rect x="23.4688" y="60.2812" width="1.71875" height="1.71875" fill="#DA7756"/>
<rect x="25.1875" y="60.2812" width="1.71875" height="1.71875" fill="#DA7756"/>
<rect x="26.9062" y="60.2812" width="1.71875" height="1.71875" fill="#DA7756"/>
<rect x="28.625" y="60.2812" width="1.71875" height="1.71875" fill="#DA7756"/>
<rect x="30.3438" y="60.2812" width="1.71875" height="1.71875" fill="#DA7756"/>
<rect x="32.0625" y="60.2812" width="1.71875" height="1.71875" fill="#DA7756"/>
<rect x="33.7812" y="60.2812" width="1.71875" height="1.71875" fill="#DA7756"/>
<rect x="35.5" y="60.2812" width="1.71875" height="1.71875" fill="#DA7756"/>
<rect x="37.2188" y="60.2812" width="1.71875" height="1.71875" fill="#DA7756"/>
<rect x="38.9375" y="60.2812" width="1.71875" height="1.71875" fill="#DA7756"/>
<rect x="40.6562" y="60.2812" width="1.71875" height="1.71875" fill="#DA7756"/>
<rect x="42.375" y="60.2812" width="1.71875" height="1.71875" fill="#DA7756"/>
<rect x="44.0938" y="60.2812" width="1.71875" height="1.71875" fill="#DA7756"/>
<rect x="45.8125" y="60.2812" width="1.71875" height="1.71875" fill="#DA7756"/>
<rect x="47.5312" y="60.2812" width="1.71875" height="1.71875" fill="#DA7756"/>
<rect x="49.25" y="60.2812" width="1.71875" height="1.71875" fill="#DA7756"/>
<rect x="50.9688" y="60.2812" width="1.71875" height="1.71875" fill="#DA7756"/>
<rect x="52.6875" y="60.2812" width="1.71875" height="1.71875" fill="#DA7756"/>
<rect x="54.4062" y="60.2812" width="1.71875" height="1.71875" fill="#DA7756"/>
<rect x="56.125" y="60.2812" width="1.71875" height="1.71875" fill="#DA7756"/>
<rect x="57.8438" y="60.2812" width="1.71875" height="1.71875" fill="#DA7756"/>
</svg>
