<svg width="16" height="16" viewBox="0 0 16 16" fill="none" xmlns="http://www.w3.org/2000/svg">
<path d="M10 0.5C10.2652 0.5 10.5195 0.605432 10.707 0.792969C10.8946 0.980506 11 1.23478 11 1.5V2.5H13.3682C13.9844 2.50013 14.4862 2.99606 14.4932 3.6123C14.4999 4.21513 14.0312 4.70983 13.4375 4.74609L12.8408 14.0957C12.8164 14.4759 12.6479 14.833 12.3701 15.0938C12.127 15.3218 11.8155 15.4617 11.4863 15.4932L11.3438 15.5H4.65625C4.27491 15.4997 3.90773 15.354 3.62988 15.0928C3.35226 14.8318 3.18422 14.475 3.16016 14.0947L2.56152 4.74609C1.96832 4.70935 1.50006 4.2148 1.50684 3.6123C1.51379 2.99606 2.01557 2.50013 2.63184 2.5H5V1.5C5 1.23478 5.10543 0.980505 5.29297 0.792969C5.48051 0.605432 5.73478 0.5 6 0.5H10ZM9.9873 12.5H10.0166L10.2627 5.5H10.2334L9.9873 12.5ZM5.9834 12.5H6.0127L5.7666 5.5H5.7373L5.9834 12.5Z" stroke="#DA7756"/>
</svg>
