<svg width="175" height="175" viewBox="0 0 175 175" fill="none" xmlns="http://www.w3.org/2000/svg">
<path d="M101 110H106V115H101V110Z" fill="#F2F6FF"/>
<path d="M111 100H116V105H111V100Z" fill="#F2F6FF"/>
<path d="M51 110H56V115H51V110Z" fill="#201C19"/>
<path d="M51 115H56V120H51V115Z" fill="#201C19"/>
<path d="M51 120H56V125H51V120Z" fill="#201C19"/>
<path d="M46 105H51V110H46V105Z" fill="#201C19"/>
<path d="M41 105H46V110H41V105Z" fill="#201C19"/>
<path d="M36 105H41V110H36V105Z" fill="#201C19"/>
<path d="M20 47H25V52H20V47Z" fill="#F2F6FF"/>
<path d="M108 47H113V52H108V47Z" fill="#F2F6FF"/>
<path d="M46 125H51V130H46V125Z" fill="#201C19"/>
<path d="M41 125H46V130H41V125Z" fill="#201C19"/>
<path d="M36 125H41V130H36V125Z" fill="#201C19"/>
<path d="M31 120H36V125H31V120Z" fill="#201C19"/>
<path d="M31 115H36V120H31V115Z" fill="#201C19"/>
<path d="M31 110H36V115H31V110Z" fill="#201C19"/>
<path d="M56 105H61V110H56V105Z" fill="#F2F6FF"/>
<path d="M52 103H57V108H52V103Z" fill="#F2F6FF"/>
<path d="M52 101H57V108H52V101Z" fill="#F2F6FF"/>
<path d="M57 110H62V115H57V110Z" fill="#F2F6FF"/>
<path d="M26 104H31V110H26V104Z" fill="#F2F6FF"/>
<path d="M25 110H30V115H25V110Z" fill="#F2F6FF"/>
<path d="M23 108H28V115H23V108Z" fill="#F2F6FF"/>
<path d="M30 101H35V108H30V101Z" fill="#F2F6FF"/>
<path d="M56 104H61V110H56V104Z" fill="#F2F6FF"/>
<path d="M35 99H53V104H35V99Z" fill="#F2F6FF"/>
<path d="M18 110H23V115H18V110Z" fill="#F2F6FF"/>
<path d="M18 105H23V110H18V105Z" fill="#F2F6FF"/>
<path d="M18 105H23V110H18V105Z" fill="#F2F6FF"/>
<path d="M18 50H23V110H18V50Z" fill="#F2F6FF"/>
<path d="M146 105H151V110H146V105Z" fill="#F2F6FF"/>
<path d="M151 105H156V110H151V105Z" fill="#F2F6FF"/>
<path d="M111 100H116V105H111V100Z" fill="#F2F6FF"/>
<path d="M141 83H146V88H141V83Z" fill="#F2F6FF"/>
<path d="M141 80H146V85H141V80Z" fill="#F2F6FF"/>
<path d="M136 75H141V80H136V75Z" fill="#F2F6FF"/>
<path d="M116 83H121V88H116V83Z" fill="#F2F6FF"/>
<path d="M116 78H121V83H116V78Z" fill="#F2F6FF"/>
<path d="M116 74H121V79H116V74Z" fill="#F2F6FF"/>
<path d="M111 100H116V105H111V100Z" fill="#F2F6FF"/>
<path d="M116 70H141V75H116V70Z" fill="#F2F6FF"/>
<path d="M141 105H146V110H141V105Z" fill="#F2F6FF"/>
<path d="M114 88H120V108H114V88Z" fill="#F2F6FF"/>
<path d="M120 88H151V104H120V88Z" fill="#F2F6FF"/>
<path d="M111 95H116V100H111V95Z" fill="#F2F6FF"/>
<path d="M111 90H116V95H111V90Z" fill="#F2F6FF"/>
<path d="M111 85H116V90H111V85Z" fill="#F2F6FF"/>
<path d="M111 80H116V85H111V80Z" fill="#F2F6FF"/>
<path d="M111 75H116V80H111V75Z" fill="#F2F6FF"/>
<path d="M111 70H116V75H111V70Z" fill="#F2F6FF"/>
<path d="M111 65H116V70H111V65Z" fill="#F2F6FF"/>
<path d="M116 110H121V115H116V110Z" fill="#201C19"/>
<path d="M116 115H121V120H116V115Z" fill="#201C19"/>
<path d="M116 120H121V125H116V120Z" fill="#201C19"/>
<path d="M121 125H126V130H121V125Z" fill="#201C19"/>
<path d="M126 125H131V130H126V125Z" fill="#201C19"/>
<path d="M131 125H136V130H131V125Z" fill="#201C19"/>
<path d="M136 120H141V125H136V120Z" fill="#201C19"/>
<path d="M136 115H141V120H136V115Z" fill="#201C19"/>
<path d="M136 110H141V115H136V110Z" fill="#201C19"/>
<path d="M121 105H126V110H121V105Z" fill="#201C19"/>
<path d="M126 105H131V110H126V105Z" fill="#201C19"/>
<path d="M131 105H136V110H131V105Z" fill="#F2F6FF"/>
<path d="M131 105H136V110H131V105Z" fill="#201C19"/>
<path d="M146 110H151V115H146V110Z" fill="#F2F6FF"/>
<path d="M149 108H154V113H149V108Z" fill="#F2F6FF"/>
<path d="M137 102H156V108H137V102Z" fill="#F2F6FF"/>
<path d="M151 100H156V105H151V100Z" fill="#F2F6FF"/>
<path d="M151 95H156V100H151V95Z" fill="#F2F6FF"/>
<path d="M151 90H156V95H151V90Z" fill="#F2F6FF"/>
<path d="M146 85H151V90H146V85Z" fill="#F2F6FF"/>
<path d="M146 80H151V85H146V80Z" fill="#F2F6FF"/>
<path d="M141 75H146V80H141V75Z" fill="#F2F6FF"/>
<path d="M141 70H146V75H141V70Z" fill="#F2F6FF"/>
<path d="M136 65H141V70H136V65Z" fill="#F2F6FF"/>
<path d="M131 65H136V70H131V65Z" fill="#F2F6FF"/>
<path d="M126 65H131V70H126V65Z" fill="#F2F6FF"/>
<path d="M121 65H126V70H121V65Z" fill="#F2F6FF"/>
<path d="M111 60H116V65H111V60Z" fill="#F2F6FF"/>
<path d="M111 55H116V60H111V55Z" fill="#F2F6FF"/>
<path d="M111 50H116V55H111V50Z" fill="#F2F6FF"/>
<path d="M106 45H111V50H106V45Z" fill="#F2F6FF"/>
<path d="M101 45H106V50H101V45Z" fill="#F2F6FF"/>
<path d="M86 45H106V50H86V45Z" fill="#F2F6FF"/>
<path d="M86 110H106V115H86V110Z" fill="#F2F6FF"/>
<path d="M23 45H86V50H23V45Z" fill="#F2F6FF"/>
<path d="M61 110H86V115H61V110Z" fill="#F2F6FF"/>
<path d="M116 65H121V70H116V65Z" fill="#F2F6FF"/>
<path d="M96 110H101V115H96V110Z" fill="#F2F6FF"/>
<path d="M111 105H116V110H111V105Z" fill="#F2F6FF"/>
<path d="M106 110H111V115H106V110Z" fill="#F2F6FF"/>
<path d="M110 110H115V115H110V110Z" fill="#F2F6FF"/>
<path d="M142 110H147V115H142V110Z" fill="#F2F6FF"/>
<path d="M59 107H64V112H59V107Z" fill="#F2F6FF"/>
</svg>
