<svg width="138" height="138" viewBox="0 0 138 138" fill="none" xmlns="http://www.w3.org/2000/svg">
<g clip-path="url(#clip0_16_96)">
<path d="M88.4412 4.17374C105.097 38.9788 104.105 57.2225 73.3318 86.1962L84.1244 88.3546C106.968 71.6265 116.771 4.17374 88.4412 4.17374Z" fill="#704E42" stroke="black" stroke-width="1.6"/>
<path d="M88.4412 4.17374C84.6637 1.88021 64.7275 -3.94447 49.5883 4.17374C30.9715 14.1568 14.6927 49.8616 40.9545 86.1962C40.9919 86.2477 60.3809 84.0378 60.3809 84.0378C16 32.5 77.483 35.3626 88.4412 4.17374Z" fill="#704E42" stroke="black" stroke-width="1.6"/>
<path d="M84.2267 76.9728H84.1093L85.5 73.5C85.5 73.5 76.0758 82 69 82C61.9241 82 52.5 73.5 52.5 73.5L53.8906 76.9676C53.8906 81.8344 53.87 87.1244 49.5735 90.3243V138H69C69 138 79.1723 138 88.4264 138V90.2498C84.2399 87.0419 84.2267 81.7979 84.2267 76.9728Z" stroke="black" stroke-width="1.6"/>
<path d="M101.377 92.6717H100.658C92.4594 92.6717 88.3546 90.4933 86.268 87.3692L69 97.6632L51.7323 87.3692C49.6457 90.4933 45.5409 92.6717 37.3423 92.6717H36.6229C23.5099 92.6717 12.8794 103.302 12.8794 116.415V131.525C12.8794 135.101 15.7785 138 19.3549 138H56.049H63.647H74.353H86.2677H118.645C122.221 138 125.121 135.101 125.121 131.525V116.415C125.121 103.302 114.49 92.6717 101.377 92.6717Z" fill="#C58B6C" stroke="black" stroke-width="1.6"/>
<path d="M84.1388 97.1318C84.9264 97.3473 83.4772 94.9099 84.1388 94.9662L88.4261 89.5642C84.2399 86.301 84.2264 80.9665 84.2264 76.0584H84.109V75C84.109 75 68.9158 89.4713 57.5 77L54 74.5C58.3171 79.3731 69.2991 93.0712 84.1388 97.1318Z" stroke="black" stroke-width="1.6"/>
<path d="M69 97.6632L51.9439 87.0782L46.6663 91.2618L56.6372 109.462C57.4428 110.584 59.0803 110.671 60.0004 109.64L69 97.6632Z" fill="#C58B6C" stroke="black" stroke-width="1.6"/>
<path d="M69 97.6632L86.0561 87.0782L91.3337 91.2618L81.3628 109.462C80.5572 110.584 78.9197 110.671 77.9996 109.64L69 97.6632Z" fill="#E1A280" stroke="black" stroke-width="1.6"/>
<path d="M69 118.141C70.192 118.141 71.1584 117.174 71.1584 115.982C71.1584 114.79 70.192 113.824 69 113.824C67.808 113.824 66.8416 114.79 66.8416 115.982C66.8416 117.174 67.808 118.141 69 118.141Z" fill="#D0D7DC" stroke="black" stroke-width="1.6"/>
<path d="M69.0295 129.033C70.2215 129.033 71.1879 128.067 71.1879 126.874C71.1879 125.682 70.2215 124.716 69.0295 124.716C67.8375 124.716 66.8711 125.682 66.8711 126.874C66.8711 128.067 67.8375 129.033 69.0295 129.033Z" fill="#D0D7DC" stroke="black" stroke-width="1.6"/>
<path d="M99.2334 43.0263C99.2334 60.3117 82.0425 81.8791 69.0147 81.8791C55.987 81.8791 38.7961 60.3117 38.7961 43.0263C38.7961 25.7408 52.3257 19.2827 69.0147 19.2827C85.7038 19.2827 99.2334 25.7408 99.2334 43.0263Z" stroke="black" stroke-width="1.6"/>
<path d="M73.3315 8.49051C72.1188 8.49051 68.1812 9.85311 64.963 11.0471C64.963 11.0471 64.2535 10.9979 63.4846 11.6028C61.6946 12.2824 60.8857 14 60.8857 14V13.649C52.6931 20.1038 34.0011 34.8697 32.3203 36.5508C30.1619 38.7092 45.2712 93.7788 45.2712 62.4527C45.2712 36.2812 59.8115 31.0981 73.3315 27.9169C79.4472 26.4779 81.246 22.8805 81.9654 19.2831C82.685 15.6857 75.4902 8.49051 73.3315 8.49051Z" fill="#704E42" stroke="black" stroke-width="1.6"/>
<path d="M79.807 21.4414C83.7643 35.6513 91.6788 42.0819 99.0986 43.9706C103.164 45.0055 101.392 32.234 101.392 32.234C101.392 32.234 95.636 17.4842 94.9167 17.1247C94.1973 16.7648 88.4412 4.17374 88.4412 4.17374L75.4902 14.9663L79.807 21.4414Z" fill="#704E42" stroke="black" stroke-width="1.6"/>
<path d="M96.0188 43.2237C99.5506 42.4142 101.864 44.1438 101.864 47.5408C101.864 52.0377 97.115 63.0549 92.1219 56.1747C87.1288 49.2944 96.0188 43.2237 96.0188 43.2237Z" stroke="black" stroke-width="1.6"/>
<path d="M72.8831 103.346C72.8831 104.391 72.028 105.246 70.9826 105.246H67.1814C66.136 105.246 65.2809 104.391 65.2809 103.346V99.5447C65.2809 98.4993 66.136 97.6442 67.1814 97.6442H70.9826C72.028 97.6442 72.8831 98.4993 72.8831 99.5447V103.346Z" fill="#DA7756" stroke="black" stroke-width="1.6"/>
<path d="M67.1817 99.5447L56.5273 94.9786C55.2733 94.4413 53.8782 95.3611 53.8782 96.7254V106.165C53.8782 107.529 55.2733 108.449 56.5273 107.912L67.1817 103.345V99.5447Z" fill="#DA7756" stroke="black" stroke-width="1.6"/>
<path d="M70.9825 99.5447L81.637 94.9786C82.891 94.4413 84.2861 95.3611 84.2861 96.7254V106.165C84.2861 107.529 82.891 108.449 81.637 107.912L70.9825 103.345V99.5447Z" fill="#DA7756" stroke="black" stroke-width="1.6"/>
<path d="M38.7957 138H62.5245L46.6663 91.2621C46.6663 91.2621 46.6335 91.2589 46.6292 91.2585C44.6352 92.0333 42.053 92.5067 38.7957 92.6225V138Z" fill="#E95F43" stroke="black" stroke-width="1.6"/>
<path d="M99.2334 138H75.5046L91.3628 91.2621C91.3628 91.2621 91.3956 91.2589 91.3999 91.2585C93.394 92.0333 95.9761 92.5067 99.2334 92.6225V138Z" fill="#E95F43" stroke="black" stroke-width="1.6"/>
</g>
<defs>
<clipPath id="clip0_16_96">
<rect width="138" height="138" fill="white"/>
</clipPath>
</defs>
</svg>
